<?xml version="1.0" encoding="utf-8"?>
<!-- Generator: Adobe Illustrator 23.0.5, SVG Export Plug-In . SVG Version: 6.00 Build 0)  -->
<svg version="1.1" xmlns="http://www.w3.org/2000/svg" xmlns:xlink="http://www.w3.org/1999/xlink" x="0px" y="0px"
	 viewBox="0 0 64 64" style="enable-background:new 0 0 64 64;" xml:space="preserve">
<g id="Layer_1">
	<g>
		<path d="M58,3H6C4.35,3,3,4.35,3,6v2c0,1.65,1.35,3,3,3h1v34c0,1.65,1.35,3,3,3h21v5.13c-1.73,0.44-3,2.01-3,3.87
			c0,2.21,1.79,4,4,4s4-1.79,4-4c0-1.86-1.27-3.43-3-3.87V48h21c1.65,0,3-1.35,3-3V11h1c1.65,0,3-1.35,3-3V6C61,4.35,59.65,3,58,3z
			 M34,57c0,1.1-0.9,2-2,2s-2-0.9-2-2c0-1.1,0.9-2,2-2S34,55.9,34,57z M55,45c0,0.55-0.45,1-1,1H10c-0.55,0-1-0.45-1-1V11h46V45z
			 M59,8c0,0.55-0.45,1-1,1H6C5.45,9,5,8.55,5,8V6c0-0.55,0.45-1,1-1h52c0.55,0,1,0.45,1,1V8z"/>
	</g>
	<g>
		<path d="M14,37c-0.26,0-0.51-0.1-0.71-0.29c-0.39-0.39-0.39-1.02,0-1.41l12-12c0.39-0.39,1.02-0.39,1.41,0L34,30.59l11.29-11.29
			c0.39-0.39,1.02-0.39,1.41,0s0.39,1.02,0,1.41l-12,12c-0.39,0.39-1.02,0.39-1.41,0L26,25.41L14.71,36.71
			C14.51,36.9,14.26,37,14,37z"/>
	</g>
	<g>
		<path d="M50,23c-0.55,0-1-0.45-1-1v-5h-5c-0.55,0-1-0.45-1-1s0.45-1,1-1h6c0.55,0,1,0.45,1,1v6C51,22.55,50.55,23,50,23z"/>
	</g>
	<g>
		<path d="M50,43H13c-0.55,0-1-0.45-1-1s0.45-1,1-1h37c0.55,0,1,0.45,1,1S50.55,43,50,43z"/>
	</g>
</g>
<g id="Layer_2">
</g>
</svg>
