<?xml version="1.0" encoding="utf-8"?>
<!-- Generator: Adobe Illustrator 23.0.5, SVG Export Plug-In . SVG Version: 6.00 Build 0)  -->
<svg version="1.1" xmlns="http://www.w3.org/2000/svg" xmlns:xlink="http://www.w3.org/1999/xlink" x="0px" y="0px"
	 viewBox="0 0 64 64" style="enable-background:new 0 0 64 64;" xml:space="preserve">
<g id="Layer_1">
	<g>
		<path d="M29.28,36.13l-17.19,17.2l17.24-17.24C29.31,36.1,29.3,36.12,29.28,36.13z"/>
	</g>
	<g>
		<path d="M55.44,34.81c-0.57-0.62-1.38-0.97-2.22-0.97H30.16V10.78c0-0.84-0.35-1.65-0.97-2.22C28.57,8,27.75,7.72,26.93,7.78
			C12.95,8.92,2,20.8,2,34.84c0,7.25,2.82,14.07,7.95,19.21C15.09,59.18,21.91,62,29.16,62c14.04,0,25.92-10.95,27.06-24.92
			C56.29,36.25,56,35.42,55.44,34.81z M27.09,9.77h0.08c0.24,0,0.48,0.09,0.66,0.26c0.21,0.2,0.33,0.46,0.33,0.75v23.65l-0.29,0.29
			l-17.2,17.19C6.36,47.24,4,41.22,4,34.84C4,21.84,14.14,10.83,27.09,9.77z M29.16,60c-6.38,0-12.4-2.36-17.07-6.67l17.19-17.2
			c0.02-0.01,0.03-0.03,0.05-0.04c0.18-0.16,0.42-0.25,0.66-0.25h23.23c0.29,0,0.55,0.12,0.75,0.33c0.19,0.2,0.28,0.47,0.26,0.74
			C53.17,49.86,42.16,60,29.16,60z"/>
	</g>
	<g>
		<path d="M58.91,30.16H36.84c-1.65,0-3-1.35-3-3V5.09c0-0.84,0.35-1.65,0.97-2.22c0.61-0.56,1.44-0.84,2.26-0.78
			c13.3,1.08,23.75,11.53,24.83,24.83c0.07,0.83-0.22,1.65-0.78,2.26C60.56,29.8,59.75,30.16,58.91,30.16z M36.83,4.08
			c-0.25,0-0.48,0.09-0.66,0.26c-0.21,0.2-0.33,0.46-0.33,0.75v22.07c0,0.55,0.45,1,1,1h22.07c0.29,0,0.55-0.12,0.75-0.33
			c0.19-0.21,0.28-0.47,0.26-0.75c-1.01-12.32-10.68-22-23-23C36.89,4.08,36.86,4.08,36.83,4.08z"/>
	</g>
</g>
<g id="Layer_2">
</g>
</svg>
