<?xml version="1.0" encoding="utf-8"?>
<!-- Generator: Adobe Illustrator 23.0.5, SVG Export Plug-In . SVG Version: 6.00 Build 0)  -->
<svg version="1.1" xmlns="http://www.w3.org/2000/svg" xmlns:xlink="http://www.w3.org/1999/xlink" x="0px" y="0px"
	 viewBox="0 0 64 64" style="enable-background:new 0 0 64 64;" xml:space="preserve">
<g id="Layer_1">
	<g>
		<path d="M32,17c-3.86,0-7-3.14-7-7s3.14-7,7-7s7,3.14,7,7S35.86,17,32,17z M32,5c-2.76,0-5,2.24-5,5s2.24,5,5,5s5-2.24,5-5
			S34.76,5,32,5z"/>
	</g>
	<g>
		<path d="M19.17,36.02c-0.55,0-1-0.45-1-1c0-0.43-0.35-0.78-0.78-0.78s-0.78,0.35-0.78,0.78c0,0.55-0.45,1-1,1s-1-0.45-1-1
			c0-1.54,1.25-2.78,2.78-2.78c1.54,0,2.78,1.25,2.78,2.78C20.17,35.57,19.72,36.02,19.17,36.02z"/>
	</g>
	<g>
		<path d="M58,35c-0.55,0-1,0.45-1,1s0.45,1,1,1s1,0.45,1,1s-0.45,1-1,1h-3.04v-0.41c0-8.42-6.85-15.28-15.27-15.28H22.74
			c-0.33,0-0.63,0.01-0.92,0.03l-5.83-3.03c-0.87-0.45-1.89-0.41-2.73,0.1c-0.84,0.51-1.34,1.4-1.34,2.38v4.69
			c0,0.2-0.09,0.4-0.24,0.57c-1.29,1.35-2.31,2.9-3.03,4.62c-0.12,0.28-0.39,0.46-0.71,0.46H5.78C4.25,33.13,3,34.38,3,35.91v5.35
			c0,1.54,1.25,2.79,2.78,2.79H6.9c0.38,0,0.71,0.28,0.77,0.67c0.92,5.46,4.75,10,9.99,11.85c0.3,0.11,0.51,0.4,0.51,0.73v0.92
			c0,1.53,1.25,2.78,2.78,2.78h1.79c1.53,0,2.78-1.25,2.78-2.78c0-0.44,0.35-0.79,0.78-0.79h8.93c0.43,0,0.78,0.35,0.78,0.79
			c0,1.53,1.25,2.78,2.78,2.78h1.79c1.53,0,2.78-1.25,2.78-2.78v-1.23c6.77-1.67,11.6-7.78,11.6-14.83V41H58c1.65,0,3-1.35,3-3
			C61,36.35,59.65,35,58,35z M52.96,42.16c0,6.37-4.53,11.86-10.78,13.04c-0.47,0.09-0.82,0.5-0.82,0.98v2.04
			c0,0.43-0.35,0.78-0.78,0.78h-1.79c-0.43,0-0.78-0.35-0.78-0.78c0-1.54-1.25-2.79-2.78-2.79H26.3c-1.53,0-2.78,1.25-2.78,2.79
			c0,0.43-0.35,0.78-0.78,0.78h-1.79c-0.43,0-0.78-0.35-0.78-0.78V57.3c0-1.18-0.74-2.23-1.85-2.62c-4.55-1.6-7.87-5.55-8.67-10.29
			c-0.23-1.36-1.39-2.34-2.75-2.34H5.78C5.35,42.05,5,41.7,5,41.26v-5.35c0-0.43,0.35-0.78,0.78-0.78h2.16
			c1.12,0,2.13-0.67,2.56-1.69c0.62-1.49,1.5-2.84,2.62-4.01c0.52-0.54,0.8-1.23,0.8-1.95v-4.69c0-0.4,0.27-0.6,0.38-0.67
			c0.11-0.07,0.41-0.21,0.77-0.03l5.52,2.86c0.2,0.29,0.55,0.45,0.92,0.42c0.37-0.04,0.77-0.06,1.23-0.06h16.95
			c7.32,0,13.27,5.96,13.27,13.28V42.16z"/>
	</g>
	<g>
		<path d="M37.01,29.77H26.3c-0.55,0-1-0.45-1-1s0.45-1,1-1h10.71c0.55,0,1,0.45,1,1S37.56,29.77,37.01,29.77z"/>
	</g>
</g>
<g id="Layer_2">
</g>
</svg>
