<?xml version="1.0" encoding="utf-8"?>
<!-- Generator: Adobe Illustrator 23.0.5, SVG Export Plug-In . SVG Version: 6.00 Build 0)  -->
<svg version="1.1" xmlns="http://www.w3.org/2000/svg" xmlns:xlink="http://www.w3.org/1999/xlink" x="0px" y="0px"
	 viewBox="0 0 64 64" style="enable-background:new 0 0 64 64;" xml:space="preserve">
<g id="Layer_1">
	<g>
		<path d="M58,26c1.65,0,3-1.35,3-3v-1c0-1.65-1.35-3-3-3v-2.69c0-1.19-0.7-2.27-1.79-2.75l-23-10.12c-0.77-0.34-1.65-0.34-2.42,0
			l-23,10.12C6.7,14.04,6,15.12,6,16.31V19c-1.65,0-3,1.35-3,3v1c0,1.65,1.35,3,3,3h2v28H6c-1.65,0-3,1.35-3,3v1c0,1.65,1.35,3,3,3
			h52c1.65,0,3-1.35,3-3v-1c0-1.65-1.35-3-3-3h-2V26H58z M8,16.31c0-0.4,0.23-0.76,0.6-0.92l23-10.12c0.25-0.11,0.55-0.11,0.8,0
			l23,10.12c0.37,0.16,0.6,0.52,0.6,0.92V19H8V16.31z M6,24c-0.55,0-1-0.45-1-1v-1c0-0.55,0.45-1,1-1h52c0.55,0,1,0.45,1,1v1
			c0,0.55-0.45,1-1,1H6z M48,54H16V26h32V54z M14,26v28h-4V26H14z M58,56c0.55,0,1,0.45,1,1v1c0,0.55-0.45,1-1,1H6
			c-0.55,0-1-0.45-1-1v-1c0-0.55,0.45-1,1-1H58z M54,54h-4V26h4V54z"/>
	</g>
	<g>
		<path d="M32,17c-2.21,0-4-1.79-4-4s1.79-4,4-4s4,1.79,4,4S34.21,17,32,17z M32,11c-1.1,0-2,0.9-2,2s0.9,2,2,2s2-0.9,2-2
			S33.1,11,32,11z"/>
	</g>
	<g>
		<path d="M32.16,47.05c-0.55,0-1-0.45-1-1v-0.72h-2.44c-0.55,0-1-0.45-1-1s0.45-1,1-1h5.59c0.63,0,1.15-0.52,1.15-1.15
			s-0.52-1.15-1.15-1.15h-4.3c-1.74,0-3.15-1.41-3.15-3.15s1.41-3.15,3.15-3.15h1.15v-0.72c0-0.55,0.45-1,1-1s1,0.45,1,1v0.72h2.44
			c0.55,0,1,0.45,1,1s-0.45,1-1,1h-5.59c-0.63,0-1.15,0.52-1.15,1.15s0.52,1.15,1.15,1.15h4.3c1.74,0,3.15,1.41,3.15,3.15
			s-1.41,3.15-3.15,3.15h-1.15v0.72C33.16,46.6,32.71,47.05,32.16,47.05z"/>
	</g>
	<g>
		<path d="M32.16,51.87c-6.53,0-11.84-5.31-11.84-11.84S25.63,28.2,32.16,28.2S44,33.51,44,40.03S38.69,51.87,32.16,51.87z
			 M32.16,30.2c-5.42,0-9.84,4.41-9.84,9.84s4.41,9.84,9.84,9.84S42,45.46,42,40.03S37.59,30.2,32.16,30.2z"/>
	</g>
</g>
<g id="Layer_2">
</g>
</svg>
