<?xml version="1.0" encoding="utf-8"?>
<!-- Generator: Adobe Illustrator 23.0.5, SVG Export Plug-In . SVG Version: 6.00 Build 0)  -->
<svg version="1.1" xmlns="http://www.w3.org/2000/svg" xmlns:xlink="http://www.w3.org/1999/xlink" x="0px" y="0px"
	 viewBox="0 0 64 64" style="enable-background:new 0 0 64 64;" xml:space="preserve">
<g id="Layer_1">
	<g>
		<path d="M57.5,3h-51C4.57,3,3,4.57,3,6.5v45C3,53.43,4.57,55,6.5,55H7v3c0,1.65,1.35,3,3,3h2c1.65,0,3-1.35,3-3v-3h34v3
			c0,1.65,1.35,3,3,3h2c1.65,0,3-1.35,3-3v-3h0.5c1.93,0,3.5-1.57,3.5-3.5v-45C61,4.57,59.43,3,57.5,3z M13,58c0,0.55-0.45,1-1,1h-2
			c-0.55,0-1-0.45-1-1v-3h4V58z M55,58c0,0.55-0.45,1-1,1h-2c-0.55,0-1-0.45-1-1v-3h4V58z M59,51.5c0,0.83-0.67,1.5-1.5,1.5h-51
			C5.67,53,5,52.33,5,51.5v-45C5,5.67,5.67,5,6.5,5h51C58.33,5,59,5.67,59,6.5V51.5z"/>
	</g>
	<g>
		<path d="M53,10H15c-1.65,0-3,1.35-3,3v3h-1c-1.65,0-3,1.35-3,3v1c0,1.65,1.35,3,3,3h1v14h-1c-1.65,0-3,1.35-3,3v1
			c0,1.65,1.35,3,3,3h1v2c0,1.65,1.35,3,3,3h38c1.65,0,3-1.35,3-3V13C56,11.35,54.65,10,53,10z M11,21c-0.55,0-1-0.45-1-1v-1
			c0-0.55,0.45-1,1-1h4c0.55,0,1,0.45,1,1v1c0,0.55-0.45,1-1,1H11z M11,42c-0.55,0-1-0.45-1-1v-1c0-0.55,0.45-1,1-1h4
			c0.55,0,1,0.45,1,1v1c0,0.55-0.45,1-1,1H11z M54,46c0,0.55-0.45,1-1,1H15c-0.55,0-1-0.45-1-1v-2h1c1.65,0,3-1.35,3-3v-1
			c0-1.65-1.35-3-3-3h-1V23h1c1.65,0,3-1.35,3-3v-1c0-1.65-1.35-3-3-3h-1v-3c0-0.55,0.45-1,1-1h38c0.55,0,1,0.45,1,1V46z"/>
		<path d="M35.17,21.25H35c-0.02,0-0.03,0-0.05,0.01c-4.47,0.11-8.07,3.78-8.07,8.28c0,4.56,3.72,8.28,8.29,8.28
			s8.28-3.72,8.28-8.28C43.45,24.97,39.74,21.25,35.17,21.25z M35.17,35.82c-3.47,0-6.29-2.82-6.29-6.28c0-3.07,2.21-5.63,5.12-6.17
			v4.06c0,0.55,0.45,1,1,1s1-0.45,1-1v-4.12c3.07,0.4,5.45,3.04,5.45,6.23C41.45,33,38.63,35.82,35.17,35.82z"/>
	</g>
	<g>
		<path d="M35,19.11c-0.55,0-1-0.45-1-1V15c0-0.55,0.45-1,1-1s1,0.45,1,1v3.11C36,18.66,35.55,19.11,35,19.11z"/>
	</g>
	<g>
		<path d="M35,45c-0.55,0-1-0.45-1-1v-3.11c0-0.55,0.45-1,1-1s1,0.45,1,1V44C36,44.55,35.55,45,35,45z"/>
	</g>
	<g>
		<path d="M23.61,30.5H20.5c-0.55,0-1-0.45-1-1s0.45-1,1-1h3.11c0.55,0,1,0.45,1,1S24.16,30.5,23.61,30.5z"/>
	</g>
	<g>
		<path d="M49.5,30.5h-3.11c-0.55,0-1-0.45-1-1s0.45-1,1-1h3.11c0.55,0,1,0.45,1,1S50.05,30.5,49.5,30.5z"/>
	</g>
	<g>
		<path d="M43.06,22.44c-0.26,0-0.51-0.1-0.71-0.29c-0.39-0.39-0.39-1.02,0-1.41l2.2-2.2c0.39-0.39,1.02-0.39,1.41,0
			s0.39,1.02,0,1.41l-2.2,2.2C43.57,22.35,43.31,22.44,43.06,22.44z"/>
	</g>
	<g>
		<path d="M24.75,40.75c-0.26,0-0.51-0.1-0.71-0.29c-0.39-0.39-0.39-1.02,0-1.41l2.2-2.2c0.39-0.39,1.02-0.39,1.41,0
			s0.39,1.02,0,1.41l-2.2,2.2C25.26,40.66,25,40.75,24.75,40.75z"/>
	</g>
	<g>
		<path d="M26.94,22.44c-0.26,0-0.51-0.1-0.71-0.29l-2.2-2.2c-0.39-0.39-0.39-1.02,0-1.41s1.02-0.39,1.41,0l2.2,2.2
			c0.39,0.39,0.39,1.02,0,1.41C27.46,22.35,27.2,22.44,26.94,22.44z"/>
	</g>
	<g>
		<path d="M45.25,40.75c-0.26,0-0.51-0.1-0.71-0.29l-2.2-2.2c-0.39-0.39-0.39-1.02,0-1.41s1.02-0.39,1.41,0l2.2,2.2
			c0.39,0.39,0.39,1.02,0,1.41C45.76,40.66,45.51,40.75,45.25,40.75z"/>
	</g>
</g>
<g id="Layer_2">
</g>
</svg>
