<?xml version="1.0" encoding="utf-8"?>
<!-- Generator: Adobe Illustrator 23.0.5, SVG Export Plug-In . SVG Version: 6.00 Build 0)  -->
<svg version="1.1" xmlns="http://www.w3.org/2000/svg" xmlns:xlink="http://www.w3.org/1999/xlink" x="0px" y="0px"
	 viewBox="0 0 64 64" style="enable-background:new 0 0 64 64;" xml:space="preserve">
<g id="Layer_1">
	<g>
		<path d="M61.26,16.53c-1.36-1.35-3.58-1.35-4.95,0L47,25.84V11c0-2.76-2.24-5-5-5h-9c0-1.65-1.35-3-3-3H19.99
			C18.34,3,17,4.34,17,5.99V6H8c-2.76,0-5,2.24-5,5v45c0,2.76,2.24,5,5,5h34c2.76,0,5-2.24,5-5V35.76l14.27-14.27
			c0.66-0.67,1.03-1.55,1.03-2.48C62.3,18.08,61.93,17.2,61.26,16.53z M19,5.99C19,5.44,19.44,5,19.99,5H30c0.55,0,1,0.45,1,1v2
			c0,0.55-0.45,1-1,1H19.99C19.44,9,19,8.56,19,8.01V5.99z M45,56c0,1.65-1.35,3-3,3H8c-1.65,0-3-1.35-3-3V11c0-1.65,1.35-3,3-3h9
			v0.01C17,9.66,18.34,11,19.99,11H30c1.65,0,3-1.35,3-3h9c1.65,0,3,1.35,3,3v16.85L34.84,38.01c-0.21,0.21-0.38,0.48-0.48,0.78
			l-1.28,3.86C33.04,42.76,33.01,42.88,33,43H14c-0.55,0-1,0.45-1,1s0.45,1,1,1h19.97c-0.13-0.07-0.25-0.16-0.36-0.27
			c0.12,0.11,0.25,0.2,0.39,0.27c0.08,0.04,0.15,0.08,0.23,0.12c0.23,0.1,0.48,0.15,0.74,0.15c0.31,0,0.61-0.07,0.9-0.21l3.39-1.69
			c0.19-0.11,0.35-0.23,0.49-0.36L45,37.76V56z M59.85,20.07L45.34,34.59l-7.01,7.01l-3.35,1.68l1.28-3.86l10.47-10.47l10.99-11
			c0.3-0.29,0.68-0.44,1.07-0.44c0.39,0,0.77,0.15,1.06,0.44c0.29,0.29,0.45,0.66,0.45,1.06C60.3,19.41,60.14,19.79,59.85,20.07z"/>
	</g>
	<g>
		<path d="M34,45h-0.03c-0.13-0.07-0.25-0.16-0.36-0.27C33.73,44.84,33.86,44.93,34,45z"/>
	</g>
	<g>
		<path d="M36,53H14c-0.55,0-1-0.45-1-1s0.45-1,1-1h22c0.55,0,1,0.45,1,1S36.55,53,36,53z"/>
	</g>
	<g>
		<path d="M24.97,26.93c0.01,0,0.02,0.01,0.03,0.01c0.02-0.01,0.04-0.01,0.05-0.02L24.97,26.93z M20.83,24.61
			c0.17,0.29,0.38,0.55,0.61,0.79C21.21,25.16,21.01,24.9,20.83,24.61z M20.83,24.61c0.17,0.29,0.38,0.55,0.61,0.79
			C21.21,25.16,21.01,24.9,20.83,24.61z M24.97,26.93c0.01,0,0.02,0.01,0.03,0.01c0.02-0.01,0.04-0.01,0.05-0.02L24.97,26.93z"/>
	</g>
	<g>
		<path d="M35.08,27.9l-3.54-3.55c0.27-0.77,0.42-1.58,0.42-2.39c0-3.84-3.12-6.96-6.96-6.96s-6.96,3.12-6.96,6.96
			c0,0.61,0.08,1.2,0.25,1.81c0.05,0.18,0.11,0.38,0.18,0.58l-3.55,3.55c-0.57,0.57-0.88,1.32-0.88,2.12c0,0.8,0.31,1.56,0.88,2.12
			l1.39,1.39c0.58,0.59,1.35,0.88,2.12,0.88s1.53-0.29,2.12-0.88L25,29.09l4.45,4.45c0.58,0.58,1.35,0.87,2.12,0.87
			s1.54-0.29,2.13-0.87l1.38-1.39c0.57-0.57,0.88-1.32,0.88-2.13C35.96,29.22,35.65,28.46,35.08,27.9z M19.14,32.12
			c-0.39,0.39-1.03,0.39-1.42,0l-1.39-1.39c-0.19-0.19-0.29-0.44-0.29-0.71c0-0.26,0.1-0.52,0.29-0.7l3.14-3.15
			c0.06,0.08,0.11,0.15,0.17,0.22c0.1,0.13,0.21,0.25,0.33,0.37c0.38,0.41,0.81,0.76,1.27,1.06c0.17,0.11,0.35,0.22,0.54,0.32
			c0.01,0,0.02,0.01,0.03,0.01c0.22,0.11,0.44,0.21,0.67,0.3c0.08,0.03,0.16,0.06,0.24,0.09L19.14,32.12z M25.05,26.92
			c-0.01,0.01-0.03,0.01-0.05,0.02c-0.01,0-0.02-0.01-0.03-0.01c-0.06-0.01-0.12-0.02-0.18-0.02c-0.38-0.02-0.73-0.07-1.08-0.17
			c-0.35-0.09-0.67-0.21-0.99-0.37c-0.31-0.16-0.6-0.35-0.86-0.57c-0.15-0.13-0.29-0.26-0.42-0.4c-0.23-0.24-0.44-0.5-0.61-0.79
			c-0.1-0.15-0.18-0.31-0.26-0.47l-0.03-0.06c-0.15-0.27-0.25-0.57-0.33-0.85c-0.11-0.42-0.17-0.84-0.17-1.27
			c0-2.73,2.22-4.96,4.96-4.96s4.96,2.23,4.96,4.96c0,0.75-0.17,1.5-0.51,2.18c-0.81,1.64-2.43,2.71-4.24,2.77
			C25.16,26.91,25.1,26.92,25.05,26.92z M33.67,30.73c0,0-0.01,0-0.01,0.01l-1.37,1.38c-0.4,0.39-1.03,0.4-1.42,0l-3.59-3.58
			c0.11-0.04,0.21-0.08,0.32-0.13c0.11-0.04,0.23-0.09,0.33-0.14c0.11-0.04,0.22-0.1,0.33-0.16c0.12-0.06,0.25-0.13,0.37-0.21
			c0.73-0.45,1.37-1.03,1.9-1.72l3.14,3.14c0.19,0.19,0.29,0.44,0.29,0.7C33.96,30.29,33.86,30.54,33.67,30.73z"/>
	</g>
	<g>
		<path d="M34,45c-0.14-0.07-0.27-0.16-0.39-0.27c0.11,0.11,0.23,0.2,0.36,0.27c0.08,0.05,0.17,0.09,0.26,0.12
			C34.15,45.08,34.08,45.04,34,45z"/>
	</g>
</g>
<g id="Layer_2">
</g>
</svg>
