<?xml version="1.0" encoding="utf-8"?>
<!-- Generator: Adobe Illustrator 23.0.5, SVG Export Plug-In . SVG Version: 6.00 Build 0)  -->
<svg version="1.1" xmlns="http://www.w3.org/2000/svg" xmlns:xlink="http://www.w3.org/1999/xlink" x="0px" y="0px"
	 viewBox="0 0 64 64" style="enable-background:new 0 0 64 64;" xml:space="preserve">
<g id="Layer_1">
	<g>
		<path d="M58.42,21h-6.84C50.16,21,49,22.16,49,23.58v0.44l-2.52-0.01c-0.12,0-0.24-0.04-0.32-0.09l-7.24-4.52
			c-0.41-0.26-0.88-0.4-1.37-0.4h-5.9c-0.69,0-1.33,0.27-1.82,0.75L28.58,21h-5.93c-0.69,0-1.33,0.27-1.82,0.75l-2.07,2.08
			C18.65,23.94,18.5,24,18.34,24H15v-0.42c0-1.42-1.16-2.58-2.58-2.58H5.58C4.16,21,3,22.16,3,23.58v16.84C3,41.84,4.16,43,5.58,43
			h6.84c1.42,0,2.58-1.16,2.58-2.58V40h3.08c0.21,0,0.41,0.11,0.51,0.3l3.16,5.88C22.73,48,24.94,48,26,48
			c0.93,0,1.83-0.53,2.39-1.29c0.93,0.44,2.09,0.34,3.32-0.32c0.59-0.32,1.07-0.78,1.4-1.34c0.26,0.15,0.53,0.27,0.82,0.36
			c0.94,0.28,1.93,0.18,2.78-0.29c0.6-0.32,1.08-0.78,1.42-1.33c0.25,0.14,0.51,0.26,0.79,0.35c0.94,0.28,1.94,0.19,2.81-0.28
			c1.09-0.59,1.8-1.67,1.92-2.86h5.42c0.26,1.14,1.29,2,2.51,2h6.84c1.42,0,2.58-1.16,2.58-2.58V23.58C61,22.16,59.84,21,58.42,21z
			 M13,40.42c0,0.32-0.26,0.58-0.58,0.58H5.58C5.26,41,5,40.74,5,40.42V23.58C5,23.26,5.26,23,5.58,23h6.84
			c0.32,0,0.58,0.26,0.58,0.58V40.42z M40.78,42.1c-0.4,0.21-0.85,0.25-1.27,0.12c-0.42-0.12-0.75-0.39-0.96-0.77v-0.01
			c0-0.01,0-0.02-0.01-0.03l-0.24-0.43v-0.01c0-0.01-0.01-0.01-0.02-0.02l-3.87-7.24c-0.26-0.49-0.86-0.67-1.35-0.41
			s-0.67,0.86-0.41,1.35l3.88,7.24c0,0.01,0,0.03,0.01,0.04l0.1,0.19c-0.06,0.52-0.39,0.98-0.88,1.24
			c-0.38,0.21-0.83,0.26-1.26,0.13c-0.41-0.12-0.75-0.39-0.96-0.76c0-0.01-0.01-0.01-0.01-0.02l-3.64-7.16
			c-0.25-0.5-0.85-0.69-1.34-0.44c-0.5,0.25-0.69,0.85-0.44,1.34l3.52,6.93c-0.07,0.52-0.39,0.99-0.87,1.25
			c-1.27,0.68-1.68,0.22-1.86-0.06v-0.01c-0.01-0.01-0.01-0.03-0.02-0.04c-0.01-0.01-0.01-0.01-0.02-0.02
			c-0.01-0.02-0.02-0.04-0.03-0.06l-4.44-8.21c-0.26-0.48-0.87-0.66-1.36-0.4c-0.48,0.26-0.66,0.87-0.4,1.36l4.33,8
			C26.84,45.59,26.37,46,26,46c-1,0-2.11-0.06-2.49-0.76l-2.99-5.61l-0.19-0.33C19.87,38.5,19,38,18.08,38H15V26h3.34
			c0.69,0,1.34-0.27,1.83-0.76l2.08-2.07c0.1-0.11,0.25-0.17,0.4-0.17h3.93L24,25.58c-0.08,0.08-0.16,0.17-0.23,0.26
			c-0.14,0.18-0.26,0.36-0.37,0.55c-0.1,0.2-0.19,0.4-0.25,0.62c-0.06,0.2-0.11,0.4-0.12,0.61C23.01,27.75,23,27.87,23,28
			s0.01,0.25,0.03,0.38c0.01,0.21,0.06,0.41,0.12,0.61c0.06,0.22,0.15,0.42,0.25,0.62c0.11,0.19,0.23,0.38,0.37,0.55
			c0.07,0.09,0.15,0.18,0.23,0.26c1.08,1.07,2.75,1.3,4.08,0.57l5.96-3.32c0.15-0.08,0.33-0.1,0.49-0.05
			c0.17,0.05,0.3,0.15,0.39,0.3l6.55,11.93c0.07,0.14,0.12,0.28,0.15,0.38v0.03c0.03,0.14,0.05,0.26,0.05,0.37
			C41.67,41.24,41.33,41.8,40.78,42.1z M49,39h-5.72c-0.01-0.03-0.03-0.05-0.04-0.08l-6.57-11.96c-0.34-0.62-0.9-1.07-1.58-1.26
			c-0.68-0.2-1.4-0.12-2.02,0.23l-5.96,3.31c-0.55,0.31-1.25,0.21-1.69-0.24c-0.56-0.55-0.56-1.45,0-2l5.83-5.83
			c0.1-0.11,0.25-0.17,0.4-0.17h5.9c0.11,0,0.21,0.03,0.3,0.09l7.25,4.53c0.38,0.24,0.84,0.37,1.34,0.39L49,26.02V39z M59,40.42
			c0,0.32-0.26,0.58-0.58,0.58h-6.84C51.26,41,51,40.74,51,40.42V23.58c0-0.32,0.26-0.58,0.58-0.58h6.84c0.32,0,0.58,0.26,0.58,0.58
			V40.42z"/>
	</g>
</g>
<g id="Layer_2">
</g>
</svg>
