<?xml version="1.0" encoding="utf-8"?>
<!-- Generator: Adobe Illustrator 23.0.5, SVG Export Plug-In . SVG Version: 6.00 Build 0)  -->
<svg version="1.1" xmlns="http://www.w3.org/2000/svg" xmlns:xlink="http://www.w3.org/1999/xlink" x="0px" y="0px"
	 viewBox="0 0 64 64" style="enable-background:new 0 0 64 64;" xml:space="preserve">
<g id="Layer_1">
	<g>
		<path d="M51.54,46.76C54.21,45.2,56,42.31,56,39c0-4.96-4.04-9-9-9c-0.35,0-0.7,0.02-1.04,0.06c-0.37-5.72-4.2-10.51-9.42-12.3
			C39.21,16.2,41,13.31,41,10c0-4.96-4.04-9-9-9s-9,4.04-9,9c0,3.31,1.79,6.2,4.46,7.76c-5.22,1.79-9.05,6.58-9.42,12.3
			C17.7,30.02,17.35,30,17,30c-4.96,0-9,4.04-9,9c0,3.31,1.79,6.2,4.46,7.76C6.96,48.65,3,53.87,3,60c0,0.55,0.45,1,1,1s1-0.45,1-1
			c0-6.62,5.38-12,12-12s12,5.38,12,12c0,0.55,0.45,1,1,1s1-0.45,1-1c0-6.13-3.96-11.35-9.46-13.24C24.21,45.2,26,42.31,26,39
			c0-3.9-2.5-7.23-5.98-8.47C20.26,24.13,25.54,19,32,19s11.74,5.13,11.98,11.53C40.5,31.77,38,35.1,38,39
			c0,3.31,1.79,6.2,4.46,7.76C36.96,48.65,33,53.87,33,60c0,0.55,0.45,1,1,1s1-0.45,1-1c0-6.62,5.38-12,12-12s12,5.38,12,12
			c0,0.55,0.45,1,1,1s1-0.45,1-1C61,53.87,57.04,48.65,51.54,46.76z M24,39c0,3.86-3.14,7-7,7s-7-3.14-7-7s3.14-7,7-7
			S24,35.14,24,39z M25,10c0-3.86,3.14-7,7-7s7,3.14,7,7s-3.14,7-7,7S25,13.86,25,10z M40,39c0-3.86,3.14-7,7-7s7,3.14,7,7
			s-3.14,7-7,7S40,42.86,40,39z"/>
	</g>
</g>
<g id="Layer_2">
</g>
</svg>
