<?xml version="1.0" encoding="utf-8"?>
<!-- Generator: Adobe Illustrator 23.0.5, SVG Export Plug-In . SVG Version: 6.00 Build 0)  -->
<svg version="1.1" xmlns="http://www.w3.org/2000/svg" xmlns:xlink="http://www.w3.org/1999/xlink" x="0px" y="0px"
	 viewBox="0 0 64 64" style="enable-background:new 0 0 64 64;" xml:space="preserve">
<g id="Layer_1">
	<g>
		<path d="M29.5,36c-1.93,0-3.5-1.57-3.5-3.5V31h-1c-0.55,0-1-0.45-1-1s0.45-1,1-1h1v-3c0-0.55,0.45-1,1-1s1,0.45,1,1v6.5
			c0,0.83,0.67,1.5,1.5,1.5s1.5-0.67,1.5-1.5v-5c0-1.93,1.57-3.5,3.5-3.5s3.5,1.57,3.5,3.5V29h1c0.55,0,1,0.45,1,1s-0.45,1-1,1h-1v3
			c0,0.55-0.45,1-1,1s-1-0.45-1-1v-6.5c0-0.83-0.67-1.5-1.5-1.5S33,26.67,33,27.5v5C33,34.43,31.43,36,29.5,36z"/>
	</g>
	<g>
		<path d="M56,3H7C4.24,3,2,5.24,2,8v20c0,2.76,2.24,5,5,5h7.5v23c0,2.76,2.24,5,5,5h24c2.76,0,5-2.24,5-5V33H56c2.76,0,5-2.24,5-5
			V8C61,5.24,58.76,3,56,3z M14.5,23H12c-0.55,0-1-0.45-1-1v-7c0-0.55,0.45-1,1-1h2.5V23z M46.5,56c0,1.65-1.35,3-3,3h-24
			c-1.65,0-3-1.35-3-3V14h30V56z M51,14c0.55,0,1,0.45,1,1v7c0,0.55-0.45,1-1,1h-2.5v-9H51z M59,28c0,1.65-1.35,3-3,3h-7.5v-6H51
			c1.65,0,3-1.35,3-3v-7c0-1.65-1.35-3-3-3H12c-1.65,0-3,1.35-3,3v7c0,1.65,1.35,3,3,3h2.5v6H7c-1.65,0-3-1.35-3-3V8
			c0-1.65,1.35-3,3-3h49c1.65,0,3,1.35,3,3V28z"/>
	</g>
	<g>
		<path d="M32,42c-6.62,0-12-5.38-12-12s5.38-12,12-12s12,5.38,12,12S38.62,42,32,42z M32,20c-5.51,0-10,4.49-10,10s4.49,10,10,10
			s10-4.49,10-10S37.51,20,32,20z"/>
	</g>
</g>
<g id="Layer_2">
</g>
</svg>
