<?xml version="1.0" encoding="utf-8"?>
<!-- Generator: Adobe Illustrator 23.0.5, SVG Export Plug-In . SVG Version: 6.00 Build 0)  -->
<svg version="1.1" xmlns="http://www.w3.org/2000/svg" xmlns:xlink="http://www.w3.org/1999/xlink" x="0px" y="0px"
	 viewBox="0 0 64 64" style="enable-background:new 0 0 64 64;" xml:space="preserve">
<g id="Layer_1">
	<g>
		<path d="M32,61c-0.14,0-0.28-0.03-0.41-0.09C17.87,54.67,9,40.91,9,25.83v-9.26c0-1.96,1.15-3.74,2.93-4.55l18-8.18
			c1.32-0.6,2.82-0.6,4.14,0l18,8.18c1.78,0.81,2.93,2.59,2.93,4.55v9.26c0,15.07-8.87,28.84-22.59,35.08
			C32.28,60.97,32.14,61,32,61z M32,5.39c-0.42,0-0.85,0.09-1.24,0.27l-18,8.18c0,0,0,0,0,0C11.69,14.33,11,15.4,11,16.58v9.26
			c0,14.14,8.23,27.07,21,33.06c12.77-6,21-18.93,21-33.06v-9.26c0-1.17-0.69-2.25-1.76-2.73l-18-8.18
			C32.85,5.48,32.42,5.39,32,5.39z M12.34,12.93L12.34,12.93L12.34,12.93z"/>
	</g>
	<g>
		<path d="M32,55.39c-0.14,0-0.28-0.03-0.41-0.09c-11.03-5.01-18.15-16.07-18.15-28.19v-7.39c0-1.64,0.96-3.14,2.46-3.82l0,0
			l14.37-6.53c1.1-0.5,2.37-0.5,3.47,0l14.37,6.53c1.49,0.68,2.46,2.18,2.46,3.82v7.39c0,12.11-7.12,23.18-18.15,28.19
			C32.28,55.36,32.14,55.39,32,55.39z M16.72,17.73c-0.78,0.36-1.29,1.14-1.29,2v7.39c0,11.18,6.49,21.4,16.56,26.17
			c10.08-4.77,16.56-15,16.56-26.17v-7.39c0-0.86-0.5-1.64-1.29-2L32.91,11.2c-0.58-0.26-1.24-0.26-1.81,0L16.72,17.73z"/>
	</g>
	<g>
		<path d="M32.16,37.05c-0.55,0-1-0.45-1-1v-0.72h-2.44c-0.55,0-1-0.45-1-1s0.45-1,1-1h5.59c0.63,0,1.15-0.52,1.15-1.15
			c0-0.63-0.52-1.15-1.15-1.15h-4.3c-1.74,0-3.15-1.41-3.15-3.15s1.41-3.15,3.15-3.15h1.15v-0.72c0-0.55,0.45-1,1-1s1,0.45,1,1v0.72
			h2.44c0.55,0,1,0.45,1,1s-0.45,1-1,1h-5.59c-0.63,0-1.15,0.52-1.15,1.15c0,0.63,0.52,1.15,1.15,1.15h4.3
			c1.74,0,3.15,1.41,3.15,3.15s-1.41,3.15-3.15,3.15h-1.15v0.72C33.16,36.6,32.71,37.05,32.16,37.05z"/>
	</g>
	<g>
		<path d="M32.16,41.87c-6.53,0-11.84-5.31-11.84-11.84S25.63,18.2,32.16,18.2S44,23.51,44,30.03S38.69,41.87,32.16,41.87z
			 M32.16,20.2c-5.42,0-9.84,4.41-9.84,9.84s4.41,9.84,9.84,9.84S42,35.46,42,30.03S37.59,20.2,32.16,20.2z"/>
	</g>
</g>
<g id="Layer_2">
</g>
</svg>
