<?xml version="1.0" encoding="utf-8"?>
<!-- Generator: Adobe Illustrator 23.0.5, SVG Export Plug-In . SVG Version: 6.00 Build 0)  -->
<svg version="1.1" xmlns="http://www.w3.org/2000/svg" xmlns:xlink="http://www.w3.org/1999/xlink" x="0px" y="0px"
	 viewBox="0 0 64 64" style="enable-background:new 0 0 64 64;" xml:space="preserve">
<g id="Layer_1">
	<g>
		<path d="M35.16,25.05c-0.55,0-1-0.45-1-1v-0.72h-2.44c-0.55,0-1-0.45-1-1s0.45-1,1-1h5.59c0.63,0,1.15-0.52,1.15-1.15
			c0-0.63-0.52-1.15-1.15-1.15h-4.3c-1.74,0-3.15-1.41-3.15-3.15s1.41-3.15,3.15-3.15h1.15v-0.72c0-0.55,0.45-1,1-1s1,0.45,1,1v0.72
			h2.44c0.55,0,1,0.45,1,1s-0.45,1-1,1h-5.59c-0.63,0-1.15,0.52-1.15,1.15c0,0.63,0.52,1.15,1.15,1.15h4.3
			c1.74,0,3.15,1.41,3.15,3.15s-1.41,3.15-3.15,3.15h-1.15v0.72C36.16,24.6,35.71,25.05,35.16,25.05z"/>
	</g>
	<g>
		<path d="M35.16,32.87c-8.18,0-14.84-6.66-14.84-14.84S26.98,3.2,35.16,3.2S50,9.85,50,18.03S43.34,32.87,35.16,32.87z M35.16,5.2
			c-7.08,0-12.84,5.76-12.84,12.84s5.76,12.84,12.84,12.84S48,25.11,48,18.03S42.24,5.2,35.16,5.2z"/>
	</g>
	<g>
		<path d="M56.5,41.45C55.87,39.94,54.46,39,52.83,39c-0.8,0-1.56,0.31-2.12,0.88l-7.83,7.83C42.69,47.89,42.43,48,42.17,48H32
			c-0.55,0-1-0.45-1-1s0.45-1,1-1h5.5c1.93,0,3.5-1.57,3.5-3.5S39.43,39,37.5,39H21.83c-0.8,0-1.56,0.31-2.12,0.88L15,44.58v-3
			c0-1.42-1.16-2.58-2.58-2.58H5.58C4.16,39,3,40.16,3,41.58v16.84C3,59.84,4.16,61,5.58,61h6.84c1.42,0,2.58-1.16,2.58-2.58V57
			h28.17c0.8,0,1.56-0.31,2.12-0.88l10.35-10.34C56.79,44.62,57.12,42.96,56.5,41.45z M13,58.42c0,0.32-0.26,0.58-0.58,0.58H5.58
			C5.26,59,5,58.74,5,58.42V41.58C5,41.26,5.26,41,5.58,41h6.84c0.32,0,0.58,0.26,0.58,0.58V58.42z M54.22,44.36L43.88,54.71
			C43.69,54.89,43.43,55,43.17,55H15v-7.59l6.12-6.12c0.19-0.18,0.45-0.29,0.71-0.29H37.5c0.83,0,1.5,0.67,1.5,1.5
			c0,0.83-0.67,1.5-1.5,1.5H32c-1.65,0-3,1.35-3,3c0,1.65,1.35,3,3,3h10.17c0.8,0,1.56-0.31,2.12-0.88l7.83-7.83
			c0.19-0.18,0.45-0.29,0.71-0.29c0.82,0,1.5,0.46,1.82,1.22C54.96,42.98,54.8,43.78,54.22,44.36z"/>
	</g>
</g>
<g id="Layer_2">
</g>
</svg>
