<?xml version="1.0" encoding="utf-8"?>
<!-- Generator: Adobe Illustrator 23.0.5, SVG Export Plug-In . SVG Version: 6.00 Build 0)  -->
<svg version="1.1" xmlns="http://www.w3.org/2000/svg" xmlns:xlink="http://www.w3.org/1999/xlink" x="0px" y="0px"
	 viewBox="0 0 64 64" style="enable-background:new 0 0 64 64;" xml:space="preserve">
<g id="Layer_1">
	<g>
		<path d="M52,61h-4c-1.65,0-3-1.35-3-3V44c0-1.65,1.35-3,3-3h4c1.65,0,3,1.35,3,3v14C55,59.65,53.65,61,52,61z M48,43
			c-0.55,0-1,0.45-1,1v14c0,0.55,0.45,1,1,1h4c0.55,0,1-0.45,1-1V44c0-0.55-0.45-1-1-1H48z"/>
	</g>
	<g>
		<path d="M16,61h-4c-1.65,0-3-1.35-3-3V28c0-1.65,1.35-3,3-3h4c1.65,0,3,1.35,3,3v30C19,59.65,17.65,61,16,61z M12,27
			c-0.55,0-1,0.45-1,1v30c0,0.55,0.45,1,1,1h4c0.55,0,1-0.45,1-1V28c0-0.55-0.45-1-1-1H12z"/>
	</g>
	<g>
		<path d="M34,61h-4c-1.65,0-3-1.35-3-3V35c0-1.65,1.35-3,3-3h4c1.65,0,3,1.35,3,3v23C37,59.65,35.65,61,34,61z M30,34
			c-0.55,0-1,0.45-1,1v23c0,0.55,0.45,1,1,1h4c0.55,0,1-0.45,1-1V35c0-0.55-0.45-1-1-1H30z"/>
	</g>
	<g>
		<path d="M44.7,22.85c-0.41,0-0.79-0.25-0.94-0.66c-0.04-0.11-0.06-0.23-0.06-0.34c0-0.41,0.25-0.79,0.66-0.94l4.3-1.57L15.6,4.92
			c-0.51-0.22-0.74-0.81-0.52-1.32c0.22-0.51,0.81-0.74,1.32-0.52l33.2,14.48l-1.63-4.44c-0.19-0.52,0.08-1.09,0.6-1.28
			c0.52-0.19,1.09,0.08,1.28,0.6l2.43,6.63c0.04,0.11,0.06,0.23,0.06,0.36v0c0,0,0,0,0,0c0,0,0,0,0,0c0,0,0,0,0,0c0,0,0,0,0,0v0
			c0,0.01,0,0.02,0,0.03c0,0,0,0,0,0c0,0,0,0,0,0c-0.01,0.17-0.06,0.34-0.15,0.48c0,0,0,0,0,0c0,0,0,0,0,0c0,0,0,0,0,0
			c-0.02,0.03-0.04,0.06-0.06,0.08c0,0,0,0,0,0c0,0,0,0,0,0c0,0,0,0,0,0c-0.11,0.14-0.26,0.25-0.43,0.31c0,0,0,0,0,0h0c0,0,0,0,0,0
			l-6.64,2.43C44.93,22.83,44.82,22.85,44.7,22.85z"/>
	</g>
</g>
<g id="Layer_2">
</g>
</svg>
