<?xml version="1.0" encoding="utf-8"?>
<!-- Generator: Adobe Illustrator 23.0.5, SVG Export Plug-In . SVG Version: 6.00 Build 0)  -->
<svg version="1.1" xmlns="http://www.w3.org/2000/svg" xmlns:xlink="http://www.w3.org/1999/xlink" x="0px" y="0px"
	 viewBox="0 0 64 64" style="enable-background:new 0 0 64 64;" xml:space="preserve">
<g id="Layer_1">
	<g>
		<path d="M26,41c-0.55,0-1-0.45-1-1v-1.67h-4.33c-0.55,0-1-0.45-1-1s0.45-1,1-1h8.67c1.29,0,2.33-1.05,2.33-2.33
			s-1.05-2.33-2.33-2.33h-6.67c-2.39,0-4.33-1.94-4.33-4.33c0-2.39,1.94-4.33,4.33-4.33H25v-1.67c0-0.55,0.45-1,1-1s1,0.45,1,1V23
			h4.33c0.55,0,1,0.45,1,1s-0.45,1-1,1h-8.67c-1.29,0-2.33,1.05-2.33,2.33s1.05,2.33,2.33,2.33h6.67c2.39,0,4.33,1.94,4.33,4.33
			s-1.94,4.33-4.33,4.33H27V40C27,40.55,26.55,41,26,41z"/>
	</g>
	<g>
		<path d="M26,57C12.21,57,1,45.79,1,32S12.21,7,26,7c7.17,0,14.01,3.09,18.75,8.47c0.37,0.41,0.33,1.05-0.09,1.41
			c-0.41,0.37-1.05,0.33-1.41-0.09C38.89,11.84,32.6,9,26,9C13.32,9,3,19.32,3,32s10.32,23,23,23c6.6,0,12.88-2.84,17.25-7.79
			c0.37-0.41,1-0.45,1.41-0.09c0.41,0.37,0.45,1,0.09,1.41C40,53.91,33.17,57,26,57z"/>
	</g>
	<g>
		<path d="M60,30H44c-0.55,0-1-0.45-1-1s0.45-1,1-1h13.59l-4.29-4.29c-0.39-0.39-0.39-1.02,0-1.41s1.02-0.39,1.41,0l6,6
			c0.29,0.29,0.37,0.72,0.22,1.09C60.77,29.76,60.4,30,60,30z"/>
	</g>
	<g>
		<path d="M44,41c-0.26,0-0.51-0.1-0.71-0.29l-6-6c-0.29-0.29-0.37-0.72-0.22-1.09C37.23,33.24,37.6,33,38,33h16c0.55,0,1,0.45,1,1
			s-0.45,1-1,1H40.41l4.29,4.29c0.39,0.39,0.39,1.02,0,1.41C44.51,40.9,44.26,41,44,41z"/>
	</g>
</g>
<g id="Layer_2">
</g>
</svg>
