<?xml version="1.0" encoding="utf-8"?>
<!-- Generator: Adobe Illustrator 23.0.5, SVG Export Plug-In . SVG Version: 6.00 Build 0)  -->
<svg version="1.1" xmlns="http://www.w3.org/2000/svg" xmlns:xlink="http://www.w3.org/1999/xlink" x="0px" y="0px"
	 viewBox="0 0 64 64" style="enable-background:new 0 0 64 64;" xml:space="preserve">
<g id="Layer_1">
	<g>
		<path d="M56,18.05H45V8.96c0-1.67-0.82-3.21-2.2-4.14c-1.37-0.94-3.11-1.12-4.66-0.51L3.63,18.12c-0.1,0.04-0.19,0.09-0.26,0.16
			c-0.04,0.03-0.08,0.06-0.11,0.1c-0.08,0.09-0.15,0.19-0.19,0.31c-0.02,0.05-0.04,0.1-0.05,0.15C3.01,18.91,3,18.98,3,19.05v36
			c0,2.75,2.24,5,5,5h48c2.76,0,5-2.25,5-5v-32C61,20.29,58.76,18.05,56,18.05z M59,44.05H41c-1.65,0-3-1.35-3-3v-4
			c0-1.66,1.35-3,3-3h18V44.05z M38.89,6.17c0.93-0.38,1.95-0.27,2.79,0.3C42.52,7.04,43,7.94,43,8.96v9.09H9.19L38.89,6.17z
			 M59,55.05c0,1.65-1.35,3-3,3H8c-1.65,0-3-1.35-3-3v-35h51c1.65,0,3,1.34,3,3v9H41c-2.76,0-5,2.24-5,5v4c0,2.75,2.24,5,5,5h18
			V55.05z"/>
	</g>
</g>
<g id="Layer_2">
</g>
</svg>
