<?xml version="1.0" encoding="utf-8"?>
<!-- Generator: Adobe Illustrator 23.0.5, SVG Export Plug-In . SVG Version: 6.00 Build 0)  -->
<svg version="1.1" xmlns="http://www.w3.org/2000/svg" xmlns:xlink="http://www.w3.org/1999/xlink" x="0px" y="0px"
	 viewBox="0 0 64 64" style="enable-background:new 0 0 64 64;" xml:space="preserve">
<g id="Layer_1">
	<g>
		<path d="M46.98,25.32c-0.55,0-1-0.45-1-1v-1.19h-3.24c-0.55,0-1-0.45-1-1s0.45-1,1-1h6.89c0.91,0,1.65-0.78,1.65-1.74
			s-0.74-1.74-1.65-1.74h-5.3c-2.01,0-3.65-1.68-3.65-3.74s1.64-3.74,3.65-3.74h1.65V9c0-0.55,0.45-1,1-1s1,0.45,1,1v1.19h3.24
			c0.55,0,1,0.45,1,1s-0.45,1-1,1h-6.89c-0.91,0-1.65,0.78-1.65,1.74s0.74,1.74,1.65,1.74h5.3c2.01,0,3.65,1.68,3.65,3.74
			c0,2.06-1.64,3.74-3.65,3.74h-1.65v1.19C47.98,24.88,47.53,25.32,46.98,25.32z"/>
	</g>
	<g>
		<path d="M30.98,38c0-1.65-1.35-3-3-3h-22c-1.66,0-3,1.35-3,3v2c0,0.76,0.29,1.47,0.77,2c-0.48,0.53-0.77,1.24-0.77,2v2
			c0,0.76,0.29,1.47,0.77,2c-0.48,0.53-0.77,1.24-0.77,2v2c0,0.76,0.29,1.47,0.77,2c-0.48,0.53-0.77,1.24-0.77,2v2
			c0,1.65,1.34,3,3,3h22c1.65,0,3-1.35,3-3v-2c0-0.76-0.29-1.47-0.77-2c0.48-0.53,0.77-1.24,0.77-2v-2c0-0.76-0.29-1.47-0.77-2
			c0.48-0.53,0.77-1.24,0.77-2v-2c0-0.76-0.29-1.47-0.77-2c0.48-0.53,0.77-1.24,0.77-2V38z M28.98,58c0,0.55-0.45,1-1,1h-22
			c-0.55,0-1-0.45-1-1v-2c0-0.55,0.45-1,1-1h22c0.55,0,1,0.45,1,1V58z M28.98,52c0,0.55-0.45,1-1,1h-22c-0.55,0-1-0.45-1-1v-2
			c0-0.55,0.45-1,1-1h22c0.55,0,1,0.45,1,1V52z M28.98,46c0,0.55-0.45,1-1,1h-22c-0.55,0-1-0.45-1-1v-2c0-0.55,0.45-1,1-1h22
			c0.55,0,1,0.45,1,1V46z M28.98,40c0,0.55-0.45,1-1,1h-22c-0.55,0-1-0.45-1-1v-2c0-0.55,0.45-1,1-1h22c0.55,0,1,0.45,1,1V40z"/>
	</g>
	<g>
		<path d="M57.98,29h-3.77c0.95-0.58,1.84-1.27,2.66-2.08c2.19-2.17,3.58-4.93,4.01-7.98c0.1-0.68,0.14-1.33,0.14-1.98
			c0-2.1-0.45-4.11-1.33-5.99c-1.71-3.6-4.86-6.33-8.67-7.47c-1.32-0.39-2.68-0.59-4.04-0.59c-7.75,0-14.05,6.3-14.05,14.05
			c0,5.11,2.74,9.59,6.84,12.04h-3.79c-1.66,0-3,1.35-3,3v2c0,0.76,0.29,1.47,0.77,2c-0.48,0.53-0.77,1.24-0.77,2v2
			c0,0.76,0.29,1.47,0.77,2c-0.48,0.53-0.77,1.24-0.77,2v2c0,0.76,0.29,1.47,0.77,2c-0.48,0.53-0.77,1.24-0.77,2v2
			c0,0.76,0.29,1.47,0.77,2c-0.48,0.53-0.77,1.24-0.77,2v2c0,1.65,1.34,3,3,3h22c1.65,0,3-1.35,3-3v-2c0-0.76-0.29-1.47-0.77-2
			c0.48-0.53,0.77-1.24,0.77-2v-2c0-0.76-0.29-1.47-0.77-2c0.48-0.53,0.77-1.24,0.77-2v-2c0-0.76-0.29-1.47-0.77-2
			c0.48-0.53,0.77-1.24,0.77-2v-2c0-0.76-0.29-1.47-0.77-2c0.48-0.53,0.77-1.24,0.77-2v-2C60.98,30.35,59.63,29,57.98,29z
			 M34.93,16.96c0-6.65,5.41-12.05,12.05-12.05c1.17,0,2.34,0.17,3.47,0.5c3.26,0.99,5.97,3.32,7.43,6.42
			c0.76,1.6,1.14,3.33,1.14,5.13c0,0.56-0.04,1.12-0.12,1.71c-0.37,2.6-1.56,4.97-3.44,6.83c-1.86,1.84-4.2,3.01-6.77,3.38
			C48.1,28.96,47.54,29,46.98,29C40.34,29,34.93,23.6,34.93,16.96z M34.98,32c0-0.55,0.45-1,1-1h22c0.55,0,1,0.45,1,1v2
			c0,0.55-0.45,1-1,1h-22c-0.55,0-1-0.45-1-1V32z M34.98,38c0-0.55,0.45-1,1-1h22c0.55,0,1,0.45,1,1v2c0,0.55-0.45,1-1,1h-22
			c-0.55,0-1-0.45-1-1V38z M34.98,44c0-0.55,0.45-1,1-1h22c0.55,0,1,0.45,1,1v2c0,0.55-0.45,1-1,1h-22c-0.55,0-1-0.45-1-1V44z
			 M58.98,58c0,0.55-0.45,1-1,1h-22c-0.55,0-1-0.45-1-1v-2c0-0.55,0.45-1,1-1h22c0.55,0,1,0.45,1,1V58z M58.98,50v2
			c0,0.55-0.45,1-1,1h-22c-0.55,0-1-0.45-1-1v-2c0-0.55,0.45-1,1-1h22C58.53,49,58.98,49.45,58.98,50z"/>
	</g>
</g>
<g id="Layer_2">
</g>
</svg>
