<?xml version="1.0" encoding="utf-8"?>
<!-- Generator: Adobe Illustrator 23.0.5, SVG Export Plug-In . SVG Version: 6.00 Build 0)  -->
<svg version="1.1" xmlns="http://www.w3.org/2000/svg" xmlns:xlink="http://www.w3.org/1999/xlink" x="0px" y="0px"
	 viewBox="0 0 64 64" style="enable-background:new 0 0 64 64;" xml:space="preserve">
<g id="Layer_1">
	<g>
		<path d="M26.76,61.24c-6.41,0-12.44-2.5-16.97-7.03c-4.53-4.53-7.03-10.56-7.03-16.97c0-6.41,2.5-12.44,7.03-16.97
			c8.5-8.5,22.08-9.39,31.58-2.07c0.44,0.34,0.52,0.96,0.18,1.4c-0.34,0.44-0.97,0.52-1.4,0.18c-8.72-6.71-21.16-5.89-28.95,1.9
			c-4.16,4.16-6.44,9.68-6.44,15.56c0,5.88,2.29,11.4,6.44,15.56s9.68,6.44,15.56,6.44s11.4-2.29,15.56-6.44
			c7.79-7.79,8.61-20.24,1.9-28.95c-0.34-0.44-0.25-1.07,0.18-1.4c0.44-0.34,1.07-0.26,1.4,0.18c7.32,9.51,6.43,23.09-2.07,31.58
			C39.19,58.75,33.17,61.24,26.76,61.24z"/>
	</g>
	<g>
		<path d="M26.76,48.24c-2.94,0-5.7-1.14-7.78-3.22c-4.29-4.29-4.29-11.27,0-15.56c3.42-3.42,8.59-4.21,12.87-1.98
			c0.49,0.26,0.68,0.86,0.42,1.35s-0.86,0.68-1.35,0.42c-3.5-1.83-7.73-1.18-10.53,1.62c-1.7,1.7-2.64,3.96-2.64,6.36
			c0,2.4,0.94,4.66,2.64,6.36s3.96,2.64,6.36,2.64c2.4,0,4.66-0.94,6.36-2.64c2.8-2.8,3.45-7.04,1.61-10.55
			c-0.26-0.49-0.07-1.09,0.42-1.35c0.49-0.25,1.09-0.07,1.35,0.42c2.25,4.29,1.46,9.47-1.96,12.89
			C32.46,47.1,29.7,48.24,26.76,48.24z"/>
	</g>
	<g>
		<path d="M26.76,40.24c-0.77,0-1.54-0.29-2.12-0.88l0,0c-1.17-1.17-1.17-3.07,0-4.24s3.07-1.17,4.24,0s1.17,3.07,0,4.24
			C28.29,39.95,27.53,40.24,26.76,40.24z M26.05,37.95c0.39,0.39,1.02,0.39,1.41,0c0.39-0.39,0.39-1.02,0-1.42
			c-0.39-0.39-1.02-0.39-1.41,0C25.66,36.92,25.66,37.56,26.05,37.95z"/>
	</g>
	<g>
		<path d="M26.76,55.23c-4.61,0-9.22-1.75-12.73-5.26c-7.02-7.02-7.02-18.44,0-25.46c6.18-6.18,15.86-7.04,23.01-2.05
			c0.45,0.32,0.56,0.94,0.25,1.39c-0.32,0.45-0.94,0.56-1.39,0.25c-6.36-4.44-14.96-3.67-20.45,1.82c-6.24,6.24-6.24,16.39,0,22.63
			c6.24,6.24,16.39,6.24,22.63,0c5.49-5.49,6.26-14.1,1.82-20.46c-0.32-0.45-0.2-1.08,0.25-1.39c0.45-0.31,1.08-0.2,1.39,0.25
			c4.99,7.16,4.13,16.83-2.05,23.01C35.98,53.48,31.37,55.23,26.76,55.23z"/>
	</g>
	<g>
		<path d="M26.76,38.24c-0.26,0-0.51-0.1-0.71-0.29c-0.39-0.39-0.39-1.02,0-1.41l20.74-20.74c0.39-0.39,1.02-0.39,1.41,0
			s0.39,1.02,0,1.41L27.46,37.95C27.27,38.14,27.01,38.24,26.76,38.24z"/>
	</g>
	<g>
		<path d="M52.24,17.93c-0.08,0-0.16,0-0.24-0.01l-4.65-0.36c-0.49-0.04-0.88-0.43-0.92-0.92L46.07,12
			c-0.07-0.88,0.25-1.73,0.87-2.36l6.35-6.35c0.26-0.26,0.64-0.36,1-0.25c0.35,0.11,0.62,0.4,0.69,0.76l0.87,4.35l4.35,0.87
			c0.36,0.07,0.65,0.34,0.76,0.69c0.11,0.35,0.01,0.74-0.25,1l-6.35,6.35C53.79,17.62,53.03,17.93,52.24,17.93z M48.37,15.63
			l3.79,0.3c0.29,0.02,0.58-0.08,0.79-0.29l5.03-5.03L54.8,9.98c-0.4-0.08-0.71-0.39-0.78-0.78l-0.63-3.17l-5.03,5.03
			c-0.21,0.21-0.31,0.49-0.29,0.79L48.37,15.63z"/>
	</g>
</g>
<g id="Layer_2">
</g>
</svg>
