<?xml version="1.0" encoding="utf-8"?>
<!-- Generator: Adobe Illustrator 23.0.5, SVG Export Plug-In . SVG Version: 6.00 Build 0)  -->
<svg version="1.1" xmlns="http://www.w3.org/2000/svg" xmlns:xlink="http://www.w3.org/1999/xlink" x="0px" y="0px"
	 viewBox="0 0 64 64" style="enable-background:new 0 0 64 64;" xml:space="preserve">
<g id="Layer_1">
	<g>
		<path d="M16,61h-4c-1.65,0-3-1.35-3-3V44c0-1.65,1.35-3,3-3h4c1.65,0,3,1.35,3,3v14C19,59.65,17.65,61,16,61z M12,43
			c-0.55,0-1,0.45-1,1v14c0,0.55,0.45,1,1,1h4c0.55,0,1-0.45,1-1V44c0-0.55-0.45-1-1-1H12z"/>
	</g>
	<g>
		<path d="M52,61h-4c-1.65,0-3-1.35-3-3V28c0-1.65,1.35-3,3-3h4c1.65,0,3,1.35,3,3v30C55,59.65,53.65,61,52,61z M48,27
			c-0.55,0-1,0.45-1,1v30c0,0.55,0.45,1,1,1h4c0.55,0,1-0.45,1-1V28c0-0.55-0.45-1-1-1H48z"/>
	</g>
	<g>
		<path d="M34,61h-4c-1.65,0-3-1.35-3-3V35c0-1.65,1.35-3,3-3h4c1.65,0,3,1.35,3,3v23C37,59.65,35.65,61,34,61z M30,34
			c-0.55,0-1,0.45-1,1v23c0,0.55,0.45,1,1,1h4c0.55,0,1-0.45,1-1V35c0-0.55-0.45-1-1-1H30z"/>
	</g>
	<g>
		<path d="M14,22c-0.39,0-0.76-0.23-0.92-0.62c-0.21-0.51,0.03-1.1,0.54-1.31L46.85,6.27l-4.24-1.55c-0.41-0.15-0.66-0.53-0.66-0.94
			c0-0.11,0.02-0.23,0.06-0.34c0.19-0.52,0.77-0.78,1.28-0.6l6.64,2.43c0,0,0,0,0,0c0,0,0,0,0,0l0,0c0.23,0.09,0.41,0.25,0.52,0.45
			c0.03,0.06,0.06,0.12,0.08,0.19c0.05,0.18,0.06,0.37,0.01,0.56c-0.01,0.03-0.02,0.06-0.03,0.08l-2.43,6.63
			c-0.19,0.52-0.76,0.78-1.28,0.6c-0.52-0.19-0.79-0.76-0.6-1.28l1.65-4.5L14.38,21.92C14.26,21.98,14.13,22,14,22z"/>
	</g>
</g>
<g id="Layer_2">
</g>
</svg>
