<?xml version="1.0" encoding="utf-8"?>
<!-- Generator: Adobe Illustrator 23.0.5, SVG Export Plug-In . SVG Version: 6.00 Build 0)  -->
<svg version="1.1" xmlns="http://www.w3.org/2000/svg" xmlns:xlink="http://www.w3.org/1999/xlink" x="0px" y="0px"
	 viewBox="0 0 64 64" style="enable-background:new 0 0 64 64;" xml:space="preserve">
<g id="Layer_1">
	<g>
		<path d="M54,17h-9v-5c0-2.76-2.24-5-5-5H24c-2.76,0-5,2.24-5,5v5h-9c-2.76,0-5,2.24-5,5v30c0,2.76,2.24,5,5,5h44
			c2.76,0,5-2.24,5-5V22C59,19.24,56.76,17,54,17z M21,12c0-1.65,1.35-3,3-3h16c1.65,0,3,1.35,3,3v5h-2v-3c0-1.65-1.35-3-3-3H26
			c-1.65,0-3,1.35-3,3v3h-2V12z M39,14v3H25v-3c0-0.55,0.45-1,1-1h12C38.55,13,39,13.45,39,14z M7,22c0-1.65,1.35-3,3-3h44
			c1.65,0,3,1.35,3,3v12.29l-6,2.08V36c0-1.65-1.35-3-3-3h-2c-1.65,0-3,1.35-3,3v3.14L32.99,42.6c-0.64,0.22-1.34,0.22-1.97,0
			L21,39.14V36c0-1.65-1.35-3-3-3h-2c-1.65,0-3,1.35-3,3v0.37l-6-2.08V22z M49,43c0,0.55-0.45,1-1,1h-2c-0.55,0-1-0.45-1-1v-7
			c0-0.55,0.45-1,1-1h2c0.55,0,1,0.45,1,1V43z M19,36v7c0,0.55-0.45,1-1,1h-2c-0.55,0-1-0.45-1-1v-7c0-0.55,0.45-1,1-1h2
			C18.55,35,19,35.45,19,36z M57,52c0,1.65-1.35,3-3,3H10c-1.65,0-3-1.35-3-3V36.4l6,2.08V43c0,1.65,1.35,3,3,3h2c1.65,0,3-1.35,3-3
			v-1.75l9.37,3.25c0.52,0.18,1.08,0.27,1.63,0.27s1.11-0.09,1.64-0.28L43,41.25V43c0,1.65,1.35,3,3,3h2c1.65,0,3-1.35,3-3v-4.52
			l6-2.08V52z"/>
	</g>
</g>
<g id="Layer_2">
</g>
</svg>
