<?xml version="1.0" encoding="utf-8"?>
<!-- Generator: Adobe Illustrator 23.0.5, SVG Export Plug-In . SVG Version: 6.00 Build 0)  -->
<svg version="1.1" xmlns="http://www.w3.org/2000/svg" xmlns:xlink="http://www.w3.org/1999/xlink" x="0px" y="0px"
	 viewBox="0 0 64 64" style="enable-background:new 0 0 64 64;" xml:space="preserve">
<g id="Layer_1">
	<g>
		<path d="M32,47c-0.55,0-1-0.45-1-1v-1h-3c-0.55,0-1-0.45-1-1s0.45-1,1-1h6.5c0.83,0,1.5-0.67,1.5-1.5S35.33,40,34.5,40h-5
			c-1.93,0-3.5-1.57-3.5-3.5s1.57-3.5,3.5-3.5H31v-1c0-0.55,0.45-1,1-1s1,0.45,1,1v1h3c0.55,0,1,0.45,1,1s-0.45,1-1,1h-6.5
			c-0.83,0-1.5,0.67-1.5,1.5s0.67,1.5,1.5,1.5h5c1.93,0,3.5,1.57,3.5,3.5S36.43,45,34.5,45H33v1C33,46.55,32.55,47,32,47z"/>
	</g>
	<g>
		<path d="M42,18.5v-5.29l2.66-5.99c0.42-0.93,0.33-2-0.22-2.85C43.88,3.51,42.94,3,41.92,3H22.08c-1.02,0-1.96,0.51-2.52,1.37
			c-0.55,0.85-0.64,1.92-0.22,2.85L22,13.21v5.29c-8.45,6.37-13,17.56-13,25C9,54.25,19.32,63,32,63s23-8.75,23-19.5
			C55,36.06,50.45,24.87,42,18.5z M40,18H24v-4h16V18z M21.16,6.41c-0.14-0.32-0.11-0.67,0.08-0.95C21.43,5.17,21.73,5,22.08,5
			h19.84c0.35,0,0.65,0.17,0.84,0.46c0.19,0.28,0.22,0.63,0.08,0.95L40.35,12h-16.7L21.16,6.41z M32,61c-11.58,0-21-7.85-21-17.5
			c0-7.09,4.6-17.75,12.33-23.5h17.34C48.4,25.75,53,36.41,53,43.5C53,53.15,43.58,61,32,61z"/>
	</g>
</g>
<g id="Layer_2">
</g>
</svg>
