<?xml version="1.0" encoding="utf-8"?>
<!-- Generator: Adobe Illustrator 23.0.5, SVG Export Plug-In . SVG Version: 6.00 Build 0)  -->
<svg version="1.1" xmlns="http://www.w3.org/2000/svg" xmlns:xlink="http://www.w3.org/1999/xlink" x="0px" y="0px"
	 viewBox="0 0 64 64" style="enable-background:new 0 0 64 64;" xml:space="preserve">
<g id="Layer_1">
	<g>
		<path d="M48.78,44.78c1.75-2.44,2.66-5.3,2.66-8.32c0-3.81-1.47-7.41-4.15-10.13c-1.94-1.98-4.35-3.33-6.98-3.95l1.56-4.39
			C41.91,18,41.96,18,42,18c0.65,0,1.27-0.15,1.82-0.44l9.34,4.32C53.05,22.24,53,22.62,53,23c0,0.66,0.16,1.3,0.45,1.85
			c0.23,0.44,0.54,0.84,0.89,1.13C55.07,26.64,56.01,27,57,27c2.21,0,4-1.79,4-4c0-1.25-0.56-2.4-1.55-3.16
			c-1.54-1.18-3.86-1.03-5.16,0.23c-0.03,0.02-0.05,0.05-0.08,0.08l-8.81-4.06C45.79,15.47,46,14.75,46,14
			c0-0.66-0.16-1.3-0.45-1.85c-0.43-0.82-1.13-1.46-1.95-1.82C43.09,10.11,42.55,10,42,10c-2.21,0-4,1.79-4,4
			c0,0.12,0,0.24,0.01,0.32c0.09,1.13,0.65,2.16,1.55,2.85c0.13,0.09,0.26,0.18,0.39,0.26l-1.64,4.63C37.87,22.02,37.43,22,36.98,22
			c-5.52,0-10.56,3.18-12.97,8.06l-4.63-4.92C19.78,24.51,20,23.77,20,23c0-1.25-0.56-2.4-1.55-3.16c-1.54-1.18-3.85-1.04-5.17,0.24
			C12.46,20.82,12,21.89,12,23s0.47,2.17,1.27,2.91L3.12,44.52c-0.26,0.49-0.08,1.09,0.4,1.36C3.67,45.96,3.84,46,4,46
			c0.35,0,0.7-0.19,0.88-0.52l10.14-18.6C15.34,26.96,15.67,27,16,27c0.68,0,1.35-0.17,1.92-0.5l5.26,5.6
			c-0.44,1.4-0.66,2.86-0.66,4.36c0,7.97,6.49,14.46,14.46,14.46c2.77,0,5.42-0.77,7.71-2.23l11.48,11.48
			c0.55,0.55,1.28,0.83,2,0.83c0.72,0,1.45-0.28,2-0.83c1.1-1.1,1.1-2.9,0-4L48.78,44.78z M57,21c0.56,0,0.98,0.23,1.23,0.42
			C58.72,21.8,59,22.38,59,23c0,1.1-0.9,2-2,2c-0.5,0-0.96-0.17-1.34-0.52c-0.17-0.15-0.32-0.34-0.44-0.56
			C55.08,23.65,55,23.33,55,23c0-0.38,0.11-0.75,0.32-1.07c0-0.01,0.01-0.01,0.01-0.02V21.9c0.08-0.13,0.17-0.24,0.31-0.36
			C56.01,21.19,56.49,21,57,21z M40,14c0-1.1,0.9-2,2-2c0.28,0,0.54,0.05,0.81,0.17c0.41,0.18,0.75,0.49,0.97,0.91
			C43.92,13.35,44,13.67,44,14c0,0.64-0.31,1.25-0.83,1.62c-0.48,0.35-1.14,0.47-1.69,0.31c-0.26-0.07-0.5-0.2-0.71-0.35
			c-0.45-0.35-0.72-0.85-0.77-1.46V14z M17.37,24.45l-0.01,0.01c-0.61,0.58-1.6,0.68-2.3,0.31h-0.01c-0.01,0-0.01-0.01-0.02-0.02
			C14.38,24.39,14,23.73,14,23c0-0.55,0.23-1.08,0.64-1.46C15.01,21.19,15.49,21,16,21c0.56,0,0.98,0.23,1.23,0.42
			C17.72,21.8,18,22.38,18,23C18,23.55,17.77,24.07,17.37,24.45z M36.98,24c0.21,0,0.42,0.01,0.63,0.02l-4.33,12.21
			c-1.06-0.34-2.25-0.24-3.2,0.27l-4.59-4.88C27.42,27.03,31.97,24,36.98,24z M34,40c0,1.1-0.9,2-2,2s-2-0.9-2-2
			c0-0.53,0.21-1.04,0.6-1.42c0.01-0.01,0.03-0.03,0.04-0.04s0.02-0.02,0.03-0.02C31.03,38.18,31.5,38,32,38
			c0.56,0,0.98,0.23,1.23,0.42C33.72,38.8,34,39.38,34,40z M44.23,46.59h-0.01c-2.1,1.52-4.61,2.33-7.24,2.33
			c-6.87,0-12.46-5.59-12.46-12.46c0-0.9,0.09-1.78,0.28-2.65l3.82,4.06C28.22,38.5,28,39.24,28,40c0,2.21,1.79,4,4,4s4-1.79,4-4
			c0-1-0.36-1.93-1-2.65l4.63-13.07c2.35,0.5,4.51,1.69,6.24,3.45c2.3,2.34,3.57,5.44,3.57,8.73c0,2.87-0.95,5.56-2.77,7.8
			c-0.17,0.22-0.35,0.44-0.54,0.65C45.56,45.53,44.93,46.1,44.23,46.59z M58.76,58.76c-0.33,0.32-0.85,0.32-1.18,0L46.32,47.5
			c0.09-0.08,0.18-0.15,0.27-0.25c0.12-0.09,0.24-0.2,0.35-0.31c0.2-0.19,0.4-0.39,0.58-0.59l11.24,11.23
			C59.08,57.91,59.08,58.43,58.76,58.76z"/>
	</g>
</g>
<g id="Layer_2">
</g>
</svg>
