<?xml version="1.0" encoding="utf-8"?>
<!-- Generator: Adobe Illustrator 23.0.5, SVG Export Plug-In . SVG Version: 6.00 Build 0)  -->
<svg version="1.1" xmlns="http://www.w3.org/2000/svg" xmlns:xlink="http://www.w3.org/1999/xlink" x="0px" y="0px"
	 viewBox="0 0 64 64" style="enable-background:new 0 0 64 64;" xml:space="preserve">
<g id="Layer_1">
	<g>
		<path d="M32.16,21.05c-0.55,0-1-0.45-1-1v-0.72h-2.44c-0.55,0-1-0.45-1-1s0.45-1,1-1h5.59c0.63,0,1.15-0.52,1.15-1.15
			s-0.52-1.15-1.15-1.15h-4.3c-1.74,0-3.15-1.41-3.15-3.15s1.41-3.15,3.15-3.15h1.15V8.02c0-0.55,0.45-1,1-1s1,0.45,1,1v0.72h2.44
			c0.55,0,1,0.45,1,1s-0.45,1-1,1h-5.59c-0.63,0-1.15,0.52-1.15,1.15s0.52,1.15,1.15,1.15h4.3c1.74,0,3.15,1.41,3.15,3.15
			s-1.41,3.15-3.15,3.15h-1.15v0.72C33.16,20.6,32.71,21.05,32.16,21.05z"/>
	</g>
	<g>
		<path d="M44,39h-3.99c-2.83,0-5.36,1.31-7.01,3.36V27.04c6.8-0.43,12.2-6.1,12.2-13.01C45.2,6.85,39.35,1,32.16,1
			c-7.18,0-13.03,5.85-13.03,13.03c0,6.77,5.24,12.39,11.87,12.98v3.35C29.35,28.31,26.82,27,23.99,27H20c-0.55,0-1,0.45-1,1v3.99
			c0,4.97,4.04,9.01,9.01,9.01H31v18h-9c-0.55,0-1,0.45-1,1s0.45,1,1,1h20c0.55,0,1-0.45,1-1s-0.45-1-1-1h-9v-6h2.99
			c4.97,0,9.01-4.04,9.01-9.01V40C45,39.45,44.55,39,44,39z M28.01,39C24.14,39,21,35.85,21,31.99V29h2.99
			c3.87,0,7.01,3.15,7.01,7.01V39H28.01z M32.2,25.08c-0.06-0.01-0.13-0.02-0.2-0.02c-6-0.08-10.87-5.02-10.87-11.03
			C21.13,7.95,26.08,3,32.16,3C38.25,3,43.2,7.95,43.2,14.03C43.2,20.12,38.26,25.06,32.2,25.08z M43,43.99
			c0,3.86-3.15,7.01-7.01,7.01H33v-2.99c0-3.86,3.15-7.01,7.01-7.01H43V43.99z"/>
	</g>
</g>
<g id="Layer_2">
</g>
</svg>
