<?xml version="1.0" encoding="utf-8"?>
<!-- Generator: Adobe Illustrator 23.0.5, SVG Export Plug-In . SVG Version: 6.00 Build 0)  -->
<svg version="1.1" xmlns="http://www.w3.org/2000/svg" xmlns:xlink="http://www.w3.org/1999/xlink" x="0px" y="0px"
	 viewBox="0 0 64 64" style="enable-background:new 0 0 64 64;" xml:space="preserve">
<g id="Layer_1">
	<g>
		<path d="M16,52h-4c-1.65,0-3-1.35-3-3V22c0-1.65,1.35-3,3-3h4c1.65,0,3,1.35,3,3v27C19,50.65,17.65,52,16,52z M12,21
			c-0.55,0-1,0.45-1,1v27c0,0.55,0.45,1,1,1h4c0.55,0,1-0.45,1-1V22c0-0.55-0.45-1-1-1H12z"/>
	</g>
	<g>
		<path d="M34,52h-4c-1.65,0-3-1.35-3-3V6c0-1.65,1.35-3,3-3h4c1.65,0,3,1.35,3,3v43C37,50.65,35.65,52,34,52z M30,5
			c-0.55,0-1,0.45-1,1v43c0,0.55,0.45,1,1,1h4c0.55,0,1-0.45,1-1V6c0-0.55-0.45-1-1-1H30z"/>
	</g>
	<g>
		<path d="M52,52h-4c-1.65,0-3-1.35-3-3V13c0-1.65,1.35-3,3-3h4c1.65,0,3,1.35,3,3v36C55,50.65,53.65,52,52,52z M48,12
			c-0.55,0-1,0.45-1,1v36c0,0.55,0.45,1,1,1h4c0.55,0,1-0.45,1-1V13c0-0.55-0.45-1-1-1H48z"/>
	</g>
	<g>
		<path d="M60,61H4c-0.55,0-1-0.45-1-1s0.45-1,1-1h56c0.55,0,1,0.45,1,1S60.55,61,60,61z"/>
	</g>
</g>
<g id="Layer_2">
</g>
</svg>
