<?xml version="1.0" encoding="utf-8"?>
<!-- Generator: Adobe Illustrator 23.0.5, SVG Export Plug-In . SVG Version: 6.00 Build 0)  -->
<svg version="1.1" xmlns="http://www.w3.org/2000/svg" xmlns:xlink="http://www.w3.org/1999/xlink" x="0px" y="0px"
	 viewBox="0 0 64 64" style="enable-background:new 0 0 64 64;" xml:space="preserve">
<g id="Layer_1">
	<g>
		<path d="M39,21H25c-0.55,0-1-0.45-1-1s0.45-1,1-1h14c2.21,0,4-1.79,4-4s-1.79-4-4-4H11c-0.4,0-0.77-0.24-0.92-0.62
			c-0.15-0.37-0.07-0.8,0.22-1.09l6-6c0.39-0.39,1.02-0.39,1.41,0s0.39,1.02,0,1.41L13.41,9H39c3.31,0,6,2.69,6,6S42.31,21,39,21z"
			/>
	</g>
	<g>
		<path d="M15.82,61.73c-2.67,0-5.34-0.21-8.01-0.72C5.2,60.51,3,57.76,3,55V33c0-1.28,0.49-2.39,1.39-3.13
			c0.98-0.81,2.33-1.11,3.8-0.83c7.83,1.52,15.87,0.22,23.65-1.03c7.95-1.28,16.17-2.6,24.35-1.02C58.8,27.49,61,30.24,61,33v22
			c0,1.28-0.49,2.39-1.39,3.13c-0.98,0.81-2.33,1.11-3.8,0.83c-7.83-1.51-15.87-0.22-23.65,1.03C26.8,60.85,21.32,61.73,15.82,61.73
			z M7.14,30.94c-0.59,0-1.11,0.16-1.48,0.47C5.23,31.77,5,32.32,5,33v22c0,1.8,1.52,3.72,3.19,4.04
			c7.83,1.52,15.87,0.22,23.65-1.03c7.95-1.28,16.17-2.6,24.35-1.02c0.86,0.16,1.64,0.02,2.15-0.4C58.77,56.23,59,55.68,59,55V33
			c0-1.8-1.52-3.72-3.19-4.04c-7.83-1.51-15.87-0.22-23.65,1.03c-7.95,1.28-16.18,2.6-24.35,1.02C7.58,30.96,7.36,30.94,7.14,30.94z
			"/>
	</g>
	<g>
		<path d="M32.16,51.05c-0.55,0-1-0.45-1-1v-0.72h-2.44c-0.55,0-1-0.45-1-1s0.45-1,1-1h5.59c0.63,0,1.15-0.52,1.15-1.15
			s-0.52-1.15-1.15-1.15h-4.3c-1.74,0-3.15-1.41-3.15-3.15s1.41-3.15,3.15-3.15h1.15v-0.72c0-0.55,0.45-1,1-1s1,0.45,1,1v0.72h2.44
			c0.55,0,1,0.45,1,1s-0.45,1-1,1h-5.59c-0.63,0-1.15,0.52-1.15,1.15s0.52,1.15,1.15,1.15h4.3c1.74,0,3.15,1.41,3.15,3.15
			s-1.41,3.15-3.15,3.15h-1.15v0.72C33.16,50.6,32.71,51.05,32.16,51.05z"/>
	</g>
	<g>
		<path d="M32.16,54.87c-5.98,0-10.84-4.86-10.84-10.84S26.18,33.2,32.16,33.2S43,38.06,43,44.03S38.14,54.87,32.16,54.87z
			 M32.16,35.2c-4.87,0-8.84,3.97-8.84,8.84s3.97,8.84,8.84,8.84S41,48.91,41,44.03S37.03,35.2,32.16,35.2z"/>
	</g>
</g>
<g id="Layer_2">
</g>
</svg>
