<?xml version="1.0" encoding="utf-8"?>
<!-- Generator: Adobe Illustrator 23.0.5, SVG Export Plug-In . SVG Version: 6.00 Build 0)  -->
<svg version="1.1" xmlns="http://www.w3.org/2000/svg" xmlns:xlink="http://www.w3.org/1999/xlink" x="0px" y="0px"
	 viewBox="0 0 64 64" style="enable-background:new 0 0 64 64;" xml:space="preserve">
<g id="Layer_1">
	<g>
		<path d="M48.97,36.09c-7.19,0-13.04,5.84-13.04,13.03s5.85,13.03,13.04,13.03c7.18,0,13.03-5.84,13.03-13.03
			S56.15,36.09,48.97,36.09z M48.97,60.15c-6.09,0-11.04-4.95-11.04-11.03s4.95-11.03,11.04-11.03c6.08,0,11.03,4.95,11.03,11.03
			S55.05,60.15,48.97,60.15z"/>
		<path d="M52.54,55.14c0,0.55-0.44,1-1,1c-3.52,0-6.45-2.62-6.93-6.02h-1.66c-0.55,0-1-0.45-1-1s0.45-1,1-1h1.66
			c0.48-3.4,3.41-6.02,6.93-6.02c0.56,0,1,0.45,1,1c0,0.56-0.44,1-1,1c-2.42,0-4.45,1.73-4.91,4.02h3.2c0.55,0,1,0.45,1,1
			s-0.45,1-1,1h-3.2c0.46,2.29,2.49,4.02,4.91,4.02C52.1,54.14,52.54,54.58,52.54,55.14z"/>
	</g>
	<g>
		<path d="M15.16,22.05c-0.55,0-1-0.45-1-1v-0.72h-2.44c-0.55,0-1-0.45-1-1s0.45-1,1-1h5.59c0.63,0,1.15-0.52,1.15-1.15
			c0-0.63-0.52-1.15-1.15-1.15h-4.3c-1.74,0-3.15-1.41-3.15-3.15s1.41-3.15,3.15-3.15h1.15V9.02c0-0.55,0.45-1,1-1s1,0.45,1,1v0.72
			h2.44c0.55,0,1,0.45,1,1s-0.45,1-1,1h-5.59c-0.63,0-1.15,0.52-1.15,1.15c0,0.63,0.52,1.15,1.15,1.15h4.3
			c1.74,0,3.15,1.41,3.15,3.15s-1.41,3.15-3.15,3.15h-1.15v0.72C16.16,21.6,15.71,22.05,15.16,22.05z"/>
	</g>
	<g>
		<path d="M15.16,28.07c-7.19,0-13.03-5.85-13.03-13.03S7.97,2,15.16,2S28.2,7.85,28.2,15.03S22.35,28.07,15.16,28.07z M15.16,4
			C9.08,4,4.13,8.95,4.13,15.03s4.95,11.03,11.03,11.03S26.2,21.12,26.2,15.03S21.25,4,15.16,4z"/>
	</g>
	<g>
		<path d="M31,62C15.01,62,2,48.99,2,33c0-0.55,0.45-1,1-1s1,0.45,1,1c0,14.03,10.76,25.6,24.47,26.88l-4.18-4.17
			c-0.39-0.39-0.39-1.02,0-1.41s1.02-0.39,1.41,0l6,6c0.29,0.29,0.37,0.72,0.22,1.09S31.4,62,31,62z"/>
	</g>
	<g>
		<path d="M61,32c-0.55,0-1-0.45-1-1C60,16.97,49.24,5.4,35.53,4.12l4.18,4.17c0.39,0.39,0.39,1.02,0,1.41s-1.02,0.39-1.41,0l-6-6
			c-0.29-0.29-0.37-0.72-0.22-1.09S32.6,2,33,2c15.99,0,29,13.01,29,29C62,31.55,61.55,32,61,32z"/>
	</g>
</g>
<g id="Layer_2">
</g>
</svg>
