<?xml version="1.0" encoding="utf-8"?>
<!-- Generator: Adobe Illustrator 23.0.5, SVG Export Plug-In . SVG Version: 6.00 Build 0)  -->
<svg version="1.1" id="Layer_1" xmlns="http://www.w3.org/2000/svg" xmlns:xlink="http://www.w3.org/1999/xlink" x="0px" y="0px"
	 viewBox="0 0 64 64" style="enable-background:new 0 0 64 64;" xml:space="preserve">
<path d="M16,57h5v1.29c0,0.7,0.39,1.33,1.03,1.64c0.64,0.31,1.38,0.22,1.93-0.22L27,57.28l3.04,2.43c0.33,0.26,0.73,0.4,1.14,0.4
	c0.27,0,0.54-0.06,0.8-0.18c0.64-0.31,1.03-0.93,1.03-1.64V57h17c1.65,0,3-1.35,3-3v-6v-0.2V6c0-1.65-1.35-3-3-3H16
	c-2.76,0-5,2.24-5,5v44C11,54.76,13.24,57,16,57z M16,55c-1.65,0-3-1.35-3-3c0-0.8,0.31-1.55,0.87-2.12C14.45,49.31,15.2,49,16,49h5
	v6H16z M31,57.92l-2.86-2.29c-0.67-0.54-1.6-0.54-2.27,0L23,57.92V56v-7h8v7V57.92z M51,54c0,0.55-0.45,1-1,1H33v-6h18V54z M13,8
	c0-1.65,1.35-3,3-3h34c0.55,0,1,0.45,1,1v41H32H22h-6c-0.31,0-0.6,0.03-0.9,0.09c-0.09,0.02-0.19,0.05-0.28,0.07
	c-0.2,0.05-0.4,0.11-0.59,0.18c-0.1,0.04-0.2,0.08-0.3,0.13c-0.18,0.08-0.35,0.18-0.52,0.28c-0.09,0.06-0.18,0.11-0.27,0.17
	C13.09,47.95,13.04,47.97,13,48V8z"/>
<path d="M22,28c2.76,0,5-2.24,5-5c0-0.01,0-0.01,0-0.02c0-0.12-0.03-0.23-0.07-0.34c-0.01-0.03-0.03-0.05-0.04-0.08
	c-0.02-0.04-0.03-0.08-0.06-0.12L23.87,18H31v18h-5c-0.55,0-1,0.45-1,1s0.45,1,1,1h12c0.55,0,1-0.45,1-1s-0.45-1-1-1h-5V18h7.13
	l-2.96,4.45c-0.02,0.04-0.04,0.08-0.06,0.12c-0.01,0.03-0.03,0.05-0.04,0.08c-0.04,0.11-0.07,0.22-0.07,0.34c0,0.01,0,0.01,0,0.02
	c0,2.76,2.24,5,5,5s5-2.24,5-5c0-0.01,0-0.01,0-0.02c0-0.12-0.03-0.23-0.07-0.34c-0.01-0.03-0.03-0.05-0.04-0.08
	c-0.02-0.04-0.03-0.08-0.06-0.12l-4-6c-0.01-0.02-0.04-0.03-0.05-0.05C42.6,16.16,42.32,16,42,16H22c-0.32,0-0.6,0.16-0.78,0.4
	c-0.01,0.02-0.04,0.03-0.05,0.05l-4,6c-0.02,0.04-0.04,0.08-0.06,0.12c-0.01,0.03-0.03,0.05-0.04,0.08
	c-0.04,0.11-0.07,0.22-0.07,0.34c0,0.01,0,0.01,0,0.02C17,25.76,19.24,28,22,28z M22,26c-1.3,0-2.42-0.84-2.83-2h5.66
	C24.42,25.16,23.3,26,22,26z M42,26c-1.3,0-2.42-0.84-2.83-2h5.66C44.42,25.16,43.3,26,42,26z M39.87,22L42,18.8l2.13,3.2H39.87z
	 M22,18.8l2.13,3.2h-4.26L22,18.8z"/>
</svg>
