<?xml version="1.0" encoding="utf-8"?>
<!-- Generator: Adobe Illustrator 23.0.5, SVG Export Plug-In . SVG Version: 6.00 Build 0)  -->
<svg version="1.1" id="Layer_1" xmlns="http://www.w3.org/2000/svg" xmlns:xlink="http://www.w3.org/1999/xlink" x="0px" y="0px"
	 viewBox="0 0 64 64" style="enable-background:new 0 0 64 64;" xml:space="preserve">
<path d="M58,11H6c-1.65,0-3,1.35-3,3v36c0,1.65,1.35,3,3,3h52c1.65,0,3-1.35,3-3V14C61,12.35,59.65,11,58,11z M59,50
	c0,0.55-0.45,1-1,1H6c-0.55,0-1-0.45-1-1V14c0-0.55,0.45-1,1-1h52c0.55,0,1,0.45,1,1V50z"/>
<path d="M22,40h20c0.55,0,1-0.45,1-1s-0.45-1-1-1H22c-0.55,0-1,0.45-1,1S21.45,40,22,40z"/>
<path d="M47,44H17c-0.55,0-1,0.45-1,1s0.45,1,1,1h30c0.55,0,1-0.45,1-1S47.55,44,47,44z"/>
<path d="M25.88,29.29c0.57,0.57,1.32,0.88,2.12,0.88s1.55-0.31,2.12-0.88L32,27.41l1.88,1.88c0.57,0.57,1.32,0.88,2.12,0.88
	s1.55-0.31,2.12-0.88l1.17-1.17c0,0,0,0,0,0c1.17-1.17,1.17-3.07,0-4.24l-2.34-2.34C36.72,19,34.6,17,32,17c-2.6,0-4.72,2-4.95,4.54
	l-2.34,2.34c-1.17,1.17-1.17,3.07,0,4.24L25.88,29.29z M37.88,26.71l-1.17,1.17c-0.38,0.38-1.04,0.38-1.41,0l-1.3-1.3
	c0.18-0.08,0.35-0.19,0.52-0.29c0.09-0.06,0.2-0.1,0.29-0.16c0.52-0.36,0.98-0.81,1.33-1.33c0.05-0.08,0.09-0.17,0.14-0.26
	c0.11-0.18,0.22-0.36,0.31-0.55l1.29,1.29C38.27,25.68,38.27,26.32,37.88,26.71z M32,19c1.65,0,3,1.35,3,3s-1.35,3-3,3s-3-1.35-3-3
	S30.35,19,32,19z M26.12,25.29l1.3-1.29c0.08,0.19,0.2,0.37,0.31,0.55c0.05,0.08,0.09,0.18,0.14,0.26c0.36,0.52,0.81,0.98,1.33,1.33
	c0.09,0.06,0.19,0.1,0.29,0.16c0.17,0.1,0.34,0.21,0.52,0.29l-1.3,1.3c-0.38,0.38-1.04,0.38-1.41,0l-1.17-1.17
	C25.73,26.32,25.73,25.68,26.12,25.29z"/>
</svg>
