<?xml version="1.0" encoding="utf-8"?>
<!-- Generator: Adobe Illustrator 23.0.5, SVG Export Plug-In . SVG Version: 6.00 Build 0)  -->
<svg version="1.1" id="Layer_1" xmlns="http://www.w3.org/2000/svg" xmlns:xlink="http://www.w3.org/1999/xlink" x="0px" y="0px"
	 viewBox="0 0 64 64" style="enable-background:new 0 0 64 64;" xml:space="preserve">
<path d="M20.43,56.45l11.2,4.48C31.75,60.98,31.87,61,32,61s0.25-0.02,0.37-0.07l11.2-4.48C49.3,54.16,53,48.69,53,42.52V12.98
	c0-1.62-1.32-2.97-2.93-3c-4.88-0.1-11.1-0.86-15.91-5.97c-1.11-1.18-3.21-1.18-4.32,0c-4.81,5.11-11.03,5.87-15.91,5.97
	c-1.62,0.03-2.93,1.38-2.93,3v29.54C11,48.69,14.7,54.16,20.43,56.45z M13,12.98c0-0.55,0.43-0.99,0.97-1
	c4.86-0.1,11.95-0.88,17.33-6.6c0.36-0.38,1.04-0.39,1.4,0c5.38,5.72,12.47,6.5,17.33,6.6c0.54,0.01,0.97,0.45,0.97,1v29.54
	c0,5.35-3.21,10.08-8.17,12.07L32,58.92l-10.83-4.33C16.21,52.61,13,47.87,13,42.52V12.98z"/>
<path d="M23.6,34.41c0.24,0.23,0.34,0.56,0.29,0.88l-0.78,4.54c-0.19,1.13,0.26,2.26,1.19,2.93c0.53,0.38,1.14,0.58,1.76,0.58
	c0.48,0,0.96-0.11,1.4-0.35l4.08-2.14c0.29-0.15,0.64-0.15,0.93,0L36.54,43c1.02,0.54,2.23,0.45,3.16-0.23
	c0.93-0.68,1.39-1.8,1.19-2.93l-0.78-4.54c-0.06-0.32,0.05-0.66,0.29-0.89l3.3-3.21c0.82-0.8,1.11-1.98,0.76-3.07
	c-0.36-1.09-1.28-1.88-2.42-2.04l-4.56-0.66c-0.33-0.05-0.61-0.25-0.75-0.55l-2.04-4.13c-0.51-1.03-1.54-1.67-2.69-1.67
	s-2.18,0.64-2.69,1.67l-2.04,4.13c-0.15,0.29-0.43,0.5-0.75,0.55l-4.56,0.66c-1.14,0.17-2.07,0.95-2.42,2.04
	c-0.35,1.09-0.06,2.27,0.76,3.07L23.6,34.41z M21.44,28.74c0.12-0.37,0.42-0.63,0.81-0.68l4.56-0.66c0.98-0.14,1.82-0.75,2.26-1.64
	l2.04-4.13c0.17-0.35,0.51-0.56,0.9-0.56s0.72,0.21,0.9,0.56l2.04,4.13c0.44,0.89,1.28,1.5,2.26,1.64l4.56,0.66
	c0.38,0.06,0.69,0.31,0.81,0.68s0.03,0.75-0.25,1.02l-3.3,3.21c-0.71,0.69-1.03,1.68-0.86,2.66l0.78,4.54
	c0.07,0.38-0.08,0.75-0.4,0.98c-0.31,0.23-0.71,0.26-1.05,0.08l-4.08-2.14c-0.87-0.46-1.92-0.46-2.79,0c0,0,0,0,0,0l-4.08,2.14
	c-0.34,0.18-0.74,0.15-1.05-0.08c-0.32-0.23-0.46-0.59-0.4-0.98l0.78-4.54c0.17-0.97-0.16-1.97-0.86-2.65l-3.3-3.22
	C21.42,29.49,21.32,29.11,21.44,28.74z"/>
</svg>
