<?xml version="1.0" encoding="utf-8"?>
<!-- Generator: Adobe Illustrator 23.0.5, SVG Export Plug-In . SVG Version: 6.00 Build 0)  -->
<svg version="1.1" id="Layer_1" xmlns="http://www.w3.org/2000/svg" xmlns:xlink="http://www.w3.org/1999/xlink" x="0px" y="0px"
	 viewBox="0 0 64 64" style="enable-background:new 0 0 64 64;" xml:space="preserve">
<path d="M23.71,50.55l3.92,1.57c0.12,0.05,0.25,0.07,0.37,0.07s0.25-0.02,0.37-0.07l3.92-1.57c2.25-0.9,3.71-3.05,3.71-5.48v-7.05
	c0-0.92-0.75-1.68-1.66-1.7c-1.58-0.03-3.59-0.27-5.11-1.88c-0.63-0.67-1.83-0.67-2.46,0c-1.52,1.61-3.53,1.85-5.11,1.88
	C20.75,36.33,20,37.1,20,38.02v7.05C20,47.5,21.46,49.65,23.71,50.55z M22,38.31c1.73-0.06,4.09-0.41,6-2.27
	c1.9,1.86,4.27,2.21,6,2.27v6.76c0,1.6-0.96,3.03-2.45,3.62L28,50.11l-3.55-1.42c-1.49-0.6-2.45-2.02-2.45-3.62V38.31z"/>
<path d="M6,61h44h10c0.55,0,1-0.45,1-1V21c0-0.02-0.01-0.03-0.01-0.05c-0.01-0.1-0.02-0.19-0.06-0.28
	c-0.01-0.02-0.01-0.05-0.02-0.07c-0.04-0.09-0.09-0.18-0.16-0.26L53,11.62V6c0-1.65-1.35-3-3-3H20c-1.65,0-3,1.35-3,3v17.57
	l-3.61-3.67c-0.56-0.57-1.34-0.9-2.14-0.9H6c-1.65,0-3,1.35-3,3v36C3,59.65,4.35,61,6,61z M59,59h-6.17
	c0.03-0.09,0.05-0.18,0.07-0.27c0.01-0.06,0.03-0.11,0.04-0.17C52.98,58.38,53,58.19,53,58V27c0-1.65-1.35-3-3-3H27V13.71
	c0-0.38,0.33-0.71,0.71-0.71H51v6c0,1.65,1.35,3,3,3h5V59z M54,20c-0.55,0-1-0.45-1-1v-4.37L57.77,20H54z M19,6c0-0.55,0.45-1,1-1
	h30c0.55,0,1,0.45,1,1v5H27.71C26.22,11,25,12.22,25,13.71V24h-6V6z M5,22c0-0.55,0.45-1,1-1h5.25c0.26,0,0.52,0.11,0.71,0.3
	l3.75,3.81c0.58,0.58,1.33,0.89,2.14,0.89H18h8h24c0.55,0,1,0.45,1,1v31c0,0.55-0.45,1-1,1H6c-0.55,0-1-0.45-1-1V22z"/>
</svg>
