<?xml version="1.0" encoding="utf-8"?>
<!-- Generator: Adobe Illustrator 23.0.5, SVG Export Plug-In . SVG Version: 6.00 Build 0)  -->
<svg version="1.1" id="Layer_1" xmlns="http://www.w3.org/2000/svg" xmlns:xlink="http://www.w3.org/1999/xlink" x="0px" y="0px"
	 viewBox="0 0 64 64" style="enable-background:new 0 0 64 64;" xml:space="preserve">
<path d="M14,61h18h18c1.65,0,3-1.35,3-3V37c0-4.69-3.61-8.55-8.19-8.96L42,15.88V13c0-5.51-4.49-10-10-10
	c-1.15,0-2.28,0.19-3.33,0.58c-0.01,0-0.02,0.01-0.03,0.01c-0.01,0.01-0.03,0.01-0.04,0.02C24.65,5.03,22,8.79,22,13v2.88
	l-2.81,12.16C14.61,28.45,11,32.31,11,37v21C11,59.65,12.35,61,14,61z M24,15h1c1.64,0,3.09-0.81,4-2.03c0.91,1.23,2.36,2.03,4,2.03
	h7v1c0,0.3-0.02,0.59-0.05,0.89c-0.04,0.38-0.11,0.75-0.2,1.11c-0.66,2.54-2.56,4.65-5.08,5.53c-1.27,0.46-2.68,0.57-4.01,0.34
	c-0.45-0.08-0.89-0.19-1.32-0.35c-1.12-0.4-2.16-1.05-2.99-1.89C24.83,20.15,24,18.14,24,16V15z M39.87,36.71L39.87,36.71
	c-0.09,0.09-0.16,0.18-0.23,0.28c-0.46,0.66-0.48,1.56-0.03,2.25l1.22,1.83l-2.99,5.68l-1.36,2.58l-1.44-10.09l1.79-2.68
	c0,0,0-0.01,0-0.01l0.03-0.05l3.27-5.72l2.52,3.15L39.87,36.71z M24.38,39.24c0.46-0.69,0.43-1.58-0.03-2.25
	c-0.07-0.1-0.14-0.19-0.23-0.28l0,0l-2.79-2.79l2.52-3.15l3.27,5.72c0,0.01,0.01,0.01,0.01,0.01l0.03,0.05l1.79,2.68l-1.44,10.09
	l-4.35-8.27L24.38,39.24z M30.79,25.92c0.09,0.01,0.17,0.03,0.26,0.03C31.36,25.98,31.68,26,32,26c0.32,0,0.64-0.02,0.95-0.05
	c0.09-0.01,0.17-0.02,0.25-0.03c0.22-0.03,0.45-0.06,0.67-0.1c0.04-0.01,0.09-0.01,0.13-0.02v2.92l-1,1.67l-1,1.67l-1-1.67l-1-1.67
	V25.8c0.04,0.01,0.09,0.01,0.13,0.02C30.35,25.86,30.57,25.89,30.79,25.92z M32,35.12l2.54,1.27L33.46,38h-2.93l-1.07-1.61L32,35.12
	z M33.13,40l1.76,12.35L32,57.85l-2.89-5.5L30.87,40H33.13z M35.6,34.68l-2.19-1.09l0.72-1.2L35.57,30h2.71L35.6,34.68z M28.43,30
	l1.44,2.39l0.72,1.2l-2.19,1.09L25.72,30H28.43z M51,37v21c0,0.55-0.45,1-1,1h-5V49c0-0.55-0.45-1-1-1s-1,0.45-1,1v10h-9.34
	l5.51-10.47l3.44-6.54c0.34-0.65,0.3-1.43-0.11-2.04l-0.98-1.47l-0.23-0.35l2.79-2.79l0,0c0.36-0.36,0.55-0.82,0.58-1.29
	c0,0,0-0.01,0-0.01c0-0.02,0-0.04,0-0.06c0.01-0.46-0.13-0.92-0.43-1.3l0,0c0,0,0,0,0,0L42.08,30H44C47.86,30,51,33.14,51,37z
	 M40,28h-4v-2.84c0.17-0.07,0.33-0.16,0.49-0.24c0.07-0.03,0.13-0.06,0.2-0.1c0.36-0.19,0.71-0.41,1.04-0.64
	c0.07-0.05,0.14-0.11,0.22-0.16c0.31-0.23,0.61-0.47,0.89-0.74c0.02-0.02,0.05-0.04,0.07-0.06c0.29-0.28,0.56-0.59,0.82-0.9
	c0.06-0.07,0.12-0.15,0.18-0.22c0.25-0.32,0.48-0.65,0.69-1c0.02-0.04,0.04-0.08,0.07-0.12c0.11-0.2,0.23-0.4,0.33-0.6L42.74,28H40z
	 M40,13h-7c-1.65,0-3-1.35-3-3V5.26C30.65,5.09,31.32,5,32,5C36.41,5,40,8.59,40,13z M28,6.09V10c0,1.65-1.35,3-3,3h-1
	C24,10.11,25.56,7.5,28,6.09z M23.01,20.4c0.03,0.06,0.07,0.12,0.1,0.18c0.05,0.1,0.11,0.2,0.16,0.3c0.09,0.17,0.19,0.33,0.3,0.5
	c0.06,0.09,0.12,0.19,0.18,0.28c0.12,0.17,0.24,0.34,0.37,0.5c0.06,0.08,0.12,0.15,0.18,0.23c0.2,0.23,0.4,0.46,0.62,0.68
	c0.24,0.24,0.5,0.47,0.76,0.69c0.09,0.07,0.18,0.13,0.27,0.2c0.19,0.14,0.37,0.28,0.57,0.41c0.11,0.07,0.22,0.14,0.33,0.21
	c0.19,0.11,0.38,0.22,0.57,0.32c0.12,0.06,0.24,0.12,0.36,0.18c0.07,0.03,0.13,0.07,0.2,0.1V28h-4h-2.74L23.01,20.4z M13,37
	c0-3.86,3.14-7,7-7h1.92l-2.14,2.68c-0.03,0.04-0.05,0.08-0.08,0.12c-0.24,0.34-0.35,0.73-0.35,1.13c0,0.51,0.19,1.03,0.58,1.42l0,0
	l0,0l2.79,2.79l-1.22,1.82c-0.41,0.61-0.45,1.39-0.11,2.04l3.33,6.32L30.34,59H21V49c0-0.55-0.45-1-1-1s-1,0.45-1,1v10h-5
	c-0.55,0-1-0.45-1-1V37z"/>
</svg>
