<?xml version="1.0" encoding="utf-8"?>
<!-- Generator: Adobe Illustrator 23.0.5, SVG Export Plug-In . SVG Version: 6.00 Build 0)  -->
<svg version="1.1" id="Layer_1" xmlns="http://www.w3.org/2000/svg" xmlns:xlink="http://www.w3.org/1999/xlink" x="0px" y="0px"
	 viewBox="0 0 64 64" style="enable-background:new 0 0 64 64;" xml:space="preserve">
<path d="M58,19.81h-1V14c0-2.76-2.24-5-5-5H39V6c0-1.65-1.35-3-3-3H24c-1.65,0-3,1.35-3,3v3H8c-2.76,0-5,2.24-5,5v7v21
	c0,2.76,2.24,5,5,5h36v12c0,1.1,0.9,2,2,2h4c1.1,0,2-0.9,2-2V47c2.76,0,5-2.24,5-5v-6.07h1c1.65,0,3-1.35,3-3V22.81
	C61,21.16,59.65,19.81,58,19.81z M23,6c0-0.55,0.45-1,1-1h12c0.55,0,1,0.45,1,1v3H23V6z M5,14c0-1.65,1.35-3,3-3h14h16h14
	c1.65,0,3,1.35,3,3v5.81H38c-1.65,0-3,1.35-3,3v4.41l-4.01,1.39c-0.64,0.22-1.34,0.22-1.97,0L19,25.14V22c0-1.65-1.35-3-3-3h-2
	c-1.65,0-3,1.35-3,3v0.37l-2.74-0.95L5,20.29V14z M13,23.77V22c0-0.55,0.45-1,1-1h2c0.55,0,1,0.45,1,1v3.85V29c0,0.55-0.45,1-1,1h-2
	c-0.55,0-1-0.45-1-1V23.77z M8,45c-1.65,0-3-1.35-3-3V22.4l2.74,0.95L11,24.48V29c0,1.65,1.35,3,3,3h2c1.65,0,3-1.35,3-3v-1.75
	l9.37,3.24c0.53,0.18,1.08,0.27,1.63,0.27c0.55,0,1.11-0.09,1.64-0.27L35,29.33v3.6c0,1.65,1.35,3,3,3h6V45H8z M50,59h-4V46V35.93h4
	V46V59z M55,42c0,1.65-1.35,3-3,3v-9.07h3V42z M59,32.93c0,0.55-0.45,1-1,1h-2h-5h-6h-7c-0.55,0-1-0.45-1-1v-5v-5.12
	c0-0.55,0.45-1,1-1h18h2c0.55,0,1,0.45,1,1V32.93z"/>
</svg>
