<?xml version="1.0" encoding="utf-8"?>
<!-- Generator: Adobe Illustrator 23.0.5, SVG Export Plug-In . SVG Version: 6.00 Build 0)  -->
<svg version="1.1" id="Layer_1" xmlns="http://www.w3.org/2000/svg" xmlns:xlink="http://www.w3.org/1999/xlink" x="0px" y="0px"
	 viewBox="0 0 64 64" style="enable-background:new 0 0 64 64;" xml:space="preserve">
<path d="M50,61c1.65,0,3-1.35,3-3V15c0-0.02-0.01-0.04-0.01-0.06c-0.01-0.09-0.02-0.18-0.05-0.27c-0.01-0.03-0.02-0.06-0.03-0.09
	c-0.05-0.1-0.11-0.2-0.19-0.28c0,0,0-0.01-0.01-0.01l-11-11c0,0-0.01,0-0.01-0.01c-0.08-0.08-0.18-0.14-0.28-0.19
	c-0.03-0.01-0.06-0.02-0.09-0.03c-0.09-0.03-0.17-0.05-0.27-0.05C41.04,3.01,41.02,3,41,3H14c-1.65,0-3,1.35-3,3v52
	c0,1.65,1.35,3,3,3H50z M49.59,14H43c-0.55,0-1-0.45-1-1V6.41L49.59,14z M13,58V6c0-0.55,0.45-1,1-1h26v8c0,1.65,1.35,3,3,3h8v42
	c0,0.55-0.45,1-1,1H14C13.45,59,13,58.55,13,58z"/>
<path d="M19.71,26.55l3.92,1.57c0.12,0.05,0.25,0.07,0.37,0.07s0.25-0.02,0.37-0.07l3.92-1.57c2.25-0.9,3.71-3.05,3.71-5.48v-7.05
	c0-0.92-0.75-1.68-1.66-1.7c-1.58-0.03-3.59-0.27-5.11-1.88c-0.63-0.67-1.83-0.67-2.46,0c-1.52,1.61-3.53,1.85-5.11,1.88
	C16.75,12.33,16,13.1,16,14.02v7.05C16,23.5,17.46,25.65,19.71,26.55z M18,14.31c1.73-0.06,4.09-0.41,6-2.27
	c1.9,1.86,4.27,2.21,6,2.27v6.76c0,1.6-0.96,3.03-2.45,3.62L24,26.11l-3.55-1.42c-1.49-0.6-2.45-2.02-2.45-3.62V14.31z"/>
<path d="M17,35h29c0.55,0,1-0.45,1-1s-0.45-1-1-1H17c-0.55,0-1,0.45-1,1S16.45,35,17,35z"/>
<path d="M37,28h9c0.55,0,1-0.45,1-1s-0.45-1-1-1h-9c-0.55,0-1,0.45-1,1S36.45,28,37,28z"/>
<path d="M17,41h30c0.55,0,1-0.45,1-1s-0.45-1-1-1H17c-0.55,0-1,0.45-1,1S16.45,41,17,41z"/>
<path d="M17,47h30c0.55,0,1-0.45,1-1s-0.45-1-1-1H17c-0.55,0-1,0.45-1,1S16.45,47,17,47z"/>
<path d="M17,53h30c0.55,0,1-0.45,1-1s-0.45-1-1-1H17c-0.55,0-1,0.45-1,1S16.45,53,17,53z"/>
</svg>
