<?xml version="1.0" encoding="utf-8"?>
<!-- Generator: Adobe Illustrator 23.0.5, SVG Export Plug-In . SVG Version: 6.00 Build 0)  -->
<svg version="1.1" id="Layer_1" xmlns="http://www.w3.org/2000/svg" xmlns:xlink="http://www.w3.org/1999/xlink" x="0px" y="0px"
	 viewBox="0 0 64 64" style="enable-background:new 0 0 64 64;" xml:space="preserve">
<path d="M49.5,22.5c4.41,0,8-3.59,8-8c0-0.01,0-0.01,0-0.02c0-0.12-0.03-0.23-0.07-0.34c-0.01-0.03-0.03-0.05-0.04-0.08
	c-0.02-0.04-0.03-0.08-0.06-0.12l-7-10.5c-0.01-0.02-0.04-0.03-0.05-0.04C50.1,3.16,49.82,3,49.5,3h-35c-0.32,0-0.6,0.16-0.78,0.4
	c-0.01,0.02-0.04,0.03-0.05,0.05l-7,10.5c-0.02,0.04-0.04,0.08-0.06,0.12c-0.01,0.03-0.03,0.05-0.04,0.08
	c-0.04,0.11-0.07,0.22-0.07,0.34c0,0.01,0,0.01,0,0.02c0,4.41,3.59,8,8,8s8-3.59,8-8c0-0.01,0-0.01,0-0.02
	c0-0.12-0.03-0.23-0.07-0.34c-0.01-0.03-0.03-0.05-0.04-0.08c-0.02-0.04-0.03-0.08-0.06-0.12L16.37,5H31v27h-8c-1.1,0-2,0.9-2,2v4
	h-1h-7.97c-0.55,0-1.08,0.23-1.46,0.63c-0.38,0.4-0.57,0.91-0.54,1.45c0.12,2.53,0.67,5,1.64,7.33c0,0.01,0.01,0.02,0.02,0.03
	c0.01,0.02,0.01,0.03,0.01,0.05c2.24,5.34,6.41,9.52,11.73,11.78c0.01,0,0.02,0,0.03,0.01c0.01,0,0.01,0.01,0.01,0.01
	C26.17,60.42,29.04,61,32,61c2.95,0,5.81-0.57,8.5-1.7c0.01,0,0.02-0.02,0.03-0.02c0.01-0.01,0.03,0,0.04-0.01
	c5.32-2.26,9.49-6.45,11.73-11.78c0-0.01,0-0.02,0.01-0.03c0,0,0.01-0.01,0.01-0.01c0.98-2.34,1.53-4.82,1.66-7.37
	c0.03-0.54-0.17-1.06-0.54-1.45c-0.38-0.4-0.91-0.63-1.46-0.63H44h-1v-4c0-1.1-0.9-2-2-2h-8V5h14.63l-5.96,8.95
	c-0.02,0.04-0.04,0.08-0.06,0.12c-0.01,0.03-0.03,0.05-0.04,0.08c-0.04,0.11-0.07,0.22-0.07,0.34c0,0.01,0,0.01,0,0.02
	C41.5,18.91,45.09,22.5,49.5,22.5z M42,40h0.97c-0.01,0.33-0.01,0.65-0.03,0.98c-0.01,0.28-0.02,0.57-0.04,0.85
	c-0.04,0.62-0.09,1.25-0.15,1.87c-0.02,0.17-0.03,0.34-0.05,0.51c-0.09,0.8-0.19,1.59-0.32,2.38c-0.03,0.19-0.07,0.38-0.1,0.58
	c-0.08,0.47-0.17,0.94-0.27,1.41c-0.49,0.09-0.97,0.18-1.46,0.26c-0.22,0.04-0.44,0.08-0.66,0.11c-0.83,0.12-1.65,0.23-2.48,0.31
	c-0.19,0.02-0.38,0.03-0.57,0.05c-0.64,0.06-1.29,0.11-1.93,0.14c-0.29,0.02-0.58,0.02-0.88,0.04c-0.35,0.01-0.71,0.02-1.06,0.03V40
	H42z M31,58.98c-2.21-0.11-4.36-0.57-6.4-1.39c-0.22-0.58-0.45-1.16-0.65-1.75c-0.03-0.08-0.05-0.16-0.08-0.24
	c-0.2-0.58-0.39-1.17-0.57-1.75c-0.07-0.21-0.13-0.42-0.19-0.63c-0.14-0.47-0.27-0.94-0.4-1.41c-0.06-0.21-0.11-0.43-0.17-0.64
	c-0.04-0.15-0.07-0.29-0.1-0.44c0.26,0.04,0.52,0.08,0.78,0.12c0.27,0.04,0.54,0.08,0.8,0.12c0.66,0.1,1.33,0.18,1.99,0.25
	c0.18,0.02,0.36,0.04,0.54,0.06c0.83,0.08,1.67,0.14,2.5,0.19c0.22,0.01,0.43,0.02,0.65,0.02c0.43,0.02,0.86,0.04,1.28,0.05V58.98z
	 M31,49.52c-0.36-0.01-0.71-0.01-1.07-0.03c-0.29-0.01-0.58-0.02-0.87-0.03c-0.66-0.04-1.31-0.09-1.97-0.15
	c-0.18-0.02-0.35-0.03-0.53-0.04c-0.83-0.08-1.66-0.19-2.49-0.31c-0.21-0.03-0.43-0.07-0.64-0.11c-0.49-0.08-0.98-0.17-1.47-0.26
	c-0.09-0.47-0.18-0.95-0.26-1.42c-0.03-0.2-0.07-0.4-0.11-0.59c-0.13-0.79-0.23-1.59-0.32-2.38c-0.02-0.18-0.03-0.37-0.05-0.55
	c-0.06-0.61-0.11-1.22-0.15-1.83c-0.02-0.28-0.03-0.56-0.04-0.84c-0.01-0.32-0.02-0.65-0.03-0.97H22h9V49.52z M12.03,40h6.98
	c0.01,0.41,0.03,0.81,0.05,1.22c0.01,0.2,0.01,0.39,0.02,0.59c0.05,0.8,0.11,1.6,0.19,2.4c0.02,0.17,0.04,0.35,0.06,0.52
	c0.07,0.64,0.16,1.27,0.25,1.91c0.04,0.26,0.08,0.52,0.13,0.78c0.04,0.24,0.07,0.49,0.12,0.73c-0.08-0.02-0.15-0.03-0.23-0.05
	c-0.93-0.22-1.87-0.46-2.81-0.72c-0.19-0.05-0.38-0.11-0.57-0.17c-0.83-0.24-1.66-0.51-2.49-0.79c-0.12-0.04-0.25-0.08-0.37-0.12
	c-0.79-2.02-1.25-4.14-1.36-6.29C12.02,40.01,12.02,40,12.03,40z M14.57,48.81c0.1,0.03,0.19,0.05,0.29,0.08
	c0.75,0.23,1.49,0.44,2.24,0.64c0.27,0.07,0.54,0.14,0.82,0.21c0.62,0.16,1.24,0.3,1.86,0.44c0.17,0.04,0.34,0.08,0.51,0.12
	c0.04,0.17,0.09,0.34,0.13,0.51c0.16,0.67,0.33,1.34,0.52,2.02c0.08,0.27,0.15,0.54,0.23,0.82c0.23,0.79,0.48,1.57,0.75,2.36
	c0.03,0.1,0.06,0.21,0.1,0.31C18.92,54.53,16.33,51.91,14.57,48.81z M33,51.53c0.43-0.01,0.86-0.03,1.28-0.05
	c0.22-0.01,0.43-0.01,0.65-0.02c0.83-0.04,1.67-0.11,2.5-0.19c0.18-0.02,0.37-0.04,0.55-0.06c0.66-0.07,1.32-0.15,1.98-0.25
	c0.28-0.04,0.55-0.08,0.83-0.13c0.26-0.04,0.52-0.07,0.77-0.12c-0.04,0.15-0.07,0.29-0.1,0.44c-0.05,0.21-0.11,0.41-0.16,0.62
	c-0.13,0.48-0.26,0.96-0.41,1.45c-0.06,0.2-0.12,0.4-0.18,0.6c-0.18,0.6-0.38,1.19-0.58,1.79c-0.03,0.07-0.05,0.15-0.07,0.22
	c-0.2,0.59-0.43,1.17-0.65,1.76c-2.04,0.81-4.19,1.28-6.4,1.39V51.53z M42,56.32c0.03-0.1,0.06-0.19,0.09-0.29
	c0.27-0.79,0.52-1.58,0.75-2.37c0.08-0.28,0.16-0.55,0.23-0.83c0.19-0.67,0.36-1.34,0.52-2.02c0.04-0.17,0.09-0.34,0.13-0.51
	c0.16-0.03,0.32-0.08,0.48-0.11c0.63-0.14,1.26-0.29,1.9-0.45c0.27-0.07,0.53-0.13,0.8-0.21c0.75-0.2,1.5-0.42,2.25-0.65
	c0.1-0.03,0.19-0.05,0.29-0.08C47.67,51.91,45.08,54.53,42,56.32z M51.98,39.98c-0.1,2.18-0.56,4.3-1.35,6.32
	c-0.12,0.04-0.24,0.08-0.36,0.12c-0.83,0.28-1.67,0.55-2.5,0.79c-0.19,0.06-0.39,0.12-0.58,0.17c-0.94,0.27-1.87,0.5-2.8,0.72
	c-0.07,0.02-0.15,0.03-0.22,0.05c0.04-0.24,0.08-0.48,0.12-0.72c0.04-0.25,0.08-0.5,0.12-0.75c0.1-0.64,0.18-1.28,0.26-1.93
	c0.02-0.17,0.04-0.34,0.06-0.5c0.08-0.8,0.15-1.61,0.19-2.42c0.01-0.2,0.01-0.39,0.02-0.59c0.02-0.41,0.04-0.83,0.05-1.24
	L51.98,39.98z M41,38h-9h-9l0-4h18V38z M49.5,20.5c-2.97,0-5.44-2.17-5.92-5h11.83C54.94,18.33,52.47,20.5,49.5,20.5z M14.5,20.5
	c-2.97,0-5.44-2.17-5.92-5h11.83C19.94,18.33,17.47,20.5,14.5,20.5z M9.37,13.5l5.13-7.7l5.13,7.7H9.37z M49.5,5.8l5.13,7.7H44.37
	L49.5,5.8z"/>
</svg>
