<?xml version="1.0" encoding="utf-8"?>
<!-- Generator: Adobe Illustrator 23.0.5, SVG Export Plug-In . SVG Version: 6.00 Build 0)  -->
<svg version="1.1" id="Layer_1" xmlns="http://www.w3.org/2000/svg" xmlns:xlink="http://www.w3.org/1999/xlink" x="0px" y="0px"
	 viewBox="0 0 64 64" style="enable-background:new 0 0 64 64;" xml:space="preserve">
<path d="M50,21h-7.05c-0.4-4.41-3.41-8.07-7.47-9.43C36.42,10.67,37,9.4,37,8c0-2.76-2.24-5-5-5s-5,2.24-5,5
	c0,1.4,0.58,2.67,1.52,3.57c-4.06,1.36-7.07,5.02-7.47,9.43H14c-1.65,0-3,1.35-3,3v3c0,1.65,1.35,3,3,3h1.23l7.48,29H16
	c-0.55,0-1,0.45-1,1s0.45,1,1,1h8h16h8c0.55,0,1-0.45,1-1s-0.45-1-1-1h-6.75l6.55-29H50c1.65,0,3-1.35,3-3v-3
	C53,22.35,51.65,21,50,21z M29,8c0-1.65,1.35-3,3-3s3,1.35,3,3s-1.35,3-3,3S29,9.65,29,8z M32,13c4.62,0,8.44,3.51,8.94,8H23.06
	C23.56,16.51,27.38,13,32,13z M39.2,59H24.77l-7.48-29h28.46L39.2,59z M51,27c0,0.55-0.45,1-1,1h-3H16h-2c-0.55,0-1-0.45-1-1v-3
	c0-0.55,0.45-1,1-1h36c0.55,0,1,0.45,1,1V27z"/>
<path d="M32,49c3.86,0,7-3.14,7-7s-3.14-7-7-7s-7,3.14-7,7S28.14,49,32,49z M32,37c2.76,0,5,2.24,5,5s-2.24,5-5,5s-5-2.24-5-5
	S29.24,37,32,37z"/>
</svg>
