<?xml version="1.0" encoding="utf-8"?>
<!-- Generator: Adobe Illustrator 23.0.5, SVG Export Plug-In . SVG Version: 6.00 Build 0)  -->
<svg version="1.1" id="Layer_1" xmlns="http://www.w3.org/2000/svg" xmlns:xlink="http://www.w3.org/1999/xlink" x="0px" y="0px"
	 viewBox="0 0 64 64" style="enable-background:new 0 0 64 64;" xml:space="preserve">
<path d="M12,23h20c0.55,0,1-0.45,1-1s-0.45-1-1-1H12c-0.55,0-1,0.45-1,1S11.45,23,12,23z"/>
<path d="M12,33h11c0.55,0,1-0.45,1-1s-0.45-1-1-1H12c-0.55,0-1,0.45-1,1S11.45,33,12,33z"/>
<path d="M12,28h13c0.55,0,1-0.45,1-1s-0.45-1-1-1H12c-0.55,0-1,0.45-1,1S11.45,28,12,28z"/>
<path d="M12,38h10c0.55,0,1-0.45,1-1s-0.45-1-1-1H12c-0.55,0-1,0.45-1,1S11.45,38,12,38z"/>
<path d="M12,48h13c0.55,0,1-0.45,1-1s-0.45-1-1-1H12c-0.55,0-1,0.45-1,1S11.45,48,12,48z"/>
<path d="M12,43h11c0.55,0,1-0.45,1-1s-0.45-1-1-1H12c-0.55,0-1,0.45-1,1S11.45,43,12,43z"/>
<path d="M32,51H12c-0.55,0-1,0.45-1,1s0.45,1,1,1h20c0.55,0,1-0.45,1-1S32.55,51,32,51z"/>
<path d="M49.45,45.03C51.11,42.68,52,39.92,52,37c0-5.04-2.67-9.62-7-12.11V6c0-1.65-1.35-3-3-3H15c-0.02,0-0.04,0.01-0.06,0.01
	c-0.09,0.01-0.18,0.02-0.27,0.05c-0.03,0.01-0.06,0.02-0.09,0.03c-0.1,0.05-0.2,0.11-0.29,0.19c0,0,0,0,0,0l-11,11c0,0,0,0,0,0
	c-0.08,0.08-0.14,0.18-0.19,0.29c-0.01,0.03-0.02,0.06-0.03,0.09c-0.03,0.09-0.05,0.17-0.05,0.26C3.01,14.96,3,14.98,3,15v43
	c0,1.65,1.35,3,3,3h36c1.65,0,3-1.35,3-3v-8.88c0.15-0.08,0.3-0.17,0.44-0.26l11.07,11.07c0.52,0.52,1.22,0.81,1.96,0.81
	c0.74,0,1.43-0.29,1.96-0.81c0,0,0,0,0,0c0,0,0,0,0,0c0.52-0.52,0.81-1.22,0.81-1.96s-0.29-1.43-0.81-1.96L49.45,45.03z M50,37
	c0,2.76-0.92,5.36-2.66,7.51c-0.67,0.85-1.46,1.61-2.36,2.25c-0.47,0.34-0.94,0.63-1.45,0.89C41.85,48.53,39.93,49,38,49
	c-6.62,0-12-5.38-12-12s5.38-12,12-12c0.52,0,1.04,0.04,1.55,0.1c1.39,0.18,2.73,0.59,3.99,1.25C47.52,28.43,50,32.5,50,37z
	 M14,6.41V13c0,0.55-0.45,1-1,1H6.41L14,6.41z M43,58c0,0.55-0.45,1-1,1H6c-0.55,0-1-0.45-1-1V16h8c1.65,0,3-1.35,3-3V5h26
	c0.55,0,1,0.45,1,1v17.92c-0.01,0-0.03-0.01-0.04-0.01c-0.06-0.02-0.12-0.04-0.19-0.06c-0.42-0.15-0.84-0.28-1.26-0.39
	c-0.15-0.04-0.31-0.07-0.46-0.11c-0.36-0.08-0.72-0.15-1.09-0.2c-0.15-0.02-0.3-0.05-0.45-0.06C39.01,23.04,38.51,23,38,23
	c-7.72,0-14,6.28-14,14s6.28,14,14,14c0.51,0,1.02-0.04,1.52-0.09c0.15-0.02,0.3-0.04,0.45-0.06c0.36-0.05,0.72-0.12,1.08-0.2
	c0.16-0.04,0.31-0.07,0.47-0.11c0.42-0.11,0.83-0.24,1.24-0.38c0.07-0.02,0.14-0.04,0.2-0.07c0.01,0,0.02-0.01,0.03-0.01V58z
	 M59.01,58.51C59.01,58.51,59.01,58.51,59.01,58.51c-0.29,0.29-0.8,0.29-1.09,0L47.08,47.66c0.11-0.1,0.21-0.21,0.32-0.31
	c0.15-0.14,0.3-0.28,0.45-0.43c0.11-0.11,0.23-0.21,0.34-0.33l10.83,10.83c0.15,0.15,0.22,0.34,0.22,0.54S59.16,58.37,59.01,58.51z"
	/>
</svg>
