<?xml version="1.0" encoding="utf-8"?>
<!-- Generator: Adobe Illustrator 23.0.5, SVG Export Plug-In . SVG Version: 6.00 Build 0)  -->
<svg version="1.1" id="Layer_1" xmlns="http://www.w3.org/2000/svg" xmlns:xlink="http://www.w3.org/1999/xlink" x="0px" y="0px"
	 viewBox="0 0 64 64" style="enable-background:new 0 0 64 64;" xml:space="preserve">
<path d="M24,28h-4c-4.96,0-9,4.04-9,9v21c0,1.65,1.35,3,3,3h18h18c1.65,0,3-1.35,3-3V37c0-4.96-4.04-9-9-9h-4h-4v-2.87
	c3.24-1.41,5.55-4.48,5.93-8.01C41.98,16.75,42,16.38,42,16v-3c0-5.51-4.49-10-10-10c-1.15,0-2.28,0.19-3.33,0.58
	c-0.01,0-0.02,0.01-0.03,0.01c-0.01,0.01-0.03,0.01-0.04,0.02C24.65,5.03,22,8.79,22,13v3c0,2.68,1.04,5.19,2.93,7.06
	c0.87,0.88,1.93,1.58,3.07,2.08V28H24z M30.79,25.92c0.09,0.01,0.17,0.03,0.26,0.03C31.36,25.98,31.68,26,32,26
	c0.32,0,0.64-0.02,0.95-0.05c0.09-0.01,0.17-0.02,0.25-0.03c0.22-0.03,0.45-0.06,0.67-0.1c0.04-0.01,0.09-0.01,0.13-0.02v2.92
	l-1,1.67l-1,1.67l-1-1.67l-1-1.67V25.8c0.04,0.01,0.09,0.01,0.13,0.02C30.35,25.86,30.57,25.89,30.79,25.92z M39.87,36.71
	L39.87,36.71c-0.09,0.09-0.16,0.18-0.23,0.28c-0.46,0.66-0.48,1.56-0.03,2.25l1.22,1.83l-2.16,4.1l-2.19,4.17l-1.44-10.09l1.79-2.68
	c0,0,0-0.01,0-0.01l0.03-0.05l3.27-5.72l2.52,3.15L39.87,36.71z M24.38,39.24c0.46-0.69,0.43-1.58-0.03-2.25
	c-0.07-0.1-0.14-0.19-0.23-0.28l0,0l-2.79-2.79l2.52-3.15l3.27,5.72c0,0.01,0.01,0.01,0.01,0.01l0.03,0.05l1.79,2.68l-1.44,10.09
	l-4.35-8.27L24.38,39.24z M30.87,40h2.26l1.76,12.35L32,57.85l-2.89-5.5L30.87,40z M34.54,36.39L33.46,38h-2.93l-1.07-1.61L32,35.12
	L34.54,36.39z M28.43,30l1.44,2.39l0.72,1.2l-2.19,1.09L25.72,30H28.43z M21,59V49c0-0.55-0.45-1-1-1s-1,0.45-1,1v10h-5
	c-0.55,0-1-0.45-1-1V37c0-3.86,3.14-7,7-7h1.92l-2.14,2.68c-0.03,0.04-0.05,0.08-0.08,0.12c-0.24,0.34-0.35,0.73-0.35,1.13
	c0,0.51,0.19,1.03,0.58,1.42l0,0l0,0l2.79,2.79l-1.22,1.82c-0.41,0.61-0.45,1.39-0.11,2.04l3.33,6.32L30.34,59H21z M44,30
	c3.86,0,7,3.14,7,7v21c0,0.55-0.45,1-1,1h-5V49c0-0.55-0.45-1-1-1s-1,0.45-1,1v10h-9.34l5.81-11.05l3.14-5.96
	c0.34-0.65,0.3-1.43-0.11-2.04l-0.98-1.47l-0.23-0.35l2.79-2.79l0,0c0.36-0.36,0.55-0.82,0.58-1.29c0,0,0-0.01,0-0.01
	c0-0.02,0-0.04,0-0.06c0.01-0.46-0.13-0.92-0.43-1.3l0,0c0,0,0,0,0,0L42.08,30H44z M35.6,34.68l-2.19-1.09l0.72-1.2L35.57,30h2.71
	L35.6,34.68z M40,13h-7c-1.65,0-3-1.35-3-3V5.26C30.65,5.09,31.32,5,32,5C36.41,5,40,8.59,40,13z M28,6.09V10c0,1.65-1.35,3-3,3h-1
	C24,10.11,25.56,7.5,28,6.09z M24,16v-1h1c1.64,0,3.09-0.81,4-2.03c0.91,1.23,2.36,2.03,4,2.03h7v1c0,0.3-0.02,0.59-0.05,0.89
	c-0.33,3.03-2.4,5.64-5.29,6.65c-1.27,0.46-2.68,0.57-4.01,0.34c-0.45-0.08-0.89-0.19-1.31-0.35c-1.13-0.4-2.16-1.05-2.99-1.89
	C24.83,20.15,24,18.14,24,16z"/>
</svg>
