<?xml version="1.0" encoding="utf-8"?>
<!-- Generator: Adobe Illustrator 23.0.5, SVG Export Plug-In . SVG Version: 6.00 Build 0)  -->
<svg version="1.1" id="Layer_1" xmlns="http://www.w3.org/2000/svg" xmlns:xlink="http://www.w3.org/1999/xlink" x="0px" y="0px"
	 viewBox="0 0 64 64" style="enable-background:new 0 0 64 64;" xml:space="preserve">
<path d="M58,12H6c-1.65,0-3,1.35-3,3v36c0,1.65,1.35,3,3,3h20v5h-9c-0.55,0-1,0.45-1,1s0.45,1,1,1h10h10h10c0.55,0,1-0.45,1-1
	s-0.45-1-1-1h-9v-5h20c1.65,0,3-1.35,3-3V15C61,13.35,59.65,12,58,12z M6,14h52c0.55,0,1,0.45,1,1v29H5V15C5,14.45,5.45,14,6,14z
	 M36,59h-8v-5h8V59z M58,52H37H27H6c-0.55,0-1-0.45-1-1v-5h54v5C59,51.55,58.55,52,58,52z"/>
<path d="M22,30c2.76,0,5-2.24,5-5c0-0.01,0-0.01,0-0.02c0-0.12-0.03-0.23-0.07-0.34c-0.01-0.03-0.03-0.05-0.04-0.08
	c-0.02-0.04-0.03-0.08-0.06-0.12L23.87,20H31v18h-5c-0.55,0-1,0.45-1,1s0.45,1,1,1h12c0.55,0,1-0.45,1-1s-0.45-1-1-1h-5V20h7.13
	l-2.96,4.45c-0.02,0.04-0.04,0.08-0.06,0.12c-0.01,0.03-0.03,0.05-0.04,0.08c-0.04,0.11-0.07,0.22-0.07,0.34c0,0.01,0,0.01,0,0.02
	c0,2.76,2.24,5,5,5s5-2.24,5-5c0-0.01,0-0.01,0-0.02c0-0.12-0.03-0.23-0.07-0.34c-0.01-0.03-0.03-0.05-0.04-0.08
	c-0.02-0.04-0.03-0.08-0.06-0.12l-4-6c-0.01-0.02-0.04-0.03-0.05-0.05C42.6,18.16,42.32,18,42,18H22c-0.32,0-0.6,0.16-0.78,0.4
	c-0.01,0.02-0.04,0.03-0.05,0.05l-4,6c-0.02,0.04-0.04,0.08-0.06,0.12c-0.01,0.03-0.03,0.05-0.04,0.08
	c-0.04,0.11-0.07,0.22-0.07,0.34c0,0.01,0,0.01,0,0.02C17,27.76,19.24,30,22,30z M22,28c-1.3,0-2.42-0.84-2.83-2h5.66
	C24.42,27.16,23.3,28,22,28z M42,28c-1.3,0-2.42-0.84-2.83-2h5.66C44.42,27.16,43.3,28,42,28z M39.87,24L42,20.8l2.13,3.2H39.87z
	 M22,20.8l2.13,3.2h-4.26L22,20.8z"/>
</svg>
