<?xml version="1.0" encoding="utf-8"?>
<!-- Generator: Adobe Illustrator 23.0.5, SVG Export Plug-In . SVG Version: 6.00 Build 0)  -->
<svg version="1.1" id="Layer_1" xmlns="http://www.w3.org/2000/svg" xmlns:xlink="http://www.w3.org/1999/xlink" x="0px" y="0px"
	 viewBox="0 0 64 64" style="enable-background:new 0 0 64 64;" xml:space="preserve">
<path d="M27.21,35.28c0.58,0.58,1.35,0.88,2.12,0.88c0.77,0,1.54-0.29,2.12-0.88l5.01-5.01l14.9,14.9c0,0,0,0,0,0s0,0,0,0l2.94,2.94
	c0.38,0.38,0.88,0.59,1.41,0.59c0.53,0,1.04-0.21,1.41-0.59L60,45.25c0.38-0.38,0.59-0.88,0.59-1.41c0-0.53-0.21-1.04-0.59-1.41
	L42.16,24.58l5.01-5.01c0.57-0.57,0.88-1.32,0.88-2.12s-0.31-1.55-0.88-2.12l-7.16-7.16c-1.13-1.13-3.11-1.13-4.24,0L20.05,23.88
	c0,0,0,0,0,0c-1.17,1.17-1.17,3.07,0,4.24L27.21,35.28z M55.72,46.7l-2.23-2.23l2.87-2.87l2.23,2.23L55.72,46.7z M54.94,40.19
	l-2.87,2.87l-14.2-14.2l2.87-2.87L54.94,40.19z M21.46,25.3L37.18,9.58c0.38-0.38,1.04-0.38,1.41,0l7.16,7.16
	c0.19,0.19,0.29,0.44,0.29,0.71s-0.1,0.52-0.29,0.71l-5.72,5.72l-4.28,4.28l-5.72,5.72c-0.39,0.39-1.02,0.39-1.41,0l-7.16-7.16
	C21.07,26.32,21.07,25.69,21.46,25.3L21.46,25.3z"/>
<path d="M7,61h6h26h6c0.55,0,1-0.45,1-1s-0.45-1-1-1h-4v-2c0-1.1-0.9-2-2-2h-1v-2c0-1.1-0.9-2-2-2H16c-1.1,0-2,0.9-2,2v2h-1
	c-1.1,0-2,0.9-2,2v2H7c-0.55,0-1,0.45-1,1S6.45,61,7,61z M16,53h20v2H16L16,53z M13,57L13,57h2h22h2v2H13L13,57z"/>
</svg>
