<?xml version="1.0" encoding="utf-8"?>
<!-- Generator: Adobe Illustrator 23.0.5, SVG Export Plug-In . SVG Version: 6.00 Build 0)  -->
<svg version="1.1" id="Layer_1" xmlns="http://www.w3.org/2000/svg" xmlns:xlink="http://www.w3.org/1999/xlink" x="0px" y="0px"
	 viewBox="0 0 64 64" style="enable-background:new 0 0 64 64;" xml:space="preserve">
<path d="M8,57h5v1.29c0,0.7,0.39,1.33,1.03,1.64c0.64,0.31,1.38,0.22,1.94-0.22L19,57.28l3.04,2.43c0.33,0.26,0.73,0.4,1.14,0.4
	c0.27,0,0.54-0.06,0.8-0.18c0.63-0.31,1.03-0.93,1.03-1.64V57h3v3c0,0.55,0.45,1,1,1h19.19c0.55,0,1-0.45,1-1v-0.74
	c0-0.09,0.02-0.18,0.05-0.26l1.88-4.68c1.31-3.28,3.32-6.35,5.83-8.87l2.97-2.99c1.23-1.21,1.44-3.1,0.51-4.51
	c-0.59-0.88-1.53-1.44-2.57-1.54c-1.04-0.1-2.08,0.27-2.82,1.02l-4.63,4.65c-0.05,0.05-0.1,0.07-0.15,0.07
	c-0.03,0-0.13-0.01-0.18-0.11c-0.04-0.08-0.06-0.17-0.06-0.25V26.37c0-1.95-1.46-3.55-3.32-3.65c-0.59-0.02-1.17,0.07-1.69,0.29
	l0.01-1.81c0-0.11-0.01-0.21-0.02-0.35V6c0-1.65-1.35-3-3-3H8C5.24,3,3,5.24,3,8v44C3,54.76,5.24,57,8,57z M8,55c-1.65,0-3-1.35-3-3
	c0-0.8,0.31-1.55,0.87-2.12C6.45,49.31,7.21,49,8,49h5v6H8z M23,57.92l-2.87-2.29c-0.67-0.54-1.6-0.54-2.27,0L15,57.92V56v-7h8v7
	V57.92z M25,55v-6h3v6H25z M45.36,25.12c0.29-0.28,0.74-0.42,1.24-0.4c0.78,0.04,1.42,0.78,1.42,1.65V41.8
	c0,0.39,0.1,0.79,0.27,1.14c0.37,0.75,1.12,1.22,1.97,1.22c0.57,0,1.11-0.22,1.55-0.65l4.64-4.67c0.32-0.32,0.77-0.48,1.22-0.44
	c0.45,0.04,0.85,0.28,1.1,0.66c0.39,0.59,0.28,1.44-0.26,1.98c0,0,0,0-0.01,0.01l-2.97,2.99c-2.7,2.71-4.87,6-6.27,9.53l-1.88,4.69
	c-0.09,0.24-0.15,0.48-0.18,0.74H30v-3v-8V32.24c0-0.87,0.64-1.61,1.43-1.65c0.36-0.03,0.64,0.13,0.81,0.24
	c0.29,0.21,0.54,0.55,0.7,0.95l0.01,0c0.02,0.1,0.04,0.2,0.06,0.3V42c0,0.55,0.45,1,1,1s1-0.45,1-1V32l0.01-5.63
	c0-0.87,0.63-1.61,1.43-1.65c0.05-0.01,0.12,0,0.27,0.02c0.09,0.01,0.13,0.02,0.14,0.02c0.04,0.01,0.22,0.07,0.26,0.08
	c0.04,0.01,0.07,0.03,0.14,0.08c0.35,0.2,0.62,0.57,0.72,0.97c0.02,0.06,0.03,0.12,0.03,0.18V37c0,0.55,0.45,1,1,1s1-0.45,1-1V26
	c0-0.01,0-0.01,0-0.02c0-0.01,0-0.01,0-0.02l0.01-4.63c0-0.86,0.64-1.6,1.42-1.65c0.1,0,0.2,0,0.29,0.01
	c0.66,0.1,1.21,0.63,1.29,1.31c0.01,0.07,0.01,0.13,0.01,0.2L43,25.97c0,0.01,0,0.02,0,0.03v11c0,0.55,0.45,1,1,1s1-0.45,1-1V26v0
	v-0.02C45,25.63,45.12,25.35,45.36,25.12z M5,8c0-1.65,1.35-3,3-3h34c0.55,0,1,0.45,1,1v12.02C42.96,18,42.91,18,42.87,17.98
	c-0.18-0.08-0.36-0.14-0.55-0.18c-0.07-0.02-0.13-0.04-0.19-0.05c-0.26-0.05-0.53-0.08-0.8-0.06c-1.86,0.11-3.31,1.71-3.31,3.65
	l0,1.72c-0.05-0.03-0.1-0.05-0.15-0.06c-0.14-0.06-0.29-0.11-0.44-0.14c-0.17-0.05-0.34-0.08-0.48-0.09
	c-0.22-0.03-0.43-0.04-0.62-0.03c-1.86,0.1-3.31,1.7-3.31,3.65l0,2.6c-0.53-0.28-1.11-0.41-1.69-0.37c-1.86,0.1-3.32,1.7-3.32,3.65
	V47h-4H14H8c-0.31,0-0.61,0.03-0.9,0.09c-0.09,0.02-0.18,0.05-0.28,0.07c-0.2,0.05-0.4,0.11-0.59,0.18c-0.1,0.04-0.2,0.08-0.3,0.13
	c-0.18,0.08-0.35,0.18-0.52,0.28c-0.09,0.06-0.18,0.11-0.27,0.17C5.09,47.95,5.04,47.97,5,48V8z"/>
<path d="M18,23h5v14c0,0.55,0.45,1,1,1s1-0.45,1-1V23h5c0.55,0,1-0.45,1-1s-0.45-1-1-1h-5v-4c0-0.55-0.45-1-1-1s-1,0.45-1,1v4h-5
	c-0.55,0-1,0.45-1,1S17.45,23,18,23z"/>
</svg>
