<?xml version="1.0" encoding="utf-8"?>
<!-- Generator: Adobe Illustrator 23.0.5, SVG Export Plug-In . SVG Version: 6.00 Build 0)  -->
<svg version="1.1" id="Layer_1" xmlns="http://www.w3.org/2000/svg" xmlns:xlink="http://www.w3.org/1999/xlink" x="0px" y="0px"
	 viewBox="0 0 64 64" style="enable-background:new 0 0 64 64;" xml:space="preserve">
<path d="M58,21h-1.05c-0.4-4.41-3.41-8.07-7.47-9.43C50.42,10.67,51,9.4,51,8c0-2.76-2.24-5-5-5s-5,2.24-5,5
	c0,1.4,0.58,2.67,1.52,3.57c-4.06,1.36-7.07,5.02-7.47,9.43h-6.1c-0.4-4.41-3.41-8.07-7.47-9.43C22.42,10.67,23,9.4,23,8
	c0-2.76-2.24-5-5-5s-5,2.24-5,5c0,1.4,0.58,2.67,1.52,3.57c-4.06,1.36-7.07,5.02-7.47,9.43H6c-1.65,0-3,1.35-3,3v3
	c0,1.65,1.35,3,3,3h1v22H6c-1.65,0-3,1.35-3,3v3c0,1.65,1.35,3,3,3h52c1.65,0,3-1.35,3-3v-3c0-1.65-1.35-3-3-3h-1V30h1
	c1.65,0,3-1.35,3-3v-3C61,22.35,59.65,21,58,21z M43,8c0-1.65,1.35-3,3-3s3,1.35,3,3s-1.35,3-3,3S43,9.65,43,8z M46,13
	c4.62,0,8.44,3.51,8.94,8H37.06C37.56,16.51,41.38,13,46,13z M15,8c0-1.65,1.35-3,3-3s3,1.35,3,3s-1.35,3-3,3S15,9.65,15,8z M18,13
	c4.62,0,8.44,3.51,8.94,8H9.06C9.56,16.51,13.38,13,18,13z M59,55v3c0,0.55-0.45,1-1,1H6c-0.55,0-1-0.45-1-1v-3c0-0.55,0.45-1,1-1h2
	h48h2C58.55,54,59,54.45,59,55z M55,52H9V30h46V52z M59,27c0,0.55-0.45,1-1,1h-2H8H6c-0.55,0-1-0.45-1-1v-3c0-0.55,0.45-1,1-1h52
	c0.55,0,1,0.45,1,1V27z"/>
<path d="M32,48c3.86,0,7-3.14,7-7s-3.14-7-7-7s-7,3.14-7,7S28.14,48,32,48z M32,36c2.76,0,5,2.24,5,5s-2.24,5-5,5s-5-2.24-5-5
	S29.24,36,32,36z"/>
<path d="M42,42h10c0.55,0,1-0.45,1-1s-0.45-1-1-1H42c-0.55,0-1,0.45-1,1S41.45,42,42,42z"/>
<path d="M12,42h10c0.55,0,1-0.45,1-1s-0.45-1-1-1H12c-0.55,0-1,0.45-1,1S11.45,42,12,42z"/>
</svg>
