<?xml version="1.0" encoding="utf-8"?>
<!-- Generator: Adobe Illustrator 23.0.5, SVG Export Plug-In . SVG Version: 6.00 Build 0)  -->
<svg version="1.1" id="Layer_1" xmlns="http://www.w3.org/2000/svg" xmlns:xlink="http://www.w3.org/1999/xlink" x="0px" y="0px"
	 viewBox="0 0 64 64" style="enable-background:new 0 0 64 64;" xml:space="preserve">
<path d="M60.92,38.61c0-0.01-0.01-0.02-0.01-0.02c-0.03-0.08-0.07-0.15-0.13-0.22l-8-10c-0.01-0.01-0.03-0.02-0.04-0.03
	C52.56,28.14,52.3,28,52,28H12c-0.3,0-0.56,0.14-0.74,0.35c-0.01,0.01-0.03,0.02-0.04,0.03l-8,10c-0.05,0.07-0.09,0.14-0.13,0.22
	c0,0.01-0.01,0.02-0.01,0.02c-0.05,0.11-0.06,0.23-0.07,0.34C3.01,38.97,3,38.99,3,39c0,4.96,4.04,9,9,9s9-4.04,9-9
	c0-0.01-0.01-0.03-0.01-0.04c0-0.12-0.02-0.23-0.07-0.34c0-0.01-0.01-0.02-0.01-0.02c-0.03-0.08-0.07-0.15-0.13-0.22L14.08,30H31v23
	h-8c-1.1,0-2,0.9-2,2v4h-5c-0.55,0-1,0.45-1,1s0.45,1,1,1h6h20h6c0.55,0,1-0.45,1-1s-0.45-1-1-1h-5v-4c0-1.1-0.9-2-2-2h-8V30h16.92
	l-6.7,8.38c-0.05,0.07-0.09,0.14-0.13,0.22c0,0.01-0.01,0.02-0.01,0.02c-0.05,0.11-0.06,0.23-0.07,0.34c0,0.01-0.01,0.03-0.01,0.04
	c0,4.96,4.04,9,9,9s9-4.04,9-9c0-0.01-0.01-0.03-0.01-0.04C60.99,38.84,60.97,38.72,60.92,38.61z M41,59H23l0-4h18V59z M12,46
	c-3.52,0-6.44-2.61-6.93-6h13.86C18.44,43.39,15.52,46,12,46z M6.08,38L12,30.6l5.92,7.4H6.08z M52,30.6l5.92,7.4H46.08L52,30.6z
	 M52,46c-3.52,0-6.44-2.61-6.93-6h13.86C58.44,43.39,55.52,46,52,46z"/>
<path d="M33,20.12v-0.75h1.18c1.76,0,3.18-1.43,3.18-3.18S35.94,13,34.18,13h-4.37c-0.65,0-1.18-0.53-1.18-1.18
	c0-0.65,0.53-1.18,1.18-1.18h5.68c0.55,0,1-0.45,1-1s-0.45-1-1-1H33V7.88c0-0.55-0.45-1-1-1s-1,0.45-1,1v0.75h-1.18
	c-1.76,0-3.18,1.43-3.18,3.18S28.06,15,29.82,15h4.37c0.65,0,1.18,0.53,1.18,1.18c0,0.65-0.53,1.18-1.18,1.18h-5.68
	c-0.55,0-1,0.45-1,1s0.45,1,1,1H31v0.75c0,0.55,0.45,1,1,1S33,20.67,33,20.12z"/>
<path d="M43,14c0-6.07-4.93-11-11-11S21,7.93,21,14s4.93,11,11,11S43,20.07,43,14z M23,14c0-4.96,4.04-9,9-9s9,4.04,9,9s-4.04,9-9,9
	S23,18.96,23,14z"/>
</svg>
