<?xml version="1.0" encoding="utf-8"?>
<!-- Generator: Adobe Illustrator 23.0.5, SVG Export Plug-In . SVG Version: 6.00 Build 0)  -->
<svg version="1.1" id="Layer_1" xmlns="http://www.w3.org/2000/svg" xmlns:xlink="http://www.w3.org/1999/xlink" x="0px" y="0px"
	 viewBox="0 0 64 64" style="enable-background:new 0 0 64 64;" xml:space="preserve">
<path d="M60.92,38.61c0-0.01-0.01-0.02-0.01-0.02c-0.03-0.08-0.07-0.15-0.13-0.22l-8-10c-0.01-0.01-0.03-0.02-0.04-0.03
	C52.56,28.14,52.3,28,52,28H12c-0.3,0-0.56,0.14-0.74,0.35c-0.01,0.01-0.03,0.02-0.04,0.03l-8,10c-0.05,0.07-0.09,0.14-0.13,0.22
	c0,0.01-0.01,0.02-0.01,0.02c-0.05,0.11-0.06,0.23-0.07,0.34C3.01,38.97,3,38.99,3,39c0,4.96,4.04,9,9,9s9-4.04,9-9
	c0-0.01-0.01-0.03-0.01-0.04c0-0.12-0.02-0.23-0.07-0.34c0-0.01-0.01-0.02-0.01-0.02c-0.03-0.08-0.07-0.15-0.13-0.22L14.08,30H31v23
	h-8c-1.1,0-2,0.9-2,2v4h-5c-0.55,0-1,0.45-1,1s0.45,1,1,1h6h20h6c0.55,0,1-0.45,1-1s-0.45-1-1-1h-5v-4c0-1.1-0.9-2-2-2h-8V30h16.92
	l-6.7,8.38c-0.05,0.07-0.09,0.14-0.13,0.22c0,0.01-0.01,0.02-0.01,0.02c-0.05,0.11-0.06,0.23-0.07,0.34c0,0.01-0.01,0.03-0.01,0.04
	c0,4.96,4.04,9,9,9s9-4.04,9-9c0-0.01-0.01-0.03-0.01-0.04C60.99,38.84,60.97,38.72,60.92,38.61z M41,59H23l0-4h18V59z M12,46
	c-3.52,0-6.44-2.61-6.93-6h13.86C18.44,43.39,15.52,46,12,46z M6.08,38L12,30.6l5.92,7.4H6.08z M52,30.6l5.92,7.4H46.08L52,30.6z
	 M52,46c-3.52,0-6.44-2.61-6.93-6h13.86C58.44,43.39,55.52,46,52,46z"/>
<path d="M10.17,23.83c1.79,0,3.59-0.68,4.95-2.05c1.32-1.32,2.05-3.08,2.05-4.95c0-1.53-0.5-2.98-1.4-4.19l2.46-2.46l2.13,2.13
	c0.2,0.2,0.45,0.29,0.71,0.29s0.51-0.1,0.71-0.29c0.39-0.39,0.39-1.02,0-1.41l-2.13-2.13l3.06-3.06c0.39-0.39,0.39-1.02,0-1.41
	s-1.02-0.39-1.41,0l-3.06,3.06L16.1,5.22c-0.39-0.39-1.02-0.39-1.41,0s-0.39,1.02,0,1.41l2.13,2.13l-2.46,2.46
	c-1.2-0.9-2.66-1.4-4.19-1.4c-1.87,0-3.63,0.73-4.95,2.05c-2.73,2.73-2.73,7.17,0,9.9C6.59,23.14,8.38,23.83,10.17,23.83z
	 M6.64,13.29c0.94-0.94,2.2-1.46,3.54-1.46c1.31,0,2.53,0.5,3.47,1.41c0.02,0.02,0.03,0.05,0.05,0.07c0.02,0.02,0.05,0.03,0.07,0.05
	c0.91,0.94,1.41,2.16,1.41,3.47c0,1.34-0.52,2.59-1.46,3.54c-1.95,1.95-5.12,1.95-7.07,0C4.69,18.41,4.69,15.24,6.64,13.29z"/>
<path d="M47.88,6.22c-1.32,1.32-2.05,3.08-2.05,4.95c0,1.53,0.5,2.98,1.4,4.19l-4.3,4.3v-3.24c0-0.55-0.45-1-1-1s-1,0.45-1,1v5.66
	c0,0.55,0.45,1,1,1h5.66c0.55,0,1-0.45,1-1s-0.45-1-1-1h-3.24l4.3-4.3c1.2,0.9,2.66,1.4,4.19,1.4c1.87,0,3.63-0.73,4.95-2.05
	c2.73-2.73,2.73-7.17,0-9.9C55.05,3.49,50.61,3.49,47.88,6.22z M56.36,7.64c1.95,1.95,1.95,5.12,0,7.07
	c-0.94,0.94-2.2,1.46-3.54,1.46c-1.31,0-2.53-0.5-3.47-1.41c-0.02-0.02-0.03-0.05-0.05-0.07c-0.02-0.02-0.05-0.03-0.07-0.05
	c-0.91-0.94-1.41-2.16-1.41-3.47c0-1.34,0.52-2.59,1.46-3.54c0.98-0.97,2.25-1.46,3.54-1.46C54.11,6.17,55.39,6.66,56.36,7.64z"/>
</svg>
