<?xml version="1.0" encoding="utf-8"?>
<!-- Generator: Adobe Illustrator 23.0.5, SVG Export Plug-In . SVG Version: 6.00 Build 0)  -->
<svg version="1.1" id="Layer_1" xmlns="http://www.w3.org/2000/svg" xmlns:xlink="http://www.w3.org/1999/xlink" x="0px" y="0px"
	 viewBox="0 0 64 64" style="enable-background:new 0 0 64 64;" xml:space="preserve">
<path d="M33.8,3H32h-1.8c-7.26,0-14.09,2.83-19.24,7.96C5.83,16.11,3,22.94,3,30.2c0,0.72,0.39,1.39,1.03,1.74
	c0.64,0.35,1.42,0.33,2.03-0.05l1.16-0.72c2.74-1.71,6.51-1.44,8.94,0.6c0.49,0.41,1.1,0.65,1.75,0.68c0.01,0,0.01,0,0.02,0.01
	c0.01,0,0.02,0,0.02,0c0.01,0,0.01,0,0.02,0c0.01,0,0.02,0.01,0.03,0.01c0.02,0,0.03-0.01,0.05-0.01c0.64,0.01,1.26-0.16,1.8-0.54
	l0.71-0.51c2.66-1.9,6.24-1.9,8.9,0L31,32.51V55c0,2.21-1.79,4-4,4c-1.07,0-2.07-0.42-2.83-1.16C23.42,57.07,23,56.07,23,55v-3
	c0-0.55-0.45-1-1-1s-1,0.45-1,1v3c0,1.6,0.62,3.1,1.76,4.25C23.9,60.38,25.4,61,27,61c3.31,0,6-2.69,6-6V32.51l1.55-1.11
	c2.66-1.9,6.24-1.9,8.9,0l0.71,0.51c0.51,0.36,1.11,0.56,1.74,0.56h0.02c0.71,0,1.4-0.25,1.91-0.69c2.55-2.12,6.14-2.36,8.95-0.61
	l1.14,0.71c0.32,0.21,0.7,0.32,1.07,0.32c1.1,0,2-0.9,2-2C61,15.2,48.8,3,33.8,3z M6.16,29.47L5,30.2c0-6.73,2.62-13.06,7.38-17.82
	c4.23-4.23,9.7-6.76,15.58-7.28c-0.06,0.04-0.11,0.09-0.17,0.13c-0.56,0.39-1.1,0.79-1.61,1.21c-0.07,0.06-0.13,0.12-0.2,0.17
	C25.53,7,25.11,7.39,24.7,7.8c-0.1,0.1-0.21,0.21-0.31,0.32c-0.44,0.45-0.85,0.92-1.24,1.4c-0.07,0.08-0.13,0.17-0.19,0.25
	c-0.33,0.42-0.65,0.85-0.95,1.29c-0.08,0.11-0.16,0.22-0.23,0.34c-0.33,0.5-0.64,1-0.92,1.51c-0.06,0.1-0.11,0.21-0.17,0.31
	c-0.24,0.44-0.47,0.89-0.68,1.34c-0.05,0.11-0.11,0.22-0.16,0.34c-0.24,0.52-0.45,1.03-0.65,1.55c-0.04,0.11-0.08,0.23-0.13,0.34
	c-0.17,0.45-0.32,0.89-0.46,1.34c-0.03,0.1-0.07,0.21-0.1,0.31c-0.16,0.51-0.3,1.02-0.43,1.52c-0.03,0.12-0.06,0.24-0.09,0.35
	c-0.11,0.44-0.2,0.87-0.29,1.29c-0.02,0.09-0.04,0.18-0.06,0.26c-0.1,0.49-0.18,0.96-0.25,1.43c-0.02,0.11-0.03,0.22-0.05,0.34
	c-0.06,0.41-0.11,0.81-0.16,1.2c-0.01,0.06-0.02,0.13-0.02,0.19c-0.05,0.44-0.09,0.86-0.12,1.26c-0.01,0.1-0.01,0.19-0.02,0.29
	c-0.03,0.36-0.05,0.71-0.06,1.05c0,0.04,0,0.08-0.01,0.11c-0.01,0.36-0.02,0.7-0.03,1.02c0,0.08,0,0.15,0,0.23c0,0.29,0,0.56,0,0.81
	c0,0.01,0,0.03,0,0.04C13.84,27.61,9.42,27.44,6.16,29.47z M19.39,29.78l-0.46,0.33c0-0.06,0-0.13-0.01-0.19c0-0.06,0-0.12,0-0.18
	c0-0.14,0-0.29,0-0.45c0-0.03,0-0.06,0-0.09c0-0.18,0-0.38,0.01-0.59c0-0.07,0-0.15,0.01-0.22c0-0.14,0.01-0.29,0.01-0.44
	c0-0.09,0.01-0.18,0.01-0.27c0.01-0.14,0.01-0.29,0.02-0.44c0.01-0.1,0.01-0.2,0.02-0.3c0.01-0.16,0.02-0.33,0.04-0.5
	c0.01-0.09,0.01-0.18,0.02-0.28c0.02-0.24,0.04-0.49,0.07-0.75c0-0.02,0-0.05,0.01-0.07c0.03-0.28,0.06-0.56,0.1-0.85
	c0.01-0.1,0.03-0.2,0.04-0.3c0.03-0.2,0.06-0.39,0.09-0.6c0.02-0.12,0.04-0.24,0.06-0.35c0.03-0.19,0.07-0.39,0.1-0.58
	c0.02-0.12,0.05-0.24,0.07-0.37c0.04-0.21,0.09-0.42,0.13-0.63c0.02-0.11,0.05-0.22,0.07-0.33c0.07-0.31,0.15-0.63,0.23-0.95
	c0.01-0.02,0.01-0.05,0.02-0.07c0.08-0.31,0.17-0.62,0.26-0.94c0.03-0.11,0.07-0.22,0.1-0.34c0.07-0.22,0.14-0.45,0.21-0.67
	c0.04-0.13,0.09-0.25,0.13-0.38c0.08-0.21,0.15-0.43,0.24-0.64c0.05-0.13,0.1-0.25,0.15-0.38c0.09-0.23,0.19-0.46,0.28-0.68
	c0.05-0.11,0.09-0.22,0.14-0.33c0.15-0.33,0.31-0.67,0.47-1c0.01-0.03,0.03-0.05,0.04-0.08c0.15-0.31,0.32-0.61,0.49-0.92
	c0.06-0.11,0.13-0.22,0.19-0.33c0.13-0.22,0.26-0.44,0.39-0.66c0.08-0.12,0.16-0.24,0.24-0.37c0.14-0.21,0.27-0.41,0.42-0.62
	c0.08-0.12,0.17-0.24,0.25-0.36c0.16-0.22,0.33-0.43,0.5-0.65c0.08-0.1,0.15-0.2,0.23-0.29c0.25-0.31,0.51-0.61,0.79-0.9
	c0.03-0.03,0.05-0.05,0.08-0.08c0.25-0.27,0.51-0.53,0.78-0.79c0.1-0.09,0.2-0.18,0.3-0.27c0.21-0.19,0.42-0.38,0.64-0.57
	c0.12-0.1,0.24-0.2,0.35-0.29c0.22-0.18,0.44-0.35,0.67-0.52c0.12-0.09,0.25-0.18,0.37-0.27c0.26-0.18,0.52-0.36,0.79-0.53
	c0.11-0.07,0.21-0.14,0.31-0.2C30.21,6.04,30.6,5.81,31,5.6v24.45l-0.39-0.28C27.25,27.38,22.75,27.38,19.39,29.78z M33.39,29.78
	L33,30.05V5.6c0.39,0.21,0.77,0.43,1.14,0.66c0.12,0.07,0.23,0.15,0.34,0.22C34.74,6.66,35,6.83,35.24,7
	c0.13,0.09,0.25,0.18,0.38,0.28c0.23,0.17,0.45,0.35,0.66,0.52c0.12,0.1,0.23,0.19,0.34,0.29c0.23,0.2,0.46,0.41,0.68,0.62
	c0.08,0.07,0.16,0.15,0.24,0.22c0.29,0.29,0.58,0.58,0.85,0.87c0.06,0.07,0.12,0.14,0.18,0.21c0.21,0.23,0.41,0.47,0.61,0.71
	c0.09,0.11,0.17,0.22,0.25,0.32c0.16,0.21,0.32,0.42,0.47,0.63c0.08,0.11,0.16,0.23,0.24,0.34c0.15,0.22,0.3,0.45,0.45,0.67
	c0.06,0.1,0.13,0.2,0.19,0.3c0.4,0.66,0.77,1.32,1.1,2c0.05,0.11,0.1,0.21,0.15,0.32c0.11,0.24,0.22,0.47,0.32,0.71
	c0.05,0.12,0.1,0.24,0.15,0.36c0.1,0.23,0.19,0.46,0.28,0.69c0.04,0.11,0.09,0.23,0.13,0.34c0.1,0.27,0.2,0.54,0.29,0.81
	c0.02,0.07,0.05,0.14,0.07,0.21c0.11,0.34,0.22,0.68,0.32,1.01c0.03,0.09,0.05,0.17,0.07,0.26c0.07,0.25,0.14,0.5,0.2,0.75
	c0.03,0.11,0.06,0.23,0.09,0.34c0.05,0.22,0.11,0.44,0.16,0.66c0.03,0.11,0.05,0.23,0.07,0.34c0.05,0.23,0.1,0.46,0.14,0.69
	c0.02,0.09,0.04,0.18,0.05,0.27c0.06,0.31,0.11,0.62,0.16,0.93c0.01,0.04,0.01,0.08,0.02,0.11c0.04,0.27,0.08,0.53,0.11,0.78
	c0.01,0.1,0.02,0.2,0.04,0.3c0.02,0.2,0.05,0.39,0.07,0.58c0.01,0.1,0.02,0.2,0.03,0.3c0.02,0.19,0.03,0.37,0.05,0.55
	c0.01,0.09,0.02,0.18,0.02,0.27c0.02,0.21,0.03,0.42,0.04,0.62c0,0.04,0.01,0.09,0.01,0.13c0.01,0.24,0.02,0.47,0.03,0.7
	c0,0.08,0,0.15,0.01,0.22c0,0.15,0.01,0.29,0.01,0.43c0,0.08,0,0.17,0,0.25c0,0.12,0,0.24,0,0.35c0,0.07,0,0.15,0,0.22
	c0,0.12,0,0.23,0,0.33c0,0.06,0,0.12,0,0.17c0,0.01,0,0.01,0,0.02l-0.38-0.27C41.25,27.38,36.74,27.38,33.39,29.78z M57.84,29.47
	C56.27,28.49,54.49,28,52.73,28c-2.02,0-4.04,0.64-5.74,1.9c0-0.03,0-0.07,0-0.1c0-0.24,0-0.49,0-0.76c0-0.05,0-0.09,0-0.14
	c0-0.31-0.01-0.65-0.03-1.01c0-0.08-0.01-0.16-0.01-0.24c-0.02-0.32-0.04-0.66-0.06-1.02c0-0.07-0.01-0.13-0.01-0.19
	c-0.03-0.4-0.07-0.82-0.12-1.26c-0.01-0.1-0.02-0.2-0.04-0.31c-0.05-0.39-0.1-0.79-0.16-1.2c-0.01-0.08-0.02-0.15-0.03-0.22
	c-0.07-0.47-0.16-0.95-0.25-1.43c-0.02-0.12-0.05-0.24-0.07-0.36c-0.09-0.44-0.19-0.88-0.3-1.33c-0.02-0.08-0.04-0.16-0.06-0.24
	c-0.13-0.51-0.27-1.02-0.43-1.54c-0.04-0.13-0.08-0.26-0.12-0.38c-0.15-0.46-0.3-0.93-0.48-1.39c-0.03-0.08-0.06-0.16-0.09-0.24
	c-0.2-0.52-0.42-1.04-0.65-1.57c-0.06-0.13-0.12-0.26-0.18-0.39c-0.22-0.47-0.45-0.93-0.7-1.39c-0.04-0.07-0.07-0.15-0.12-0.22
	c-0.28-0.51-0.59-1.02-0.92-1.52c-0.08-0.13-0.17-0.25-0.25-0.38c-0.3-0.45-0.62-0.89-0.97-1.33c-0.05-0.06-0.09-0.13-0.14-0.19
	c-0.38-0.48-0.8-0.94-1.23-1.4c-0.11-0.12-0.22-0.23-0.34-0.34c-0.41-0.41-0.83-0.81-1.28-1.2c-0.06-0.05-0.11-0.1-0.17-0.15
	c-0.5-0.42-1.03-0.82-1.59-1.21c-0.07-0.05-0.12-0.1-0.19-0.14C48.88,6.22,59,17.05,59,30.2L57.84,29.47z"/>
</svg>
