<?xml version="1.0" encoding="utf-8"?>
<!-- Generator: Adobe Illustrator 23.0.5, SVG Export Plug-In . SVG Version: 6.00 Build 0)  -->
<svg version="1.1" id="Layer_1" xmlns="http://www.w3.org/2000/svg" xmlns:xlink="http://www.w3.org/1999/xlink" x="0px" y="0px"
	 viewBox="0 0 64 64" style="enable-background:new 0 0 64 64;" xml:space="preserve">
<path d="M40,39H9c-0.55,0-1,0.45-1,1s0.45,1,1,1h31c0.55,0,1-0.45,1-1S40.55,39,40,39z"/>
<path d="M40,45H9c-0.55,0-1,0.45-1,1s0.45,1,1,1h31c0.55,0,1-0.45,1-1S40.55,45,40,45z"/>
<path d="M40,51H9c-0.55,0-1,0.45-1,1s0.45,1,1,1h31c0.55,0,1-0.45,1-1S40.55,51,40,51z"/>
<path d="M58,19.81H46V15c0-0.02-0.01-0.04-0.01-0.06c-0.01-0.09-0.02-0.18-0.05-0.27c-0.01-0.03-0.02-0.06-0.03-0.09
	c-0.05-0.1-0.11-0.2-0.19-0.28c0,0,0-0.01-0.01-0.01l-11-11c0,0-0.01,0-0.01-0.01c-0.08-0.08-0.18-0.14-0.28-0.19
	c-0.03-0.01-0.06-0.02-0.09-0.03c-0.09-0.03-0.17-0.05-0.27-0.05C34.04,3.01,34.02,3,34,3H6C4.35,3,3,4.35,3,6v52c0,1.65,1.35,3,3,3
	h39h5c1.1,0,2-0.9,2-2V36h6c1.65,0,3-1.35,3-3.01V22.82C61,21.16,59.65,19.81,58,19.81z M42.59,14H36c-0.55,0-1-0.45-1-1V6.41
	L42.59,14z M5,58V6c0-0.55,0.45-1,1-1h27v8c0,1.65,1.35,3,3,3h8v3.81h-6c-0.32,0-0.63,0.05-0.88,0.13
	c-0.19,0.06-0.38,0.14-0.52,0.21c-0.03,0.01-0.14,0.08-0.16,0.1c-0.04,0.02-0.08,0.05-0.12,0.07c-0.15,0.1-0.3,0.23-0.42,0.35
	C35.32,21.24,35,22,35,22.82v10.17c0,0.09,0,0.23,0.03,0.39c0.03,0.21,0.08,0.42,0.15,0.62H9c-0.55,0-1,0.45-1,1s0.45,1,1,1h29h6v23
	H6C5.45,59,5,58.55,5,58z M50,59h-4V36h4V59z M59,32.99c0,0.56-0.45,1.01-1,1.01h-7h-6h-7c-0.34,0-0.66-0.18-0.84-0.45
	c-0.08-0.13-0.13-0.28-0.15-0.43c0-0.05,0-0.08-0.01-0.13V22.82c0-0.28,0.1-0.52,0.3-0.72c0.04-0.04,0.08-0.08,0.12-0.11
	c0.03-0.02,0.07-0.04,0.1-0.06c0.06-0.03,0.12-0.05,0.21-0.08c0.07-0.02,0.17-0.04,0.27-0.04h7h13c0.55,0,1,0.45,1,1.01V32.99z"/>
<path d="M17.57,24.25v1.84c0,2.16,1.75,3.91,3.91,3.91h1.03c2.16,0,3.91-1.75,3.91-3.91v-1.84c0-1.95,0.52-3.77,1.51-5.25
	c0.86-1.28,1.21-2.82,1-4.34c-0.41-2.94-3-5.3-6.16-5.62c-2.09-0.21-4.15,0.45-5.65,1.8c-1.38,1.24-2.13,2.91-2.13,4.7
	c0,1.19,0.35,2.36,1,3.37C17.03,20.51,17.57,22.35,17.57,24.25z M24.43,26.09c0,1.05-0.86,1.91-1.91,1.91h-1.03
	c-1.05,0-1.91-0.86-1.91-1.91v-0.84h4.86V26.09z M18.47,12.32c1.08-0.98,2.57-1.45,4.1-1.29c2.25,0.23,4.09,1.87,4.38,3.91
	c0.15,1.05-0.09,2.07-0.68,2.95c-1.04,1.55-1.66,3.39-1.81,5.36l-4.94,0c-0.16-1.93-0.79-3.78-1.85-5.42
	C17.24,17.14,17,16.35,17,15.54C17,14.33,17.52,13.18,18.47,12.32z"/>
</svg>
