<?xml version="1.0" encoding="utf-8"?>
<!-- Generator: Adobe Illustrator 23.0.5, SVG Export Plug-In . SVG Version: 6.00 Build 0)  -->
<svg version="1.1" id="Layer_1" xmlns="http://www.w3.org/2000/svg" xmlns:xlink="http://www.w3.org/1999/xlink" x="0px" y="0px"
	 viewBox="0 0 64 64" style="enable-background:new 0 0 64 64;" xml:space="preserve">
<path d="M49,58V6c0-1.65-1.35-3-3-3H18c-1.65,0-3,1.35-3,3v52c0,1.65,1.35,3,3,3h28C47.65,61,49,59.65,49,58z M17,58V6
	c0-0.55,0.45-1,1-1h28c0.55,0,1,0.45,1,1v52c0,0.55-0.45,1-1,1H18C17.45,59,17,58.55,17,58z"/>
<path d="M41,11H23c-1.1,0-2,0.9-2,2v11c0,1.1,0.9,2,2,2h18c1.1,0,2-0.9,2-2V13C43,11.9,42.1,11,41,11z M33,13h3v11h-3V13z M31,24h-3
	V13h3V24z M23,13L23,13h3v11h-3L23,13z M41,24h-3V13h3V24z"/>
<path d="M42,36c-0.55,0-1,0.45-1,1v5c0,0.55,0.45,1,1,1s1-0.45,1-1v-5C43,36.45,42.55,36,42,36z"/>
</svg>
