<?xml version="1.0" encoding="utf-8"?>
<!-- Generator: Adobe Illustrator 23.0.5, SVG Export Plug-In . SVG Version: 6.00 Build 0)  -->
<svg version="1.1" id="Layer_1" xmlns="http://www.w3.org/2000/svg" xmlns:xlink="http://www.w3.org/1999/xlink" x="0px" y="0px"
	 viewBox="0 0 64 64" style="enable-background:new 0 0 64 64;" xml:space="preserve">
<path d="M26.7,17.95c0-4.82-3.92-8.75-8.75-8.75S9.2,13.13,9.2,17.95s3.92,8.75,8.75,8.75S26.7,22.77,26.7,17.95z M11.2,17.95
	c0-3.72,3.03-6.75,6.75-6.75s6.75,3.03,6.75,6.75s-3.03,6.75-6.75,6.75S11.2,21.67,11.2,17.95z"/>
<path d="M47.63,29.55c-4.51-0.06-8.81,1.96-11.69,5.48c-0.37,0.46-0.94,0.72-1.57,0.72h-0.81c-2.26,0-4.1,1.84-4.1,4.1V44H22
	c-1.65,0-3-1.35-3-3v-5h3.6c2.26,0,4.1-1.84,4.1-4.1v-0.81c0-0.63,0.26-1.2,0.72-1.57c3.48-2.85,5.48-7.07,5.48-11.56
	c0-4.07-1.61-7.87-4.52-10.71C25.46,4.4,21.6,2.89,17.54,3.01C9.59,3.22,3.07,9.87,3,17.82c-0.04,4.55,1.96,8.81,5.48,11.69
	c0.46,0.37,0.72,0.95,0.72,1.57v0.81c0,2.26,1.84,4.1,4.1,4.1H17v5c0,2.76,2.24,5,5,5h7.45v3.15c0,2.26,1.84,4.1,4.1,4.1h0.81
	c0.63,0,1.2,0.26,1.57,0.72c2.85,3.48,7.07,5.48,11.56,5.48c4.07,0,7.87-1.61,10.71-4.52c2.84-2.92,4.34-6.76,4.23-10.84
	C62.23,36.14,55.58,29.62,47.63,29.55z M11.2,31.9v-0.81c0-1.23-0.53-2.37-1.45-3.12C6.7,25.47,4.97,21.78,5,17.84
	C5.06,10.95,10.71,5.19,17.6,5c3.5-0.09,6.86,1.21,9.39,3.67c2.53,2.46,3.92,5.75,3.92,9.28c0,3.9-1.73,7.55-4.75,10.02
	c-0.92,0.76-1.45,1.89-1.45,3.12v0.81c0,1.16-0.94,2.1-2.1,2.1h-9.3C12.14,34,11.2,33.06,11.2,31.9z M56.78,53.53
	c-2.46,2.53-5.75,3.92-9.28,3.92c-3.9,0-7.55-1.73-10.02-4.75c-0.75-0.92-1.89-1.45-3.12-1.45h-0.81c-1.16,0-2.1-0.94-2.1-2.1v-9.3
	c0-1.16,0.94-2.1,2.1-2.1h0.81c1.23,0,2.37-0.53,3.12-1.45c2.5-3.05,6.21-4.79,10.13-4.75c6.89,0.06,12.65,5.71,12.84,12.6
	C60.54,47.67,59.24,51.01,56.78,53.53z"/>
<path d="M47.5,35.75c-4.83,0-8.75,3.93-8.75,8.75s3.92,8.75,8.75,8.75s8.75-3.93,8.75-8.75S52.33,35.75,47.5,35.75z M47.5,51.25
	c-3.72,0-6.75-3.03-6.75-6.75s3.03-6.75,6.75-6.75s6.75,3.03,6.75,6.75S51.22,51.25,47.5,51.25z"/>
<path d="M20.5,30.5c0-0.55-0.45-1-1-1l-3,0c-0.55,0-1,0.45-1,1c0,0.55,0.45,1,1,1l3,0C20.05,31.5,20.5,31.05,20.5,30.5z"/>
<path d="M34.5,42.5c-0.55,0-1,0.45-1,1l0,3c0,0.55,0.45,1,1,1c0.55,0,1-0.45,1-1l0-3C35.5,42.95,35.05,42.5,34.5,42.5z"/>
</svg>
