<?xml version="1.0" encoding="utf-8"?>
<!-- Generator: Adobe Illustrator 23.0.5, SVG Export Plug-In . SVG Version: 6.00 Build 0)  -->
<svg version="1.1" id="Layer_1" xmlns="http://www.w3.org/2000/svg" xmlns:xlink="http://www.w3.org/1999/xlink" x="0px" y="0px"
	 viewBox="0 0 64 64" style="enable-background:new 0 0 64 64;" xml:space="preserve">
<path d="M12,33c4.96,0,9-4.04,9-9c0-0.01,0-0.01,0-0.02c0-0.12-0.03-0.23-0.07-0.34c-0.01-0.03-0.03-0.05-0.04-0.08
	c-0.02-0.04-0.03-0.08-0.06-0.12L13.87,13H31v40h-9c-0.55,0-1,0.45-1,1v5h-5c-0.55,0-1,0.45-1,1s0.45,1,1,1h6h20h6
	c0.55,0,1-0.45,1-1s-0.45-1-1-1h-5v-5c0-0.55-0.45-1-1-1h-9V13h17.13l-6.96,10.45c-0.02,0.04-0.04,0.08-0.06,0.12
	c-0.01,0.03-0.03,0.05-0.04,0.08c-0.04,0.11-0.07,0.22-0.07,0.34c0,0.01,0,0.01,0,0.02c0,4.96,4.04,9,9,9s9-4.04,9-9
	c0-0.01,0-0.01,0-0.02c0-0.12-0.03-0.23-0.07-0.34c-0.01-0.03-0.03-0.05-0.04-0.08c-0.02-0.04-0.03-0.08-0.06-0.12l-8-12
	c-0.01-0.02-0.04-0.03-0.05-0.04C52.6,11.16,52.32,11,52,11H32c0,0,0,0,0,0s0,0,0,0H12c-0.32,0-0.6,0.16-0.78,0.4
	c-0.01,0.02-0.04,0.03-0.05,0.05l-8,12c-0.02,0.04-0.04,0.08-0.06,0.12c-0.01,0.03-0.03,0.05-0.04,0.08
	C3.03,23.75,3.01,23.87,3,23.98c0,0.01,0,0.01,0,0.02C3,28.96,7.04,33,12,33z M41,59H23v-4h18V59z M12,31c-3.52,0-6.44-2.61-6.93-6
	h13.86C18.44,28.39,15.52,31,12,31z M52,31c-3.52,0-6.44-2.61-6.93-6h13.86C58.44,28.39,55.52,31,52,31z M45.87,23L52,13.8l6.13,9.2
	H45.87z M12,13.8l6.13,9.2H5.87L12,13.8z"/>
</svg>
