<?xml version="1.0" encoding="utf-8"?>
<!-- Generator: Adobe Illustrator 23.0.5, SVG Export Plug-In . SVG Version: 6.00 Build 0)  -->
<svg version="1.1" id="Layer_1" xmlns="http://www.w3.org/2000/svg" xmlns:xlink="http://www.w3.org/1999/xlink" x="0px" y="0px"
	 viewBox="0 0 64 64" style="enable-background:new 0 0 64 64;" xml:space="preserve">
<path d="M11.71,26.55l3.92,1.57c0.12,0.05,0.25,0.07,0.37,0.07s0.25-0.02,0.37-0.07l3.92-1.57c2.25-0.9,3.71-3.05,3.71-5.48v-7.05
	c0-0.92-0.75-1.68-1.66-1.7c-1.58-0.03-3.59-0.27-5.11-1.88c-0.63-0.67-1.83-0.67-2.46,0c-1.52,1.61-3.53,1.85-5.11,1.88
	C8.75,12.33,8,13.1,8,14.02v7.05C8,23.5,9.46,25.65,11.71,26.55z M10,14.31c1.73-0.06,4.09-0.41,6-2.27c1.9,1.86,4.27,2.21,6,2.27
	v6.76c0,1.6-0.96,3.03-2.45,3.62L16,26.11l-3.55-1.42c-1.49-0.6-2.45-2.02-2.45-3.62V14.31z"/>
<path d="M9,35h29c0.55,0,1-0.45,1-1s-0.45-1-1-1H9c-0.55,0-1,0.45-1,1S8.45,35,9,35z"/>
<path d="M29,28h9c0.55,0,1-0.45,1-1s-0.45-1-1-1h-9c-0.55,0-1,0.45-1,1S28.45,28,29,28z"/>
<path d="M9,41h30c0.55,0,1-0.45,1-1s-0.45-1-1-1H9c-0.55,0-1,0.45-1,1S8.45,41,9,41z"/>
<path d="M32,45H9c-0.55,0-1,0.45-1,1s0.45,1,1,1h23c0.55,0,1-0.45,1-1S32.55,45,32,45z"/>
<path d="M32,51H9c-0.55,0-1,0.45-1,1s0.45,1,1,1h23c0.55,0,1-0.45,1-1S32.55,51,32,51z"/>
<path d="M58.95,24.68c-0.84-0.72-2.1-0.62-2.82,0.21L45,37.74V15c0-0.02-0.01-0.04-0.01-0.06c-0.01-0.09-0.02-0.18-0.05-0.27
	c-0.01-0.03-0.02-0.06-0.03-0.09c-0.05-0.1-0.11-0.2-0.19-0.28c0,0,0-0.01-0.01-0.01l-11-11c0,0-0.01,0-0.01-0.01
	c-0.08-0.08-0.18-0.14-0.28-0.19c-0.03-0.01-0.06-0.02-0.09-0.03c-0.09-0.03-0.17-0.05-0.27-0.05C33.04,3.01,33.02,3,33,3H6
	C4.35,3,3,4.35,3,6v52c0,1.65,1.35,3,3,3h36c1.65,0,3-1.35,3-3V46.97L60.69,28.8c0,0,0,0,0,0c0.35-0.41,0.52-0.92,0.48-1.46
	c-0.04-0.53-0.29-1.02-0.7-1.37L58.95,24.68z M41.59,14H35c-0.55,0-1-0.45-1-1V6.41L41.59,14z M43,58c0,0.55-0.45,1-1,1H6
	c-0.55,0-1-0.45-1-1V6c0-0.55,0.45-1,1-1h26v8c0,1.65,1.35,3,3,3h8v24.05l-6.6,7.7c-0.19,0.23-0.33,0.5-0.41,0.81l-0.54,2.17
	c-0.03,0.14-0.04,0.27-0.04,0.41c0,0.05-0.02,0.1-0.02,0.14c0,0.04,0.01,0.07,0.02,0.11c0.04,0.51,0.27,0.99,0.68,1.34
	c0.13,0.11,0.27,0.2,0.42,0.27c0.04,0.02,0.07,0.03,0.11,0.05c0.15,0.06,0.29,0.11,0.45,0.14c0.03,0,0.06,0,0.08,0.01
	c0.08,0.01,0.16,0.02,0.24,0.02c0.05,0,0.1-0.01,0.15-0.02c0.05,0,0.1-0.01,0.15-0.02c0.16-0.02,0.32-0.06,0.48-0.13l2.06-0.87
	c0.29-0.13,0.55-0.32,0.74-0.54L43,49.29V58z M43.24,45.92l-3.79,4.42l-2.06,0.87l0.54-2.17l6.83-7.96L57.65,26.2l1.52,1.3
	L43.24,45.92z"/>
</svg>
