<svg width="432" height="112" viewBox="0 0 432 112" fill="none" xmlns="http://www.w3.org/2000/svg">
<path d="M145.84 27.97H156.78L170.52 63.58H159.58L157.55 57.98H144.53L142.55 63.58H131.87L145.86 27.97H145.84ZM154.79 50.36L151.18 40.44H150.67L147.16 50.36H154.79Z" fill="white"/>
<path d="M178.65 36.62H167.71V27.97H199.5V36.62H188.56V63.58H178.64V36.62H178.65Z" fill="white"/>
<path d="M213.5 36.62H202.56V27.97H234.35V36.62H223.41V63.58H213.49V36.62H213.5Z" fill="white"/>
<path d="M272.76 44.51V47.05C272.76 59.26 264.11 64.35 254.95 64.35C245.79 64.35 237.15 59.26 237.15 47.05V44.51C237.15 32.3 245.8 27.21 254.95 27.21C264.1 27.21 272.76 32.3 272.76 44.51ZM254.96 55.7C260.3 55.7 262.34 53.16 262.34 47.81V43.74C262.34 38.4 260.31 35.86 254.96 35.86C249.61 35.86 247.58 38.4 247.58 43.74V47.81C247.58 53.15 249.61 55.7 254.96 55.7Z" fill="white"/>
<path d="M279.63 27.97H299.21C305.57 27.97 312.18 29.75 312.18 37.38V39.92C312.18 44.24 309.89 46.79 305.82 47.3V47.81C309.38 48.32 311.67 50.1 311.67 54.42V56.96C311.67 58.49 311.67 61.03 312.18 63.57H302.26C301.75 61.03 301.75 58.99 301.75 57.97V55.94C301.75 53.4 300.73 52.38 298.19 52.38H289.54V63.57H279.62V27.97H279.63ZM298.71 43.74C300.74 43.74 301.76 42.72 301.76 40.89V39.41C301.76 37.63 300.74 36.61 298.71 36.61H289.55V43.73H298.71V43.74Z" fill="white"/>
<path d="M319.57 27.97H331.02L343.23 48.32H343.74V27.97H353.66V63.58H342.21L330 43.23H329.49V63.58H319.57V27.97Z" fill="white"/>
<path d="M361.79 27.97H390.28V36.62H371.71V41.71H389.26V49.59H371.71V54.93H390.53V63.58H361.79V27.97Z" fill="white"/>
<path d="M419.02 27.97H429.7L416.73 50.86V63.58H406.81V50.86L393.33 27.97H404.78L411.85 40.94H412.36L419.02 27.97Z" fill="white"/>
<path d="M140.77 72.96H146.11L154.56 94.7H149.34L147.6 90.07H138.9L137.19 94.7H132.13L140.76 72.96H140.77ZM146.17 86.28L143.34 78.76H143.09L140.29 86.28H146.16H146.17Z" fill="white"/>
<path d="M181.12 86.13L176.24 85.42C172.45 84.86 170.49 82.56 170.49 79.52V78.74C170.49 74.86 173.72 72.56 179.37 72.56C185.02 72.56 188.07 74.83 188.22 79.74H183.65L183.62 79.21C183.5 77.44 182.22 76.48 179.36 76.48C176.29 76.48 175.14 77.35 175.14 78.75V79.06C175.14 80.4 175.92 80.92 177.78 81.23L182.66 81.94C186.98 82.56 188.84 84.67 188.84 87.84V88.77C188.84 92.65 185.64 95.11 179.74 95.11C173.34 95.11 170.2 92.87 170.05 87.5H174.71L174.74 88.03C174.86 90.27 176.54 91.14 179.74 91.14C182.75 91.14 184.12 90.33 184.12 88.78V88.47C184.12 87.13 183.37 86.51 181.11 86.14L181.12 86.13Z" fill="white"/>
<path d="M217.06 86.13L212.18 85.42C208.39 84.86 206.43 82.56 206.43 79.52V78.74C206.43 74.86 209.66 72.56 215.31 72.56C220.96 72.56 224.01 74.83 224.16 79.74H219.59L219.56 79.21C219.44 77.44 218.16 76.48 215.3 76.48C212.23 76.48 211.08 77.35 211.08 78.75V79.06C211.08 80.4 211.86 80.92 213.72 81.23L218.6 81.94C222.92 82.56 224.78 84.67 224.78 87.84V88.77C224.78 92.65 221.58 95.11 215.68 95.11C209.28 95.11 206.14 92.87 205.99 87.5H210.65L210.68 88.03C210.8 90.27 212.48 91.14 215.68 91.14C218.69 91.14 220.06 90.33 220.06 88.78V88.47C220.06 87.13 219.31 86.51 217.05 86.14L217.06 86.13Z" fill="white"/>
<path d="M243.12 72.96H247.84V94.7H243.12V72.96Z" fill="white"/>
<path d="M277.17 86.13L272.29 85.42C268.5 84.86 266.54 82.56 266.54 79.52V78.74C266.54 74.86 269.77 72.56 275.42 72.56C281.07 72.56 284.12 74.83 284.27 79.74H279.7L279.67 79.21C279.55 77.44 278.27 76.48 275.41 76.48C272.34 76.48 271.19 77.35 271.19 78.75V79.06C271.19 80.4 271.97 80.92 273.83 81.23L278.71 81.94C283.03 82.56 284.89 84.67 284.89 87.84V88.77C284.89 92.65 281.69 95.11 275.79 95.11C269.39 95.11 266.25 92.87 266.1 87.5H270.76L270.79 88.03C270.91 90.27 272.59 91.14 275.79 91.14C278.8 91.14 280.17 90.33 280.17 88.78V88.47C280.17 87.13 279.42 86.51 277.16 86.14L277.17 86.13Z" fill="white"/>
<path d="M307.67 77.12H300.53V72.96H319.48V77.12H312.4V94.7H307.68V77.12H307.67Z" fill="white"/>
<path d="M340.47 72.96H345.81L354.26 94.7H349.04L347.3 90.07H338.6L336.89 94.7H331.83L340.46 72.96H340.47ZM345.88 86.28L343.05 78.76H342.8L340 86.28H345.87H345.88Z" fill="white"/>
<path d="M371.35 72.96H376.72L386.26 87.37H386.48V72.96H391.23V94.7H385.83L376.33 80.29H376.08V94.7H371.36V72.96H371.35Z" fill="white"/>
<path d="M415.59 77.12H408.45V72.96H427.4V77.12H420.32V94.7H415.6V77.12H415.59Z" fill="white"/>
<path d="M111.22 60.92C111.31 59.65 111.36 58.36 111.36 57.06C111.36 46.89 108.47 37.39 103.47 29.34C104.21 28.05 104.2 26.37 103.25 25.06C93.3 11.23 77.07 2.22998 58.73 2.22998C40.39 2.22998 24.17 11.23 14.21 25.05C13.26 26.37 13.25 28.04 13.99 29.33C8.99 37.38 6.1 46.88 6.1 57.05C6.1 58.35 6.15 59.63 6.24 60.91C3.35 63.2 2.1 67.16 3.39 70.83L7.16 81.48C8.47 85.18 11.99 87.48 15.72 87.4C16.01 87.4 16.31 87.37 16.61 87.34C17.22 87.27 17.84 87.13 18.45 86.92C18.47 86.92 18.49 86.9 18.51 86.9L19.45 86.57L21.6 85.81C22.46 86.85 24.04 86.91 24.98 85.92C25.73 85.11 25.79 83.89 25.11 83.02C19.68 75.98 16.46 67.26 16.27 58.02C16.24 56.76 15.2 55.76 13.95 55.81C12.75 55.85 11.78 56.84 11.78 58.04V58.09C11.78 58.22 11.78 58.34 11.79 58.47L9.65 59.23C9.62 58.52 9.6 57.81 9.6 57.09C9.6 47.63 12.28 38.8 16.91 31.3C18.31 31.47 19.74 30.88 20.61 29.67C29.13 17.84 43.03 10.14 58.73 10.14C74.43 10.14 88.32 17.84 96.85 29.67C97.72 30.87 99.15 31.47 100.55 31.3C105.18 38.8 107.86 47.63 107.86 57.09C107.86 57.81 107.84 58.52 107.81 59.23L105.67 58.47C105.67 58.34 105.67 58.22 105.68 58.09C105.71 56.87 104.73 55.86 103.51 55.82C103.48 55.82 103.46 55.82 103.43 55.82C102.21 55.82 101.21 56.8 101.18 58.03C100.99 67.27 97.77 75.99 92.34 83.03C91.67 83.9 91.73 85.13 92.47 85.93C93.4 86.93 94.98 86.87 95.85 85.83L98 86.59L98.94 86.92C98.94 86.92 98.98 86.94 99 86.94C97.54 88.9 95.93 90.77 94.16 92.53C90.81 95.88 87.08 98.69 83.06 100.93C82.31 100.19 81.16 99.99 80.18 100.48C77.56 101.78 74.81 102.84 71.95 103.66C70.9 103.96 70.18 104.88 70.12 105.92C70.12 105.97 70.12 106.02 70.12 106.07C70.12 106.25 70.14 106.43 70.18 106.61C70.26 106.98 70.42 107.3 70.63 107.58C71.24 108.38 72.3 108.77 73.33 108.48C76.49 107.58 79.53 106.41 82.42 104.97C83.31 104.53 83.83 103.64 83.83 102.71C83.83 102.64 83.83 102.57 83.83 102.5C88.03 100.17 91.93 97.24 95.42 93.75C97.42 91.75 99.24 89.61 100.87 87.36C101.17 87.4 101.46 87.42 101.76 87.42C105.49 87.5 109 85.21 110.32 81.5L114.09 70.85C115.39 67.18 114.13 63.22 111.24 60.93L111.22 60.92Z" fill="white"/>
<path d="M58.73 19.73C38.23 19.73 21.64 36.11 21.41 56.62C21.23 71.86 30.19 85.02 43.14 90.98C45.89 92.25 48.34 94.09 50.32 96.39L57.38 104.62C58.09 105.45 59.38 105.45 60.09 104.62L67.15 96.39C69.13 94.08 71.6 92.24 74.37 90.96C87.18 85.05 96.06 72.09 96.06 57.06C96.06 36.44 79.35 19.73 58.73 19.73ZM41.7 61.57C39.22 61.57 37.22 59.56 37.22 57.09C37.22 54.62 39.23 52.61 41.7 52.61C44.17 52.61 46.18 54.62 46.18 57.09C46.18 59.56 44.17 61.57 41.7 61.57ZM58.28 61.57C55.8 61.57 53.8 59.56 53.8 57.09C53.8 54.62 55.81 52.61 58.28 52.61C60.75 52.61 62.76 54.62 62.76 57.09C62.76 59.56 60.75 61.57 58.28 61.57ZM74.86 61.57C72.38 61.57 70.38 59.56 70.38 57.09C70.38 54.62 72.39 52.61 74.86 52.61C77.33 52.61 79.34 54.62 79.34 57.09C79.34 59.56 77.33 61.57 74.86 61.57Z" fill="white"/>
</svg>
