<svg width="2264" height="582" viewBox="0 0 2264 582" fill="none" xmlns="http://www.w3.org/2000/svg">
<path d="M764.31 146.574H821.643L893.651 333.185H836.317L825.679 303.839H757.444L747.068 333.185H691.096L764.414 146.574H764.31ZM811.214 263.907L792.295 211.922H789.622L771.227 263.907H811.214Z" fill="#F9A630"/>
<path d="M936.258 191.904H878.925V146.574H1045.53V191.904H988.194V333.185H936.206V191.904H936.258Z" fill="#F9A630"/>
<path d="M1118.9 191.904H1061.56V146.574H1228.17V191.904H1170.83V333.185H1118.85V191.904H1118.9Z" fill="#F9A630"/>
<path d="M1429.46 233.251V246.561C1429.46 310.547 1384.13 337.22 1336.13 337.22C1288.12 337.22 1242.84 310.547 1242.84 246.561V233.251C1242.84 169.265 1288.17 142.592 1336.13 142.592C1384.08 142.592 1429.46 169.265 1429.46 233.251ZM1336.18 291.891C1364.16 291.891 1374.86 278.58 1374.86 250.544V229.216C1374.86 201.232 1364.22 187.921 1336.18 187.921C1308.14 187.921 1297.5 201.232 1297.5 229.216V250.544C1297.5 278.528 1308.14 291.891 1336.18 291.891Z" fill="#F9A630"/>
<path d="M1465.47 146.574H1568.08C1601.41 146.574 1636.05 155.902 1636.05 195.887V209.197C1636.05 231.836 1624.05 245.199 1602.72 247.871V250.544C1621.38 253.217 1633.38 262.545 1633.38 285.183V298.494C1633.38 306.512 1633.38 319.822 1636.05 333.133H1584.07C1581.39 319.822 1581.39 309.132 1581.39 303.787V293.149C1581.39 279.838 1576.05 274.493 1562.74 274.493H1517.4V333.133H1465.42V146.574H1465.47ZM1565.46 229.216C1576.1 229.216 1581.45 223.87 1581.45 214.28V206.525C1581.45 197.197 1576.1 191.851 1565.46 191.851H1517.46V229.163H1565.46V229.216Z" fill="#F9A630"/>
<path d="M1674.78 146.574H1734.79L1798.78 253.217H1801.45V146.574H1853.44V333.185H1793.43L1729.44 226.543H1726.77V333.185H1674.78V146.574Z" fill="#F9A630"/>
<path d="M1896.05 146.574H2045.36V191.904H1948.04V218.578H2040.01V259.872H1948.04V287.856H2046.67V333.185H1896.05V146.574Z" fill="#F9A630"/>
<path d="M2195.97 146.574H2251.95L2183.97 266.527V333.185H2131.99V266.527L2061.34 146.574H2121.35L2158.4 214.542H2161.07L2195.97 146.574Z" fill="#F9A630"/>
<path d="M737.739 382.34H765.725L810.009 496.267H782.652L773.533 472.004H727.939L718.977 496.267H692.459L737.687 382.34H737.739ZM766.039 452.143L751.208 412.735H749.898L735.223 452.143H765.987H766.039Z" fill="#50A7DD"/>
<path d="M949.203 451.357L923.628 447.636C903.766 444.701 893.494 432.648 893.494 416.717V412.63C893.494 392.297 910.421 380.244 940.032 380.244C969.642 380.244 985.626 392.14 986.412 417.87H962.462L962.305 415.093C961.676 405.817 954.968 400.787 939.979 400.787C923.89 400.787 917.863 405.346 917.863 412.682V414.307C917.863 421.329 921.951 424.054 931.699 425.679L957.274 429.399C979.914 432.648 989.661 443.706 989.661 460.318V465.191C989.661 485.524 972.891 498.415 941.971 498.415C908.43 498.415 891.974 486.677 891.188 458.536H915.61L915.767 461.313C916.396 473.052 925.2 477.611 941.971 477.611C957.745 477.611 964.925 473.366 964.925 465.244V463.619C964.925 456.597 960.995 453.348 949.151 451.409L949.203 451.357Z" fill="#50A7DD"/>
<path d="M1137.56 451.357L1111.98 447.636C1092.12 444.701 1081.85 432.648 1081.85 416.717V412.63C1081.85 392.297 1098.77 380.244 1128.38 380.244C1157.99 380.244 1173.98 392.14 1174.76 417.87H1150.81L1150.66 415.093C1150.03 405.817 1143.32 400.787 1128.33 400.787C1112.24 400.787 1106.22 405.346 1106.22 412.682V414.307C1106.22 421.329 1110.3 424.054 1120.05 425.679L1145.63 429.399C1168.27 432.648 1178.01 443.706 1178.01 460.318V465.191C1178.01 485.524 1161.24 498.415 1130.32 498.415C1096.78 498.415 1080.33 486.677 1079.54 458.536H1103.96L1104.12 461.313C1104.75 473.052 1113.55 477.611 1130.32 477.611C1146.1 477.611 1153.28 473.366 1153.28 465.244V463.619C1153.28 456.597 1149.35 453.348 1137.5 451.409L1137.56 451.357Z" fill="#50A7DD"/>
<path d="M1274.13 382.34H1298.87V496.267H1274.13V382.34Z" fill="#50A7DD"/>
<path d="M1452.58 451.357L1427 447.636C1407.14 444.701 1396.87 432.648 1396.87 416.717V412.63C1396.87 392.297 1413.79 380.244 1443.4 380.244C1473.02 380.244 1489 392.14 1489.79 417.87H1465.84L1465.68 415.093C1465.05 405.817 1458.34 400.787 1443.35 400.787C1427.26 400.787 1421.24 405.346 1421.24 412.682V414.307C1421.24 421.329 1425.32 424.054 1435.07 425.679L1460.65 429.399C1483.29 432.648 1493.03 443.706 1493.03 460.318V465.191C1493.03 485.524 1476.26 498.415 1445.34 498.415C1411.8 498.415 1395.35 486.677 1394.56 458.536H1418.98L1419.14 461.313C1419.77 473.052 1428.57 477.611 1445.34 477.611C1461.12 477.611 1468.3 473.366 1468.3 465.244V463.619C1468.3 456.597 1464.37 453.348 1452.52 451.409L1452.58 451.357Z" fill="#50A7DD"/>
<path d="M1612.42 404.14H1575V382.34H1674.31V404.14H1637.21V496.267H1612.47V404.14H1612.42Z" fill="#50A7DD"/>
<path d="M1784.31 382.34H1812.3L1856.58 496.267H1829.23L1820.11 472.004H1774.51L1765.55 496.267H1739.03L1784.26 382.34H1784.31ZM1812.67 452.143L1797.84 412.735H1796.53L1781.85 452.143H1812.61H1812.67Z" fill="#50A7DD"/>
<path d="M1946.15 382.34H1974.29L2024.29 457.855H2025.44V382.34H2050.34V496.267H2022.03L1972.25 420.753H1970.94V496.267H1946.2V382.34H1946.15Z" fill="#50A7DD"/>
<path d="M2178 404.14H2140.58V382.34H2239.89V404.14H2202.79V496.267H2178.05V404.14H2178Z" fill="#50A7DD"/>
<path d="M582.875 319.246C583.347 312.59 583.609 305.83 583.609 299.018C583.609 245.723 568.463 195.939 542.259 153.754C546.138 146.994 546.085 138.19 541.106 131.325C488.961 58.8498 403.904 11.6861 307.789 11.6861C211.674 11.6861 126.669 58.8498 74.4709 131.272C69.4922 138.19 69.4398 146.941 73.318 153.701C47.1143 195.887 31.9685 245.67 31.9685 298.965C31.9685 305.778 32.2306 312.486 32.7022 319.193C17.5565 331.194 11.0056 351.946 17.7661 371.178L37.5237 426.989C44.3891 446.378 62.8365 458.431 82.3844 458.012C83.9043 458.012 85.4765 457.855 87.0487 457.697C90.2456 457.331 93.4948 456.597 96.6917 455.496C96.7965 455.496 96.9013 455.392 97.0061 455.392L101.932 453.662L113.2 449.68C117.707 455.13 125.987 455.444 130.914 450.256C134.844 446.011 135.159 439.618 131.595 435.059C103.138 398.166 86.2626 352.47 85.2669 304.049C85.1096 297.446 79.6593 292.205 73.1083 292.467C66.8194 292.677 61.7359 297.865 61.7359 304.153V304.415C61.7359 305.097 61.7359 305.726 61.7883 306.407L50.5731 310.39C50.4159 306.669 50.3111 302.948 50.3111 299.175C50.3111 249.601 64.3563 203.328 88.6209 164.025C95.958 164.916 103.452 161.824 108.012 155.483C152.663 93.4889 225.509 53.1378 307.789 53.1378C390.068 53.1378 462.862 93.4889 507.566 155.483C512.125 161.771 519.619 164.916 526.957 164.025C551.221 203.328 565.266 249.601 565.266 299.175C565.266 302.948 565.161 306.669 565.004 310.39L553.789 306.407C553.789 305.726 553.789 305.097 553.842 304.415C553.999 298.022 548.863 292.729 542.469 292.52C542.312 292.52 542.207 292.52 542.05 292.52C535.656 292.52 530.415 297.655 530.258 304.101C529.262 352.522 512.387 398.219 483.93 435.111C480.419 439.67 480.733 446.116 484.611 450.308C489.485 455.549 497.766 455.234 502.325 449.784L513.593 453.767L518.519 455.496C518.519 455.496 518.729 455.601 518.833 455.601C511.182 465.872 502.744 475.672 493.468 484.895C475.912 502.451 456.364 517.176 435.296 528.915C431.365 525.037 425.339 523.989 420.203 526.556C406.472 533.369 392.06 538.924 377.071 543.221C371.569 544.793 367.795 549.614 367.481 555.064C367.481 555.326 367.481 555.588 367.481 555.85C367.481 556.794 367.586 557.737 367.795 558.68C368.214 560.619 369.053 562.296 370.154 563.763C373.35 567.956 378.906 569.999 384.304 568.48C400.864 563.763 416.796 557.632 431.942 550.086C436.606 547.78 439.331 543.116 439.331 538.243C439.331 537.876 439.331 537.509 439.331 537.142C461.342 524.932 481.781 509.577 500.071 491.288C510.553 480.808 520.091 469.593 528.634 457.802C530.206 458.012 531.726 458.117 533.298 458.117C552.846 458.536 571.241 446.535 578.159 427.093L597.916 371.283C604.729 352.051 598.126 331.299 582.98 319.298L582.875 319.246Z" fill="#F9A630"/>
<path d="M307.789 103.393C200.354 103.393 113.41 189.231 112.204 296.712C111.261 376.576 158.218 445.54 226.086 476.773C240.498 483.428 253.337 493.07 263.714 505.123L300.714 548.252C304.435 552.601 311.195 552.601 314.916 548.252L351.916 505.123C362.292 493.018 375.237 483.375 389.754 476.668C456.888 445.697 503.426 377.781 503.426 299.018C503.426 190.961 415.853 103.393 307.789 103.393ZM218.539 322.652C205.542 322.652 195.06 312.119 195.06 299.175C195.06 286.231 205.594 275.698 218.539 275.698C231.484 275.698 242.017 286.231 242.017 299.175C242.017 312.119 231.484 322.652 218.539 322.652ZM305.43 322.652C292.433 322.652 281.952 312.119 281.952 299.175C281.952 286.231 292.486 275.698 305.43 275.698C318.375 275.698 328.909 286.231 328.909 299.175C328.909 312.119 318.375 322.652 305.43 322.652ZM392.322 322.652C379.325 322.652 368.843 312.119 368.843 299.175C368.843 286.231 379.377 275.698 392.322 275.698C405.266 275.698 415.8 286.231 415.8 299.175C415.8 312.119 405.266 322.652 392.322 322.652Z" fill="#50A7DD"/>
</svg>
