<svg width="3240" height="833" viewBox="0 0 3240 833" fill="none" xmlns="http://www.w3.org/2000/svg">
<path d="M1093.8 209.788H1175.85L1278.9 476.879H1196.85L1181.62 434.876H1083.97L1069.12 476.879H989.025L1093.95 209.788H1093.8ZM1160.92 377.723L1133.85 303.318H1130.02L1103.7 377.723H1160.92Z" fill="black"/>
<path d="M1339.87 274.666H1257.82V209.788H1496.25V274.666H1414.2V476.879H1339.8V274.666H1339.87Z" fill="black"/>
<path d="M1601.25 274.666H1519.2V209.788H1757.63V274.666H1675.57V476.879H1601.18V274.666H1601.25Z" fill="black"/>
<path d="M2045.7 333.845V352.896C2045.7 444.477 1980.83 482.654 1912.13 482.654C1843.43 482.654 1778.62 444.477 1778.62 352.896V333.845C1778.62 242.265 1843.5 204.087 1912.13 204.087C1980.75 204.087 2045.7 242.265 2045.7 333.845ZM1912.2 417.775C1952.25 417.775 1967.55 398.724 1967.55 358.597V328.07C1967.55 288.017 1952.33 268.966 1912.2 268.966C1872.08 268.966 1856.85 288.017 1856.85 328.07V358.597C1856.85 398.649 1872.08 417.775 1912.2 417.775Z" fill="black"/>
<path d="M2097.22 209.788H2244.07C2291.77 209.788 2341.35 223.138 2341.35 280.367V299.418C2341.35 331.82 2324.17 350.946 2293.65 354.771V358.597C2320.35 362.422 2337.53 375.773 2337.53 408.174V427.226C2337.53 438.701 2337.52 457.752 2341.35 476.804H2266.95C2263.13 457.752 2263.12 442.452 2263.12 434.801V419.575C2263.12 400.524 2255.47 392.874 2236.42 392.874H2171.55V476.804H2097.15V209.788H2097.22ZM2240.32 328.07C2255.55 328.07 2263.2 320.419 2263.2 306.693V295.593C2263.2 282.242 2255.55 274.591 2240.32 274.591H2171.62V327.995H2240.32V328.07Z" fill="black"/>
<path d="M2396.77 209.788H2482.65L2574.22 362.422H2578.05V209.788H2652.45V476.879H2566.57L2475 324.244H2471.17V476.879H2396.77V209.788Z" fill="black"/>
<path d="M2713.42 209.788H2927.1V274.666H2787.82V312.844H2919.45V371.947H2787.82V412H2928.97V476.879H2713.42V209.788Z" fill="black"/>
<path d="M3142.65 209.788H3222.75L3125.47 381.473V476.879H3051.07V381.473L2949.97 209.788H3035.85L3088.87 307.068H3092.7L3142.65 209.788Z" fill="black"/>
<path d="M1055.78 547.233H1095.83L1159.2 710.293H1120.05L1107 675.566H1041.75L1028.93 710.293H990.975L1055.7 547.233H1055.78ZM1096.28 647.139L1075.05 590.736H1073.18L1052.18 647.139H1096.2H1096.28Z" fill="black"/>
<path d="M1358.4 646.014L1321.8 640.688C1293.38 636.488 1278.68 619.237 1278.68 596.436V590.585C1278.68 561.484 1302.9 544.233 1345.27 544.233C1387.65 544.233 1410.52 561.259 1411.65 598.086H1377.37L1377.15 594.111C1376.25 580.835 1366.65 573.634 1345.2 573.634C1322.17 573.634 1313.55 580.16 1313.55 590.66V592.986C1313.55 603.036 1319.4 606.936 1333.35 609.262L1369.95 614.587C1402.35 619.237 1416.3 635.063 1416.3 658.84V665.815C1416.3 694.917 1392.3 713.368 1348.05 713.368C1300.05 713.368 1276.5 696.567 1275.38 656.289H1310.33L1310.55 660.265C1311.45 677.066 1324.05 683.591 1348.05 683.591C1370.63 683.591 1380.9 677.516 1380.9 665.89V663.565C1380.9 653.514 1375.27 648.864 1358.32 646.089L1358.4 646.014Z" fill="black"/>
<path d="M1627.95 646.014L1591.35 640.688C1562.92 636.488 1548.22 619.237 1548.22 596.436V590.585C1548.22 561.484 1572.45 544.233 1614.82 544.233C1657.2 544.233 1680.08 561.259 1681.2 598.086H1646.92L1646.7 594.111C1645.8 580.835 1636.2 573.634 1614.75 573.634C1591.73 573.634 1583.1 580.16 1583.1 590.66V592.986C1583.1 603.036 1588.95 606.936 1602.9 609.262L1639.5 614.587C1671.9 619.237 1685.85 635.063 1685.85 658.84V665.815C1685.85 694.917 1661.85 713.368 1617.6 713.368C1569.6 713.368 1546.05 696.567 1544.93 656.289H1579.87L1580.1 660.265C1581 677.066 1593.6 683.591 1617.6 683.591C1640.17 683.591 1650.45 677.516 1650.45 665.89V663.565C1650.45 653.514 1644.83 648.864 1627.88 646.089L1627.95 646.014Z" fill="black"/>
<path d="M1823.4 547.233H1858.8V710.293H1823.4V547.233Z" fill="black"/>
<path d="M2078.78 646.014L2042.18 640.688C2013.75 636.488 1999.05 619.237 1999.05 596.436V590.585C1999.05 561.484 2023.28 544.233 2065.65 544.233C2108.03 544.233 2130.9 561.259 2132.02 598.086H2097.75L2097.53 594.111C2096.63 580.835 2087.02 573.634 2065.57 573.634C2042.55 573.634 2033.92 580.16 2033.92 590.66V592.986C2033.92 603.036 2039.77 606.936 2053.72 609.262L2090.32 614.587C2122.72 619.237 2136.68 635.063 2136.68 658.84V665.815C2136.68 694.917 2112.68 713.368 2068.43 713.368C2020.43 713.368 1996.88 696.567 1995.75 656.289H2030.7L2030.93 660.265C2031.83 677.066 2044.43 683.591 2068.43 683.591C2091 683.591 2101.28 677.516 2101.28 665.89V663.565C2101.28 653.514 2095.65 648.864 2078.7 646.089L2078.78 646.014Z" fill="black"/>
<path d="M2307.53 578.435H2253.98V547.233H2396.1V578.435H2343V710.293H2307.6V578.435H2307.53Z" fill="black"/>
<path d="M2553.53 547.233H2593.58L2656.95 710.293H2617.8L2604.75 675.566H2539.5L2526.68 710.293H2488.73L2553.45 547.233H2553.53ZM2594.1 647.139L2572.88 590.736H2571L2550 647.139H2594.03H2594.1Z" fill="black"/>
<path d="M2785.12 547.233H2825.4L2896.95 655.314H2898.6V547.233H2934.23V710.293H2893.72L2822.47 602.211H2820.6V710.293H2785.2V547.233H2785.12Z" fill="black"/>
<path d="M3116.92 578.435H3063.38V547.233H3205.5V578.435H3152.4V710.293H3117V578.435H3116.92Z" fill="black"/>
<path d="M834.15 456.928C834.825 447.402 835.2 437.726 835.2 427.976C835.2 351.696 813.525 280.442 776.025 220.063C781.575 210.388 781.5 197.787 774.375 187.961C699.75 84.2301 578.025 16.7261 440.475 16.7261C302.925 16.7261 181.275 84.2301 106.575 187.886C99.4501 197.787 99.3751 210.313 104.925 219.988C67.4251 280.367 45.7501 351.621 45.7501 427.901C45.7501 437.651 46.1251 447.252 46.8001 456.853C25.1251 474.029 15.7501 503.73 25.4251 531.257L53.7001 611.137C63.5251 638.888 89.9251 656.139 117.9 655.539C120.075 655.539 122.325 655.314 124.575 655.089C129.15 654.564 133.8 653.514 138.375 651.939C138.525 651.939 138.675 651.789 138.825 651.789L145.875 649.314L162 643.614C168.45 651.414 180.3 651.864 187.35 644.439C192.975 638.363 193.425 629.213 188.325 622.687C147.6 569.884 123.45 504.48 122.025 435.176C121.8 425.726 114 418.225 104.625 418.6C95.6251 418.9 88.3501 426.326 88.3501 435.326V435.701C88.3501 436.676 88.3501 437.576 88.4251 438.551L72.3751 444.252C72.1501 438.926 72.0001 433.601 72.0001 428.201C72.0001 357.247 92.1001 291.018 126.825 234.764C137.325 236.039 148.05 231.614 154.575 222.538C218.475 133.808 322.725 76.0546 440.475 76.0546C558.225 76.0546 662.4 133.808 726.375 222.538C732.9 231.539 743.625 236.039 754.125 234.764C788.85 291.018 808.95 357.247 808.95 428.201C808.95 433.601 808.8 438.926 808.575 444.252L792.525 438.551C792.525 437.576 792.525 436.676 792.6 435.701C792.825 426.551 785.475 418.975 776.325 418.675C776.1 418.675 775.95 418.675 775.725 418.675C766.575 418.675 759.075 426.026 758.85 435.251C757.425 504.555 733.275 569.959 692.55 622.762C687.525 629.288 687.975 638.513 693.525 644.514C700.5 652.014 712.35 651.564 718.875 643.764L735 649.464L742.05 651.939C742.05 651.939 742.35 652.089 742.5 652.089C731.55 666.79 719.475 680.816 706.2 694.017C681.075 719.143 653.1 740.22 622.95 757.021C617.325 751.47 608.7 749.97 601.35 753.645C581.7 763.396 561.075 771.346 539.625 777.497C531.75 779.747 526.35 786.647 525.9 794.448C525.9 794.823 525.9 795.198 525.9 795.573C525.9 796.923 526.05 798.273 526.35 799.623C526.95 802.398 528.15 804.798 529.725 806.899C534.3 812.899 542.25 815.824 549.975 813.649C573.675 806.899 596.475 798.123 618.15 787.322C624.825 784.022 628.725 777.347 628.725 770.371C628.725 769.846 628.725 769.321 628.725 768.796C660.225 751.32 689.475 729.344 715.65 703.167C730.65 688.166 744.3 672.115 756.525 655.239C758.775 655.539 760.95 655.689 763.2 655.689C791.175 656.289 817.5 639.113 827.4 611.287L855.675 531.407C865.425 503.88 855.975 474.179 834.3 457.003L834.15 456.928Z" fill="black"/>
<path d="M440.475 147.984C286.725 147.984 162.3 270.841 160.575 424.676C159.225 538.982 226.425 637.688 323.55 682.391C344.175 691.917 362.55 705.717 377.4 722.968L430.35 784.697C435.675 790.923 445.35 790.923 450.675 784.697L503.625 722.968C518.475 705.642 537 691.842 557.775 682.241C653.85 637.913 720.45 540.707 720.45 427.976C720.45 273.316 595.125 147.984 440.475 147.984ZM312.75 461.803C294.15 461.803 279.15 446.727 279.15 428.201C279.15 409.675 294.225 394.599 312.75 394.599C331.275 394.599 346.35 409.675 346.35 428.201C346.35 446.727 331.275 461.803 312.75 461.803ZM437.1 461.803C418.5 461.803 403.5 446.727 403.5 428.201C403.5 409.675 418.575 394.599 437.1 394.599C455.625 394.599 470.7 409.675 470.7 428.201C470.7 446.727 455.625 461.803 437.1 461.803ZM561.45 461.803C542.85 461.803 527.85 446.727 527.85 428.201C527.85 409.675 542.925 394.599 561.45 394.599C579.975 394.599 595.05 409.675 595.05 428.201C595.05 446.727 579.975 461.803 561.45 461.803Z" fill="black"/>
</svg>
