<?xml version="1.0" encoding="UTF-8"?>
<svg id="Layer_1" xmlns="http://www.w3.org/2000/svg" version="1.1" viewBox="0 0 1462.7 293.37">
  <!-- Generator: Adobe Illustrator 30.6.0, SVG Export Plug-In . SVG Version: 2.1.4 Build 109)  -->
  <defs>
    <style>
      .st0 {
        fill: #000000;
      }

      .st1 {
        fill: #000000;
      }

      .st2 {
        fill: #000000;
      }

      .st3 {
        fill: #000000;
      }

      .st4 {
        isolation: isolate;
      }

      .st5 {
        fill: #000000;
      }

      .st6 {
        fill: #000000;
      }
    </style>
  </defs>
  <g class="st4">
    <g class="st4">
      <path class="st6" d="M523.52,40.25h32.99l46.8,120.89h-32.64l-8.29-22.62h-46.63l-8.29,22.62h-31.6l47.67-120.89ZM553.74,115.2l-14.16-38.17h-1.55l-13.82,38.17h29.53Z"/>
      <path class="st6" d="M629.9,66.16h-38.34v-25.91h106.38v25.91h-38.34v94.98h-29.71v-94.98Z"/>
      <path class="st6" d="M743.54,66.16h-38.34v-25.91h106.38v25.91h-38.34v94.98h-29.7v-94.98Z"/>
      <path class="st6" d="M936.27,96.72v7.94c0,41.45-28.15,58.89-58.89,58.89s-59.06-17.44-59.06-58.89v-7.94c0-41.45,28.15-58.89,59.06-58.89s58.89,17.44,58.89,58.89ZM877.38,137.48c19.52,0,27.8-9.5,27.8-29.53v-14.51c0-20.03-8.29-29.53-27.8-29.53s-27.98,9.5-27.98,29.53v14.51c0,20.03,8.29,29.53,27.98,29.53Z"/>
      <path class="st6" d="M957.86,40.25h64.76c21.76,0,42.48,6.91,42.48,31.78v8.12c0,14.51-7.6,23.14-21.59,24.87v1.55c12.09,1.55,19.69,7.08,19.69,21.59v9.67c0,6.04,0,14.68,1.73,23.31h-29.7c-1.73-8.63-1.73-15.89-1.73-20.72v-7.08c0-9.33-3.45-12.78-12.78-12.78h-33.33v40.58h-29.53V40.25ZM1021.59,94.65c8.46,0,12.43-4.32,12.43-11.4v-6.04c0-6.74-3.97-11.05-12.43-11.05h-34.19v28.5h34.19Z"/>
      <path class="st6" d="M1088.42,40.25h33.85l47.84,75.3h1.55V40.25h29.53v120.89h-33.85l-47.84-75.3h-1.55v75.3h-29.53V40.25Z"/>
      <path class="st6" d="M1226.93,40.25h94.47v25.91h-64.93v21.93h61.14v23.83h-61.14v23.31h65.8v25.9h-95.33V40.25Z"/>
      <path class="st6" d="M1416.89,40.25h31.95l-44.38,76.85v44.04h-29.53v-44.04l-46.28-76.85h34.19l27.11,47.49h1.55l25.39-47.49Z"/>
    </g>
  </g>
  <g class="st4">
    <g class="st4">
      <path class="st6" d="M512.94,195.78h20.97l37.56,95.95h-20.15l-8.64-22.75h-39.75l-8.64,22.75h-19.46l38.11-95.95ZM536.93,254.04l-13.84-36.19h-.82l-13.71,36.19h28.37Z"/>
      <path class="st6" d="M651.52,252.67l-21.93-3.43c-16.04-2.6-24.67-11.65-24.67-24.95v-3.43c0-16.31,13.71-26.73,37.97-26.73s37.42,9.87,38.11,31.39h-17.54l-.14-2.47c-.41-8.91-6.72-13.71-20.42-13.71-14.53,0-20.01,4.39-20.01,11.51v1.37c0,6.71,3.56,9.18,12.61,10.55l21.93,3.56c18.09,2.74,26.32,11.79,26.32,25.5v4.11c0,16.45-13.71,27.41-39.34,27.41-27.69,0-40.98-10.14-41.67-33.58h17.82l.14,2.47c.55,10.96,8.22,15.49,23.71,15.49,14.53,0,21.11-3.84,21.11-11.92v-1.37c0-6.58-3.56-10.01-13.98-11.79Z"/>
      <path class="st6" d="M771.05,252.67l-21.93-3.43c-16.04-2.6-24.67-11.65-24.67-24.95v-3.43c0-16.31,13.71-26.73,37.97-26.73s37.42,9.87,38.11,31.39h-17.54l-.14-2.47c-.41-8.91-6.72-13.71-20.42-13.71-14.53,0-20.01,4.39-20.01,11.51v1.37c0,6.71,3.56,9.18,12.61,10.55l21.93,3.56c18.09,2.74,26.32,11.79,26.32,25.5v4.11c0,16.45-13.71,27.41-39.34,27.41-27.69,0-40.98-10.14-41.67-33.58h17.82l.14,2.47c.55,10.96,8.22,15.49,23.71,15.49,14.53,0,21.11-3.84,21.11-11.92v-1.37c0-6.58-3.56-10.01-13.98-11.79Z"/>
      <path class="st6" d="M846.85,195.78h18.23v95.95h-18.23v-95.95Z"/>
      <path class="st6" d="M957.73,252.67l-21.93-3.43c-16.04-2.6-24.67-11.65-24.67-24.95v-3.43c0-16.31,13.71-26.73,37.97-26.73s37.42,9.87,38.11,31.39h-17.54l-.14-2.47c-.41-8.91-6.72-13.71-20.42-13.71-14.53,0-20.01,4.39-20.01,11.51v1.37c0,6.71,3.56,9.18,12.61,10.55l21.93,3.56c18.09,2.74,26.32,11.79,26.32,25.5v4.11c0,16.45-13.71,27.41-39.34,27.41-27.69,0-40.98-10.14-41.67-33.58h17.82l.14,2.47c.55,10.96,8.22,15.49,23.71,15.49,14.53,0,21.11-3.84,21.11-11.92v-1.37c0-6.58-3.56-10.01-13.98-11.79Z"/>
      <path class="st6" d="M1053.68,211.82h-32.35v-16.04h82.79v16.04h-32.21v79.91h-18.23v-79.91Z"/>
      <path class="st6" d="M1159.09,195.78h20.97l37.56,95.95h-20.15l-8.64-22.75h-39.75l-8.63,22.75h-19.46l38.11-95.95ZM1183.08,254.04l-13.84-36.19h-.82l-13.71,36.19h28.37Z"/>
      <path class="st6" d="M1255.45,195.78h20.7l46.05,67.58h.96v-67.58h18.23v95.95h-20.7l-46.05-67.58h-.96v67.58h-18.23v-95.95Z"/>
      <path class="st6" d="M1412.26,211.82h-32.35v-16.04h82.79v16.04h-32.21v79.91h-18.23v-79.91Z"/>
    </g>
  </g>
  <g class="st4">
    <g class="st4">
      <path class="st2" d="M519.52,35.54h32.99l46.8,120.89h-32.64l-8.29-22.62h-46.63l-8.29,22.62h-31.6l47.67-120.89ZM549.74,110.49l-14.16-38.17h-1.55l-13.82,38.17h29.53Z"/>
      <path class="st2" d="M625.9,61.45h-38.34v-25.91h106.38v25.91h-38.34v94.98h-29.71V61.45Z"/>
      <path class="st2" d="M739.54,61.45h-38.34v-25.91h106.38v25.91h-38.34v94.98h-29.7V61.45Z"/>
      <path class="st2" d="M932.27,92.01v7.94c0,41.45-28.15,58.89-58.89,58.89s-59.06-17.44-59.06-58.89v-7.94c0-41.45,28.15-58.89,59.06-58.89s58.89,17.44,58.89,58.89ZM873.38,132.77c19.52,0,27.8-9.5,27.8-29.53v-14.51c0-20.03-8.29-29.53-27.8-29.53s-27.98,9.5-27.98,29.53v14.51c0,20.03,8.29,29.53,27.98,29.53Z"/>
      <path class="st2" d="M953.86,35.54h64.76c21.76,0,42.48,6.91,42.48,31.78v8.12c0,14.51-7.6,23.14-21.59,24.87v1.55c12.09,1.55,19.69,7.08,19.69,21.59v9.67c0,6.04,0,14.68,1.73,23.31h-29.7c-1.73-8.63-1.73-15.89-1.73-20.72v-7.08c0-9.33-3.45-12.78-12.78-12.78h-33.33v40.58h-29.53V35.54ZM1017.59,89.94c8.46,0,12.43-4.32,12.43-11.4v-6.04c0-6.74-3.97-11.05-12.43-11.05h-34.19v28.5h34.19Z"/>
      <path class="st2" d="M1084.42,35.54h33.85l47.84,75.3h1.55V35.54h29.53v120.89h-33.85l-47.84-75.3h-1.55v75.3h-29.53V35.54Z"/>
      <path class="st2" d="M1222.93,35.54h94.47v25.91h-64.93v21.93h61.14v23.83h-61.14v23.31h65.8v25.9h-95.33V35.54Z"/>
      <path class="st2" d="M1412.89,35.54h31.95l-44.38,76.85v44.04h-29.53v-44.04l-46.28-76.85h34.19l27.11,47.49h1.55l25.39-47.49Z"/>
    </g>
  </g>
  <g class="st4">
    <g class="st4">
      <path class="st1" d="M509.66,192.26h20.97l37.56,95.95h-20.15l-8.63-22.75h-39.75l-8.63,22.75h-19.46l38.11-95.95ZM533.65,250.52l-13.84-36.19h-.82l-13.71,36.19h28.37Z"/>
      <path class="st1" d="M648.24,249.15l-21.93-3.43c-16.04-2.6-24.67-11.65-24.67-24.95v-3.43c0-16.31,13.71-26.73,37.97-26.73s37.42,9.87,38.11,31.39h-17.54l-.14-2.47c-.41-8.91-6.72-13.71-20.42-13.71-14.53,0-20.01,4.39-20.01,11.51v1.37c0,6.72,3.56,9.18,12.61,10.55l21.93,3.56c18.09,2.74,26.32,11.79,26.32,25.5v4.11c0,16.45-13.71,27.41-39.34,27.41-27.69,0-40.98-10.14-41.67-33.58h17.82l.14,2.47c.55,10.96,8.22,15.49,23.71,15.49,14.53,0,21.11-3.84,21.11-11.92v-1.37c0-6.58-3.56-10.01-13.98-11.79Z"/>
      <path class="st1" d="M767.77,249.15l-21.93-3.43c-16.04-2.6-24.67-11.65-24.67-24.95v-3.43c0-16.31,13.71-26.73,37.97-26.73s37.42,9.87,38.11,31.39h-17.54l-.14-2.47c-.41-8.91-6.72-13.71-20.42-13.71-14.53,0-20.01,4.39-20.01,11.51v1.37c0,6.72,3.56,9.18,12.61,10.55l21.93,3.56c18.09,2.74,26.32,11.79,26.32,25.5v4.11c0,16.45-13.71,27.41-39.34,27.41-27.69,0-40.98-10.14-41.67-33.58h17.82l.14,2.47c.55,10.96,8.22,15.49,23.71,15.49,14.53,0,21.11-3.84,21.11-11.92v-1.37c0-6.58-3.56-10.01-13.98-11.79Z"/>
      <path class="st1" d="M843.57,192.26h18.23v95.95h-18.23v-95.95Z"/>
      <path class="st1" d="M954.45,249.15l-21.93-3.43c-16.04-2.6-24.67-11.65-24.67-24.95v-3.43c0-16.31,13.71-26.73,37.97-26.73s37.42,9.87,38.11,31.39h-17.54l-.14-2.47c-.41-8.91-6.72-13.71-20.42-13.71-14.53,0-20.01,4.39-20.01,11.51v1.37c0,6.72,3.56,9.18,12.61,10.55l21.93,3.56c18.09,2.74,26.32,11.79,26.32,25.5v4.11c0,16.45-13.71,27.41-39.34,27.41-27.69,0-40.98-10.14-41.67-33.58h17.82l.14,2.47c.55,10.96,8.22,15.49,23.71,15.49,14.53,0,21.11-3.84,21.11-11.92v-1.37c0-6.58-3.56-10.01-13.98-11.79Z"/>
      <path class="st1" d="M1050.4,208.3h-32.35v-16.04h82.79v16.04h-32.21v79.91h-18.23v-79.91Z"/>
      <path class="st1" d="M1155.81,192.26h20.97l37.56,95.95h-20.15l-8.64-22.75h-39.75l-8.64,22.75h-19.46l38.11-95.95ZM1179.8,250.52l-13.84-36.19h-.82l-13.71,36.19h28.37Z"/>
      <path class="st1" d="M1252.17,192.26h20.7l46.06,67.58h.96v-67.58h18.23v95.95h-20.7l-46.06-67.58h-.96v67.58h-18.23v-95.95Z"/>
      <path class="st1" d="M1408.98,208.3h-32.35v-16.04h82.79v16.04h-32.21v79.91h-18.23v-79.91Z"/>
    </g>
  </g>
  <path class="st5" d="M166.21.09c29.93-.12,59.86-.12,89.79,0-6.17,12.11-13.37,23.65-20.11,35.41-48.66,85.56-98.36,170.55-147.13,256.11-29.59.11-59.17,0-88.76.11,4.8-9.71,10.97-18.73,15.99-28.33C66.26,175.78,116.29,87.93,166.21.09h0Z"/>
  <path class="st3" d="M250.74,47.26c19.99,34.16,39.3,68.77,59.06,103.04,24.45,43.07,48.21,86.48,72.65,129.54,2.28,3.88,4.46,7.77,6.4,11.77-30.04.11-60.09.11-90.13,0-30.73-52.89-61.46-105.9-92.87-158.44-1.37-1.49,0-3.31.69-4.8,14.74-26.96,29.47-54.03,44.21-81.11h0Z"/>
  <path class="st0" d="M192.83,161.84c4.57,5.94,8.11,12.68,12.11,19.08,17.93,28.67,35.18,57.8,52.55,86.82,4.34,7.54,9.71,14.62,13.59,22.5-25.93-11.77-51.52-24.45-77.45-36.21-.91-.23-1.83-.11-2.63.46-25.25,11.65-50.26,23.99-75.51,35.53,11.31-19.76,23.76-38.95,35.3-58.6,14.05-23.19,28.22-46.27,42.04-69.57h0Z"/>
</svg>