<svg width="2368" height="2368" viewBox="0 0 2368 2368" fill="none" xmlns="http://www.w3.org/2000/svg">
<path d="M395.22 1434.82H459.263L539.678 1643.37H475.635L463.705 1610.58H387.421L375.8 1643.37H313.255L395.168 1434.82H395.22ZM447.642 1565.9L426.467 1507.8H423.471L402.915 1565.9H447.591H447.642Z" fill="#F9A630"/>
<path d="M587.349 1485.44H523.306V1434.77H709.496V1485.44H645.453V1643.32H587.349V1485.44Z" fill="#F9A630"/>
<path d="M791.409 1485.44H727.366V1434.77H913.556V1485.44H849.513V1643.32H791.409V1485.44Z" fill="#F9A630"/>
<path d="M1138.48 1531.61V1546.48C1138.48 1617.96 1087.82 1647.76 1034.21 1647.76C980.595 1647.76 929.929 1617.96 929.929 1546.48V1531.61C929.929 1460.13 980.595 1430.33 1034.21 1430.33C1087.82 1430.33 1138.48 1460.13 1138.48 1531.61ZM1034.26 1597.15C1065.56 1597.15 1077.43 1582.27 1077.43 1550.98V1527.17C1077.43 1495.87 1065.5 1480.99 1034.26 1480.99C1003.01 1480.99 991.08 1495.87 991.08 1527.17V1550.98C991.08 1582.27 1003.01 1597.15 1034.26 1597.15Z" fill="#F9A630"/>
<path d="M1178.72 1434.82H1293.43C1330.66 1434.82 1369.4 1445.26 1369.4 1489.93V1504.8C1369.4 1530.11 1355.97 1545.04 1332.16 1547.98V1550.98C1353.03 1553.97 1366.4 1564.4 1366.4 1589.71V1604.59C1366.4 1613.52 1366.4 1628.39 1369.4 1643.32H1311.3C1308.3 1628.45 1308.3 1616.52 1308.3 1610.52V1598.59C1308.3 1583.72 1302.36 1577.73 1287.43 1577.73H1236.77V1643.27H1178.66V1434.72L1178.72 1434.82ZM1290.43 1527.17C1302.36 1527.17 1308.3 1521.23 1308.3 1510.49V1501.86C1308.3 1491.43 1302.36 1485.49 1290.43 1485.49H1236.82V1527.22H1290.43V1527.17Z" fill="#F9A630"/>
<path d="M1412.58 1434.82H1479.62L1551.1 1553.97H1554.09V1434.82H1612.19V1643.37H1545.16L1473.68 1524.22H1470.68V1643.37H1412.58V1434.82Z" fill="#F9A630"/>
<path d="M1659.87 1434.82H1826.69V1485.49H1717.97V1515.29H1820.75V1561.46H1717.97V1592.76H1828.19V1643.42H1659.87V1434.87V1434.82Z" fill="#F9A630"/>
<path d="M1995.01 1434.82H2057.55L1981.58 1568.9V1643.37H1923.48V1568.9L1844.51 1434.82H1911.54L1952.97 1510.79H1955.96L1995.01 1434.82Z" fill="#F9A630"/>
<path d="M365.522 1698.22H396.821L446.299 1825.53H415.724L405.549 1798.41H354.625L344.605 1825.53H314.959L365.522 1698.22ZM397.182 1776.26L380.603 1732.26H379.157L362.785 1776.26H397.182Z" fill="#50A7DD"/>
<path d="M601.811 1775.33L573.249 1771.15C551.041 1767.89 539.575 1754.41 539.575 1736.59V1732.05C539.575 1709.32 558.478 1695.84 591.584 1695.84C624.691 1695.84 642.509 1709.12 643.439 1737.89H616.685L616.479 1734.79C615.756 1724.41 608.267 1718.78 591.533 1718.78C573.508 1718.78 566.794 1723.89 566.794 1732.05V1733.86C566.794 1741.66 571.339 1744.75 582.236 1746.61L610.797 1750.8C636.105 1754.41 647.002 1766.81 647.002 1785.35V1790.82C647.002 1813.55 628.254 1827.91 593.702 1827.91C556.257 1827.91 537.871 1814.79 536.941 1783.33H564.211L564.418 1786.43C565.141 1799.55 574.954 1804.61 593.702 1804.61C611.366 1804.61 619.371 1799.86 619.371 1790.77V1788.96C619.371 1781.17 614.981 1777.5 601.707 1775.33H601.811Z" fill="#50A7DD"/>
<path d="M812.275 1775.33L783.714 1771.15C761.505 1767.89 750.04 1754.41 750.04 1736.59V1732.05C750.04 1709.32 768.943 1695.84 802.049 1695.84C835.155 1695.84 852.973 1709.12 853.903 1737.89H827.15L826.943 1734.79C826.22 1724.41 818.731 1718.78 801.997 1718.78C783.972 1718.78 777.258 1723.89 777.258 1732.05V1733.86C777.258 1741.66 781.803 1744.75 792.701 1746.61L821.262 1750.8C846.569 1754.41 857.467 1766.81 857.467 1785.35V1790.82C857.467 1813.55 838.719 1827.91 804.166 1827.91C766.722 1827.91 748.335 1814.79 747.406 1783.33H774.676L774.882 1786.43C775.605 1799.55 785.418 1804.61 804.166 1804.61C821.83 1804.61 829.835 1799.86 829.835 1790.77V1788.96C829.835 1781.17 825.445 1777.5 812.172 1775.33H812.275Z" fill="#50A7DD"/>
<path d="M964.894 1698.22H992.526V1825.53H964.894V1698.22Z" fill="#50A7DD"/>
<path d="M1164.31 1775.33L1135.74 1771.15C1113.54 1767.89 1102.07 1754.41 1102.07 1736.59V1732.05C1102.07 1709.32 1120.97 1695.84 1154.08 1695.84C1187.19 1695.84 1205 1709.12 1205.93 1737.89H1179.18L1178.97 1734.79C1178.25 1724.41 1170.76 1718.78 1154.03 1718.78C1136 1718.78 1129.29 1723.89 1129.29 1732.05V1733.86C1129.29 1741.66 1133.83 1744.75 1144.73 1746.61L1173.29 1750.8C1198.6 1754.41 1209.5 1766.81 1209.5 1785.35V1790.82C1209.5 1813.55 1190.75 1827.91 1156.2 1827.91C1118.7 1827.91 1100.37 1814.79 1099.44 1783.33H1126.71L1126.91 1786.43C1127.64 1799.55 1137.45 1804.61 1156.2 1804.61C1173.86 1804.61 1181.87 1799.86 1181.87 1790.77V1788.96C1181.87 1781.17 1177.48 1777.5 1164.2 1775.33H1164.31Z" fill="#50A7DD"/>
<path d="M1342.96 1722.6H1301.12V1698.22H1412.06V1722.6H1370.59V1825.53H1342.96V1722.6Z" fill="#50A7DD"/>
<path d="M1535.03 1698.22H1566.33L1615.81 1825.53H1585.23L1575.06 1798.41H1524.14L1514.12 1825.53H1484.47L1535.03 1698.22ZM1566.69 1776.26L1550.11 1732.26H1548.67L1532.3 1776.26H1566.69Z" fill="#50A7DD"/>
<path d="M1715.85 1698.22H1747.31L1803.14 1782.61H1804.43V1698.22H1832.27V1825.53H1800.61L1744.93 1741.14H1743.48V1825.53H1715.85V1698.22Z" fill="#50A7DD"/>
<path d="M1974.92 1722.6H1933.08V1698.22H2044.02V1722.6H2002.55V1825.53H1974.92V1722.6Z" fill="#50A7DD"/>
<path d="M1574.65 978.73C1575.32 969.279 1575.68 959.776 1575.68 950.118C1575.68 874.662 1554.25 804.216 1517.16 744.512C1522.69 734.957 1522.59 722.511 1515.56 712.749C1441.76 610.282 1321.37 543.555 1185.43 543.555C1049.49 543.555 929.102 610.282 855.298 712.801C848.273 722.562 848.17 735.009 853.697 744.564C816.613 804.267 795.18 874.714 795.18 950.169C795.18 959.776 795.541 969.33 796.213 978.782C774.779 995.774 765.482 1025.11 775.089 1052.33L803.03 1131.29C812.74 1158.77 838.874 1175.76 866.505 1175.19C868.674 1175.19 870.895 1174.99 873.064 1174.73C877.609 1174.16 882.154 1173.18 886.699 1171.58C886.854 1171.58 887.009 1171.48 887.164 1171.42L894.137 1168.95L910.096 1163.26C916.5 1170.96 928.224 1171.48 935.145 1164.04C940.723 1158.05 941.136 1148.96 936.126 1142.5C895.841 1090.29 871.98 1025.68 870.534 957.142C870.327 947.794 862.632 940.408 853.283 940.718C844.348 941.028 837.221 948.31 837.221 957.245V957.607C837.221 958.536 837.221 959.466 837.324 960.396L821.468 965.973C821.21 960.705 821.107 955.437 821.107 950.118C821.107 879.982 840.94 814.442 875.337 758.87C885.718 760.161 896.358 755.719 902.762 746.785C965.979 659.037 1069.02 601.967 1185.43 601.967C1301.84 601.967 1404.88 659.088 1468.1 746.785C1474.55 755.719 1485.14 760.161 1495.52 758.87C1529.87 814.493 1549.75 879.982 1549.75 950.118C1549.75 955.437 1549.65 960.705 1549.39 965.973L1533.54 960.396C1533.54 959.466 1533.59 958.536 1533.64 957.607C1533.85 948.568 1526.61 941.08 1517.58 940.77C1517.37 940.77 1517.21 940.77 1517.01 940.77C1507.92 940.77 1500.58 948.052 1500.38 957.193C1498.93 1025.73 1475.07 1090.39 1434.78 1142.55C1429.83 1149.01 1430.24 1158.1 1435.77 1164.04C1442.69 1171.48 1454.41 1170.96 1460.82 1163.26L1476.77 1168.95L1483.75 1171.42C1483.75 1171.42 1484.06 1171.53 1484.21 1171.58C1473.37 1186.14 1461.44 1199.98 1448.32 1213.05C1423.47 1237.89 1395.79 1258.71 1365.99 1275.34C1360.46 1269.86 1351.89 1268.36 1344.61 1271.98C1325.19 1281.59 1304.79 1289.49 1283.56 1295.53C1275.76 1297.75 1270.44 1304.62 1269.98 1312.32C1269.98 1312.68 1269.98 1313.04 1269.98 1313.4C1269.98 1314.74 1270.13 1316.09 1270.44 1317.43C1271.06 1320.17 1272.2 1322.54 1273.75 1324.61C1278.24 1330.55 1286.09 1333.44 1293.74 1331.27C1317.18 1324.61 1339.7 1315.88 1361.14 1305.24C1367.75 1301.99 1371.57 1295.38 1371.57 1288.51C1371.57 1287.99 1371.57 1287.47 1371.52 1286.96C1402.66 1269.71 1431.58 1247.96 1457.46 1222.09C1472.33 1207.22 1485.81 1191.36 1497.85 1174.68C1500.07 1174.94 1502.24 1175.09 1504.41 1175.14C1532.04 1175.71 1558.12 1158.72 1567.88 1131.24L1595.82 1052.28C1605.48 1025.06 1596.13 995.722 1574.75 978.73H1574.65Z" fill="#F9A630"/>
<path d="M1185.43 673.343C1033.38 673.343 910.406 794.816 908.65 946.864C907.358 1059.87 973.726 1157.48 1069.79 1201.69C1090.19 1211.09 1108.37 1224.77 1123.04 1241.82L1175.41 1302.86C1180.68 1309.01 1190.18 1309.01 1195.5 1302.86L1247.87 1241.82C1262.59 1224.67 1280.87 1211.04 1301.38 1201.53C1396.36 1157.69 1462.26 1061.62 1462.26 950.118C1462.26 797.243 1338.36 673.343 1185.48 673.343H1185.43ZM1059.15 983.533C1040.76 983.533 1025.89 968.659 1025.89 950.273C1025.89 931.886 1040.76 917.012 1059.15 917.012C1077.54 917.012 1092.41 931.886 1092.41 950.273C1092.41 968.659 1077.54 983.533 1059.15 983.533ZM1182.07 983.533C1163.69 983.533 1148.81 968.659 1148.81 950.273C1148.81 931.886 1163.69 917.012 1182.07 917.012C1200.46 917.012 1215.33 931.886 1215.33 950.273C1215.33 968.659 1200.46 983.533 1182.07 983.533ZM1305.05 983.533C1286.66 983.533 1271.78 968.659 1271.78 950.273C1271.78 931.886 1286.66 917.012 1305.05 917.012C1323.43 917.012 1338.31 931.886 1338.31 950.273C1338.31 968.659 1323.43 983.533 1305.05 983.533Z" fill="#50A7DD"/>
</svg>
