<svg width="1771" height="1300" viewBox="0 0 1771 1300" fill="none" xmlns="http://www.w3.org/2000/svg">
<path d="M96.2198 900.822H160.263L240.678 1109.37H176.635L164.705 1076.58H88.421L76.8003 1109.37H14.2549L96.1682 900.822H96.2198ZM148.642 1031.9L127.467 973.799H124.471L103.915 1031.9H148.591H148.642Z" fill="#F9A630"/>
<path d="M288.349 951.436H224.306V900.771H410.496V951.436H346.453V1109.32H288.349V951.436Z" fill="#F9A630"/>
<path d="M492.409 951.436H428.366V900.771H614.556V951.436H550.513V1109.32H492.409V951.436Z" fill="#F9A630"/>
<path d="M839.482 997.608V1012.48C839.482 1083.96 788.816 1113.76 735.205 1113.76C681.595 1113.76 630.929 1083.96 630.929 1012.48V997.608C630.929 926.129 681.595 896.329 735.205 896.329C788.816 896.329 839.482 926.129 839.482 997.608ZM735.257 1063.15C766.555 1063.15 778.434 1048.27 778.434 1016.98V993.167C778.434 961.869 766.504 946.995 735.257 946.995C704.01 946.995 692.079 961.869 692.079 993.167V1016.98C692.079 1048.27 704.01 1063.15 735.257 1063.15Z" fill="#F9A630"/>
<path d="M879.716 900.822H994.425C1031.66 900.822 1070.4 911.255 1070.4 955.929V970.804C1070.4 996.111 1056.97 1011.04 1033.16 1013.98V1016.98C1054.03 1019.97 1067.4 1030.4 1067.4 1055.71V1070.59C1067.4 1079.52 1067.4 1094.39 1070.4 1109.32H1012.3C1009.3 1094.45 1009.3 1082.52 1009.3 1076.52V1064.59C1009.3 1049.72 1003.36 1043.73 988.434 1043.73H937.768V1109.27H879.664V900.719L879.716 900.822ZM991.43 993.167C1003.36 993.167 1009.3 987.227 1009.3 976.485V967.86C1009.3 957.427 1003.36 951.488 991.43 951.488H937.819V993.218H991.43V993.167Z" fill="#F9A630"/>
<path d="M1113.58 900.822H1180.62L1252.1 1019.97H1255.09V900.822H1313.19V1109.37H1246.16L1174.68 990.223H1171.68V1109.37H1113.58V900.822Z" fill="#F9A630"/>
<path d="M1360.87 900.822H1527.69V951.488H1418.97V981.288H1521.75V1027.46H1418.97V1058.76H1529.19V1109.42H1360.87V900.874V900.822Z" fill="#F9A630"/>
<path d="M1696.01 900.822H1758.55L1682.58 1034.9V1109.37H1624.48V1034.9L1545.51 900.822H1612.54L1653.97 976.795H1656.96L1696.01 900.822Z" fill="#F9A630"/>
<path d="M66.5223 1164.22H97.8209L147.299 1291.53H116.724L106.549 1264.42H55.6247L45.605 1291.53H15.9592L66.5223 1164.22ZM98.1824 1242.26L81.6035 1198.26H80.1573L63.785 1242.26H98.1824Z" fill="#50A7DD"/>
<path d="M302.811 1241.33L274.249 1237.15C252.041 1233.89 240.575 1220.41 240.575 1202.59V1198.05C240.575 1175.32 259.478 1161.84 292.584 1161.84C325.691 1161.84 343.509 1175.12 344.439 1203.89H317.685L317.479 1200.79C316.755 1190.41 309.267 1184.78 292.533 1184.78C274.508 1184.78 267.793 1189.89 267.793 1198.05V1199.86C267.793 1207.66 272.338 1210.75 283.236 1212.61L311.797 1216.8C337.105 1220.41 348.002 1232.81 348.002 1251.35V1256.82C348.002 1279.55 329.254 1293.91 294.702 1293.91C257.257 1293.91 238.871 1280.79 237.941 1249.33H265.211L265.418 1252.43C266.141 1265.55 275.954 1270.61 294.702 1270.61C312.365 1270.61 320.371 1265.86 320.371 1256.77V1254.96C320.371 1247.17 315.981 1243.5 302.707 1241.33H302.811Z" fill="#50A7DD"/>
<path d="M513.275 1241.33L484.714 1237.15C462.505 1233.89 451.04 1220.41 451.04 1202.59V1198.05C451.04 1175.32 469.943 1161.84 503.049 1161.84C536.155 1161.84 553.973 1175.12 554.903 1203.89H528.15L527.943 1200.79C527.22 1190.41 519.731 1184.78 502.997 1184.78C484.972 1184.78 478.258 1189.89 478.258 1198.05V1199.86C478.258 1207.66 482.803 1210.75 493.701 1212.61L522.262 1216.8C547.569 1220.41 558.467 1232.81 558.467 1251.35V1256.82C558.467 1279.55 539.719 1293.91 505.166 1293.91C467.722 1293.91 449.335 1280.79 448.406 1249.33H475.676L475.882 1252.43C476.605 1265.55 486.418 1270.61 505.166 1270.61C522.83 1270.61 530.835 1265.86 530.835 1256.77V1254.96C530.835 1247.17 526.445 1243.5 513.172 1241.33H513.275Z" fill="#50A7DD"/>
<path d="M665.894 1164.22H693.526V1291.53H665.894V1164.22Z" fill="#50A7DD"/>
<path d="M865.306 1241.33L836.745 1237.15C814.536 1233.89 803.07 1220.41 803.07 1202.59V1198.05C803.07 1175.32 821.973 1161.84 855.08 1161.84C888.186 1161.84 906.004 1175.12 906.934 1203.89H880.18L879.974 1200.79C879.251 1190.41 871.762 1184.78 855.028 1184.78C837.003 1184.78 830.289 1189.89 830.289 1198.05V1199.86C830.289 1207.66 834.834 1210.75 845.731 1212.61L874.293 1216.8C899.6 1220.41 910.498 1232.81 910.498 1251.35V1256.82C910.498 1279.55 891.749 1293.91 857.197 1293.91C819.701 1293.91 801.366 1280.79 800.436 1249.33H827.706L827.913 1252.43C828.636 1265.55 838.449 1270.61 857.197 1270.61C874.861 1270.61 882.866 1265.86 882.866 1256.77V1254.96C882.866 1247.17 878.476 1243.5 865.203 1241.33H865.306Z" fill="#50A7DD"/>
<path d="M1043.96 1188.6H1002.12V1164.22H1113.06V1188.6H1071.59V1291.53H1043.96V1188.6Z" fill="#50A7DD"/>
<path d="M1236.03 1164.22H1267.33L1316.81 1291.53H1286.23L1276.06 1264.42H1225.14L1215.12 1291.53H1185.47L1236.03 1164.22ZM1267.69 1242.26L1251.11 1198.26H1249.67L1233.3 1242.26H1267.69Z" fill="#50A7DD"/>
<path d="M1416.85 1164.22H1448.31L1504.14 1248.61H1505.43V1164.22H1533.27V1291.53H1501.61L1445.93 1207.14H1444.48V1291.53H1416.85V1164.22Z" fill="#50A7DD"/>
<path d="M1675.92 1188.6H1634.08V1164.22H1745.02V1188.6H1703.55V1291.53H1675.92V1188.6Z" fill="#50A7DD"/>
<path d="M1275.65 444.73C1276.32 435.279 1276.68 425.776 1276.68 416.118C1276.68 340.662 1255.25 270.216 1218.16 210.512C1223.69 200.957 1223.59 188.511 1216.56 178.749C1142.76 76.2822 1022.37 9.55463 886.43 9.55463C750.493 9.55463 630.102 76.2822 556.298 178.801C549.273 188.562 549.17 201.009 554.697 210.564C517.613 270.267 496.18 340.714 496.18 416.169C496.18 425.776 496.541 435.33 497.213 444.782C475.779 461.773 466.482 491.109 476.089 518.327L504.03 597.295C513.74 624.771 539.874 641.762 567.505 641.194C569.674 641.194 571.895 640.988 574.064 640.729C578.609 640.161 583.154 639.18 587.699 637.579C587.854 637.579 588.009 637.476 588.164 637.424L595.137 634.945L611.096 629.264C617.5 636.959 629.224 637.476 636.145 630.039C641.723 624.048 642.136 614.958 637.126 608.502C596.841 556.287 572.98 491.677 571.534 423.142C571.327 413.794 563.632 406.408 554.283 406.718C545.348 407.028 538.221 414.31 538.221 423.245V423.607C538.221 424.536 538.221 425.466 538.324 426.395L522.468 431.973C522.21 426.705 522.107 421.437 522.107 416.118C522.107 345.981 541.94 280.442 576.337 224.87C586.718 226.161 597.358 221.719 603.762 212.785C666.979 125.037 770.016 67.9671 886.43 67.9671C1002.84 67.9671 1105.88 125.088 1169.1 212.785C1175.55 221.719 1186.14 226.161 1196.52 224.87C1230.87 280.493 1250.75 345.981 1250.75 416.118C1250.75 421.437 1250.65 426.705 1250.39 431.973L1234.54 426.395C1234.54 425.466 1234.59 424.536 1234.64 423.607C1234.85 414.568 1227.61 407.08 1218.58 406.77C1218.37 406.77 1218.21 406.77 1218.01 406.77C1208.92 406.77 1201.58 414.052 1201.38 423.193C1199.93 491.729 1176.07 556.39 1135.78 608.554C1130.83 615.009 1131.24 624.099 1136.77 630.039C1143.69 637.476 1155.41 636.959 1161.82 629.264L1177.77 634.945L1184.75 637.424C1184.75 637.424 1185.06 637.527 1185.21 637.579C1174.37 652.143 1162.44 665.985 1149.32 679.051C1124.47 703.893 1096.79 724.707 1066.99 741.337C1061.46 735.863 1052.89 734.365 1045.61 737.98C1026.19 747.586 1005.79 755.488 984.56 761.531C976.762 763.752 971.442 770.621 970.977 778.316C970.977 778.678 970.977 779.039 970.977 779.401C970.977 780.744 971.132 782.087 971.442 783.429C972.062 786.167 973.198 788.542 974.747 790.608C979.241 796.548 987.091 799.44 994.735 797.271C1018.18 790.608 1040.7 781.88 1062.14 771.241C1068.75 767.987 1072.57 761.376 1072.57 754.507C1072.57 753.991 1072.57 753.474 1072.52 752.958C1103.66 735.708 1132.58 713.964 1158.46 688.089C1173.33 673.215 1186.81 657.36 1198.85 640.678C1201.07 640.936 1203.24 641.091 1205.41 641.143C1233.04 641.711 1259.12 624.719 1268.88 597.243L1296.82 518.275C1306.48 491.057 1297.13 461.722 1275.75 444.73H1275.65Z" fill="#F9A630"/>
<path d="M886.43 139.343C734.379 139.343 611.406 260.816 609.65 412.864C608.358 525.867 674.726 623.479 770.79 667.689C791.191 677.089 809.371 690.775 824.039 707.819L876.41 768.865C881.678 775.011 891.181 775.011 896.501 768.865L948.872 707.819C963.591 690.672 981.875 677.037 1002.38 667.534C1097.36 623.686 1163.26 527.623 1163.26 416.118C1163.26 263.243 1039.36 139.343 886.481 139.343H886.43ZM760.151 449.533C741.764 449.533 726.89 434.659 726.89 416.273C726.89 397.886 741.764 383.012 760.151 383.012C778.538 383.012 793.412 397.886 793.412 416.273C793.412 434.659 778.538 449.533 760.151 449.533ZM883.073 449.533C864.686 449.533 849.811 434.659 849.811 416.273C849.811 397.886 864.686 383.012 883.073 383.012C901.459 383.012 916.334 397.886 916.334 416.273C916.334 434.659 901.459 449.533 883.073 449.533ZM1006.05 449.533C987.659 449.533 972.785 434.659 972.785 416.273C972.785 397.886 987.659 383.012 1006.05 383.012C1024.43 383.012 1039.31 397.886 1039.31 416.273C1039.31 434.659 1024.43 449.533 1006.05 449.533Z" fill="#50A7DD"/>
</svg>
