<svg width="343" height="252" viewBox="0 0 343 252" fill="none" xmlns="http://www.w3.org/2000/svg">
<path d="M18.63 174.42H31.03L46.6 214.8H34.2L31.89 208.45H17.12L14.87 214.8H2.76001L18.62 174.42H18.63ZM28.78 199.8L24.68 188.55H24.1L20.12 199.8H28.77H28.78Z" fill="white"/>
<path d="M55.83 184.22H43.43V174.41H79.48V184.22H67.08V214.79H55.83V184.22Z" fill="white"/>
<path d="M95.34 184.22H82.94V174.41H118.99V184.22H106.59V214.79H95.34V184.22Z" fill="white"/>
<path d="M162.54 193.16V196.04C162.54 209.88 152.73 215.65 142.35 215.65C131.97 215.65 122.16 209.88 122.16 196.04V193.16C122.16 179.32 131.97 173.55 142.35 173.55C152.73 173.55 162.54 179.32 162.54 193.16ZM142.36 205.85C148.42 205.85 150.72 202.97 150.72 196.91V192.3C150.72 186.24 148.41 183.36 142.36 183.36C136.31 183.36 134 186.24 134 192.3V196.91C134 202.97 136.31 205.85 142.36 205.85Z" fill="white"/>
<path d="M170.33 174.42H192.54C199.75 174.42 207.25 176.44 207.25 185.09V187.97C207.25 192.87 204.65 195.76 200.04 196.33V196.91C204.08 197.49 206.67 199.51 206.67 204.41V207.29C206.67 209.02 206.67 211.9 207.25 214.79H196C195.42 211.91 195.42 209.6 195.42 208.44V206.13C195.42 203.25 194.27 202.09 191.38 202.09H181.57V214.78H170.32V174.4L170.33 174.42ZM191.96 192.3C194.27 192.3 195.42 191.15 195.42 189.07V187.4C195.42 185.38 194.27 184.23 191.96 184.23H181.58V192.31H191.96V192.3Z" fill="white"/>
<path d="M215.61 174.42H228.59L242.43 197.49H243.01V174.42H254.26V214.8H241.28L227.44 191.73H226.86V214.8H215.61V174.42Z" fill="white"/>
<path d="M263.49 174.42H295.79V184.23H274.74V190H294.64V198.94H274.74V205H296.08V214.81H263.49V174.43V174.42Z" fill="white"/>
<path d="M328.38 174.42H340.49L325.78 200.38V214.8H314.53V200.38L299.24 174.42H312.22L320.24 189.13H320.82L328.38 174.42Z" fill="white"/>
<path d="M12.88 225.42H18.94L28.52 250.07H22.6L20.63 244.82H10.77L8.83003 250.07H3.09003L12.88 225.42ZM19.01 240.53L15.8 232.01H15.52L12.35 240.53H19.01Z" fill="white"/>
<path d="M58.63 240.35L53.1 239.54C48.8 238.91 46.58 236.3 46.58 232.85V231.97C46.58 227.57 50.24 224.96 56.65 224.96C63.06 224.96 66.51 227.53 66.69 233.1H61.51L61.47 232.5C61.33 230.49 59.88 229.4 56.64 229.4C53.15 229.4 51.85 230.39 51.85 231.97V232.32C51.85 233.83 52.73 234.43 54.84 234.79L60.37 235.6C65.27 236.3 67.38 238.7 67.38 242.29V243.35C67.38 247.75 63.75 250.53 57.06 250.53C49.81 250.53 46.25 247.99 46.07 241.9H51.35L51.39 242.5C51.53 245.04 53.43 246.02 57.06 246.02C60.48 246.02 62.03 245.1 62.03 243.34V242.99C62.03 241.48 61.18 240.77 58.61 240.35H58.63Z" fill="white"/>
<path d="M99.38 240.35L93.85 239.54C89.55 238.91 87.33 236.3 87.33 232.85V231.97C87.33 227.57 90.99 224.96 97.4 224.96C103.81 224.96 107.26 227.53 107.44 233.1H102.26L102.22 232.5C102.08 230.49 100.63 229.4 97.39 229.4C93.9 229.4 92.6 230.39 92.6 231.97V232.32C92.6 233.83 93.48 234.43 95.59 234.79L101.12 235.6C106.02 236.3 108.13 238.7 108.13 242.29V243.35C108.13 247.75 104.5 250.53 97.81 250.53C90.56 250.53 87 247.99 86.82 241.9H92.1L92.14 242.5C92.28 245.04 94.18 246.02 97.81 246.02C101.23 246.02 102.78 245.1 102.78 243.34V242.99C102.78 241.48 101.93 240.77 99.36 240.35H99.38Z" fill="white"/>
<path d="M128.93 225.42H134.28V250.07H128.93V225.42Z" fill="white"/>
<path d="M167.54 240.35L162.01 239.54C157.71 238.91 155.49 236.3 155.49 232.85V231.97C155.49 227.57 159.15 224.96 165.56 224.96C171.97 224.96 175.42 227.53 175.6 233.1H170.42L170.38 232.5C170.24 230.49 168.79 229.4 165.55 229.4C162.06 229.4 160.76 230.39 160.76 231.97V232.32C160.76 233.83 161.64 234.43 163.75 234.79L169.28 235.6C174.18 236.3 176.29 238.7 176.29 242.29V243.35C176.29 247.75 172.66 250.53 165.97 250.53C158.71 250.53 155.16 247.99 154.98 241.9H160.26L160.3 242.5C160.44 245.04 162.34 246.02 165.97 246.02C169.39 246.02 170.94 245.1 170.94 243.34V242.99C170.94 241.48 170.09 240.77 167.52 240.35H167.54Z" fill="white"/>
<path d="M202.13 230.14H194.03V225.42H215.51V230.14H207.48V250.07H202.13V230.14Z" fill="white"/>
<path d="M239.32 225.42H245.38L254.96 250.07H249.04L247.07 244.82H237.21L235.27 250.07H229.53L239.32 225.42ZM245.45 240.53L242.24 232.01H241.96L238.79 240.53H245.45Z" fill="white"/>
<path d="M274.33 225.42H280.42L291.23 241.76H291.48V225.42H296.87V250.07H290.74L279.96 233.73H279.68V250.07H274.33V225.42Z" fill="white"/>
<path d="M324.49 230.14H316.39V225.42H337.87V230.14H329.84V250.07H324.49V230.14Z" fill="white"/>
<path d="M246.99 86.11C247.12 84.28 247.19 82.44 247.19 80.57C247.19 65.96 243.04 52.32 235.86 40.76C236.93 38.91 236.91 36.5 235.55 34.61C221.26 14.77 197.95 1.84998 171.63 1.84998C145.31 1.84998 122 14.77 107.71 34.62C106.35 36.51 106.33 38.92 107.4 40.77C100.22 52.33 96.07 65.97 96.07 80.58C96.07 82.44 96.14 84.29 96.27 86.12C92.12 89.41 90.32 95.09 92.18 100.36L97.59 115.65C99.47 120.97 104.53 124.26 109.88 124.15C110.3 124.15 110.73 124.11 111.15 124.06C112.03 123.95 112.91 123.76 113.79 123.45C113.82 123.45 113.85 123.43 113.88 123.42L115.23 122.94L118.32 121.84C119.56 123.33 121.83 123.43 123.17 121.99C124.25 120.83 124.33 119.07 123.36 117.82C115.56 107.71 110.94 95.2 110.66 81.93C110.62 80.12 109.13 78.69 107.32 78.75C105.59 78.81 104.21 80.22 104.21 81.95V82.02C104.21 82.2 104.21 82.38 104.23 82.56L101.16 83.64C101.11 82.62 101.09 81.6 101.09 80.57C101.09 66.99 104.93 54.3 111.59 43.54C113.6 43.79 115.66 42.93 116.9 41.2C129.14 24.21 149.09 13.16 171.63 13.16C194.17 13.16 214.12 24.22 226.36 41.2C227.61 42.93 229.66 43.79 231.67 43.54C238.32 54.31 242.17 66.99 242.17 80.57C242.17 81.6 242.15 82.62 242.1 83.64L239.03 82.56C239.03 82.38 239.04 82.2 239.05 82.02C239.09 80.27 237.69 78.82 235.94 78.76C235.9 78.76 235.87 78.76 235.83 78.76C234.07 78.76 232.65 80.17 232.61 81.94C232.33 95.21 227.71 107.73 219.91 117.83C218.95 119.08 219.03 120.84 220.1 121.99C221.44 123.43 223.71 123.33 224.95 121.84L228.04 122.94L229.39 123.42C229.39 123.42 229.45 123.44 229.48 123.45C227.38 126.27 225.07 128.95 222.53 131.48C217.72 136.29 212.36 140.32 206.59 143.54C205.52 142.48 203.86 142.19 202.45 142.89C198.69 144.75 194.74 146.28 190.63 147.45C189.12 147.88 188.09 149.21 188 150.7C188 150.77 188 150.84 188 150.91C188 151.17 188.03 151.43 188.09 151.69C188.21 152.22 188.43 152.68 188.73 153.08C189.6 154.23 191.12 154.79 192.6 154.37C197.14 153.08 201.5 151.39 205.65 149.33C206.93 148.7 207.67 147.42 207.67 146.09C207.67 145.99 207.67 145.89 207.66 145.79C213.69 142.45 219.29 138.24 224.3 133.23C227.18 130.35 229.79 127.28 232.12 124.05C232.55 124.1 232.97 124.13 233.39 124.14C238.74 124.25 243.79 120.96 245.68 115.64L251.09 100.35C252.96 95.08 251.15 89.4 247.01 86.11H246.99Z" fill="white"/>
<path d="M171.63 26.98C142.19 26.98 118.38 50.5 118.04 79.94C117.79 101.82 130.64 120.72 149.24 129.28C153.19 131.1 156.71 133.75 159.55 137.05L169.69 148.87C170.71 150.06 172.55 150.06 173.58 148.87L183.72 137.05C186.57 133.73 190.11 131.09 194.08 129.25C212.47 120.76 225.23 102.16 225.23 80.57C225.23 50.97 201.24 26.98 171.64 26.98H171.63ZM147.18 87.04C143.62 87.04 140.74 84.16 140.74 80.6C140.74 77.04 143.62 74.16 147.18 74.16C150.74 74.16 153.62 77.04 153.62 80.6C153.62 84.16 150.74 87.04 147.18 87.04ZM170.98 87.04C167.42 87.04 164.54 84.16 164.54 80.6C164.54 77.04 167.42 74.16 170.98 74.16C174.54 74.16 177.42 77.04 177.42 80.6C177.42 84.16 174.54 87.04 170.98 87.04ZM194.79 87.04C191.23 87.04 188.35 84.16 188.35 80.6C188.35 77.04 191.23 74.16 194.79 74.16C198.35 74.16 201.23 77.04 201.23 80.6C201.23 84.16 198.35 87.04 194.79 87.04Z" fill="white"/>
</svg>
